<?xml version="1.0" encoding="utf-8"?>
<!-- Generator: Adobe Illustrator 26.0.3, SVG Export Plug-In . SVG Version: 6.00 Build 0)  -->
<svg version="1.1" id="Capa_1" xmlns="http://www.w3.org/2000/svg" xmlns:xlink="http://www.w3.org/1999/xlink" x="0px" y="0px"
	 viewBox="0 0 149.3 129.3" style="enable-background:new 0 0 149.3 129.3;" xml:space="preserve">
<style type="text/css">
	.st0{fill:#D1ACBC;}
</style>
<g>
	<path class="st0" d="M31.7,34.5c-7.1,7-10.7,15-10.7,23.8c0,3.9,0.6,7.1,1.8,9.6c1.2,2.5,2.5,4.3,3.7,5.5c2.2-1.5,4.7-2.5,7.4-3
		c2.7-0.5,5.4-0.7,8.1-0.7c2.7,0,5.5,0.5,8.5,1.5c3,1,5.7,2.5,8.1,4.6c2.5,2.1,4.6,4.8,6.3,8.1c1.7,3.3,2.6,7.3,2.6,12
		c0,4.7-0.9,8.7-2.6,12c-1.7,3.3-3.9,6-6.6,8.1c-2.7,2.1-5.7,3.6-9,4.6c-3.3,1-6.6,1.5-9.8,1.5c-9.4,0-17.4-3.8-24-11.4
		c-6.6-7.6-10-18.5-10-32.5c0-9.6,1.8-18.1,5.4-25.5c3.6-7.4,7.9-13.9,13.1-19.6c5.2-5.7,10.8-10.6,17-15c6.2-4.3,11.8-8.2,17-11.6
		l2.6,4.8C48.5,19.8,38.9,27.5,31.7,34.5z M108.2,34.5c-7.1,7-10.7,15-10.7,23.8c0,3.9,0.6,7.1,1.8,9.6c1.2,2.5,2.5,4.3,3.7,5.5
		c2.2-1.5,4.7-2.5,7.4-3c2.7-0.5,5.4-0.7,8.1-0.7c2.7,0,5.5,0.5,8.5,1.5c3,1,5.7,2.5,8.1,4.6c2.5,2.1,4.6,4.8,6.3,8.1
		c1.7,3.3,2.6,7.3,2.6,12c0,4.7-0.9,8.7-2.6,12c-1.7,3.3-3.9,6-6.6,8.1c-2.7,2.1-5.7,3.6-9,4.6c-3.3,1-6.6,1.5-9.8,1.5
		c-9.4,0-17.4-3.8-24-11.4c-6.6-7.6-10-18.5-10-32.5c0-9.6,1.8-18.1,5.4-25.5c3.6-7.4,7.9-13.9,13.1-19.6c5.2-5.7,10.8-10.6,17-15
		c6.2-4.3,11.8-8.2,17-11.6l2.6,4.8C124.9,19.8,115.3,27.5,108.2,34.5z"/>
</g>
</svg>
