<?xml version="1.0" encoding="utf-8"?>
<!-- Generator: Adobe Illustrator 26.0.3, SVG Export Plug-In . SVG Version: 6.00 Build 0)  -->
<svg version="1.1" id="Capa_1" xmlns="http://www.w3.org/2000/svg" xmlns:xlink="http://www.w3.org/1999/xlink" x="0px" y="0px"
	 viewBox="0 0 70 70" style="enable-background:new 0 0 70 70;" xml:space="preserve">
<style type="text/css">
	.st0{fill:#FFFFFF;stroke:#233D4D;stroke-miterlimit:10;}
	.st1{fill:#FFFFFF;}
	.st2{fill:#233D4D;}
	.st3{fill:#FAC844;stroke:#233D4D;stroke-linejoin:round;stroke-miterlimit:10;}
	.st4{fill:none;}
	.st5{fill:#EA5F59;stroke:#233D4D;stroke-miterlimit:10;}
</style>
<g>
	<path class="st0" d="M17.4,56.9l49.1,0c1.6,0,2.9-1.5,2.5-3.1l-7-34.2c-0.2-1.2-1.3-2.1-2.5-2.1l-48,0"/>
	<path class="st0" d="M51.7,56.9l-48.2,0c-1.3,0-2.2-1.2-2-2.4l7.2-35.4c0.2-0.9,1-1.6,2-1.6l48.2,0c1.3,0,2.2,1.2,2,2.4l-7.2,35.4
		C53.5,56.2,52.6,56.9,51.7,56.9z"/>
	<g>
		<path class="st1" d="M9.7,35.6c-0.1,0-0.2-0.1-0.3-0.1c-0.1-0.1-0.1-0.2-0.1-0.3l1-4.8c0-0.1,0.2-0.3,0.3-0.3l7.6,0
			c0.1,0,0.2,0.1,0.3,0.1c0.1,0.1,0.1,0.2,0.1,0.3l-1,4.8c0,0.1-0.2,0.3-0.3,0.3l0,0L9.7,35.6z"/>
		<path class="st2" d="M10.7,30.6l7.3,0l-0.9,4.5l-7.3,0L10.7,30.6 M10.6,29.6c-0.4,0-0.7,0.3-0.8,0.7l-1,4.8
			c-0.1,0.5,0.3,1.1,0.9,1.1l7.6,0c0.4,0,0.7-0.3,0.8-0.7l1-4.8c0.1-0.5-0.3-1.1-0.9-1.1L10.6,29.6L10.6,29.6z"/>
	</g>
	<g>
		<path class="st1" d="M21.4,35.6c-0.1,0-0.2-0.1-0.3-0.1C21,35.4,21,35.2,21,35.1l1-4.8c0-0.1,0.2-0.3,0.3-0.3l7.6,0
			c0.1,0,0.2,0.1,0.3,0.1c0.1,0.1,0.1,0.2,0.1,0.3l-1,4.8c0,0.1-0.2,0.3-0.3,0.3l0,0L21.4,35.6z"/>
		<path class="st2" d="M22.5,30.6l7.3,0l-0.9,4.5l-7.3,0L22.5,30.6 M22.3,29.6c-0.4,0-0.7,0.3-0.8,0.7l-1,4.8
			c-0.1,0.5,0.3,1.1,0.9,1.1l7.6,0c0.4,0,0.7-0.3,0.8-0.7l1-4.8c0.1-0.5-0.3-1.1-0.9-1.1L22.3,29.6L22.3,29.6z"/>
	</g>
	<g>
		<path class="st1" d="M33.2,35.6c-0.1,0-0.2-0.1-0.3-0.1c-0.1-0.1-0.1-0.2-0.1-0.3l1-4.8c0-0.1,0.2-0.3,0.3-0.3l7.6,0
			c0.1,0,0.2,0.1,0.3,0.1c0.1,0.1,0.1,0.2,0.1,0.3l-1,4.8c0,0.1-0.2,0.3-0.3,0.3l0,0L33.2,35.6z"/>
		<path class="st2" d="M34.2,30.6l7.3,0l-0.9,4.5l-7.3,0L34.2,30.6 M34.1,29.6c-0.4,0-0.7,0.3-0.8,0.7l-1,4.8
			c-0.1,0.5,0.3,1.1,0.9,1.1l7.6,0c0.4,0,0.7-0.3,0.8-0.7l1-4.8c0.1-0.5-0.3-1.1-0.9-1.1L34.1,29.6L34.1,29.6z"/>
	</g>
	<g>
		<path class="st1" d="M44.9,35.6c-0.1,0-0.2-0.1-0.3-0.1c-0.1-0.1-0.1-0.2-0.1-0.3l1-4.8c0-0.1,0.2-0.3,0.3-0.3l7.6,0
			c0.1,0,0.2,0.1,0.3,0.1c0.1,0.1,0.1,0.2,0.1,0.3l-1,4.8c0,0.1-0.2,0.3-0.3,0.3l0,0L44.9,35.6z"/>
		<path class="st2" d="M46,30.6l7.3,0l-0.9,4.5l-7.3,0L46,30.6 M45.8,29.6c-0.4,0-0.7,0.3-0.8,0.7l-1,4.8c-0.1,0.5,0.3,1.1,0.9,1.1
			l7.6,0c0.4,0,0.7-0.3,0.8-0.7l1-4.8c0.1-0.5-0.3-1.1-0.9-1.1L45.8,29.6L45.8,29.6z"/>
	</g>
	<g>
		<path class="st1" d="M8.1,43.7c-0.1,0-0.2-0.1-0.3-0.1c-0.1-0.1-0.1-0.2-0.1-0.3l1-4.8c0-0.1,0.2-0.3,0.3-0.3l7.6,0
			c0.1,0,0.2,0.1,0.3,0.1c0.1,0.1,0.1,0.2,0.1,0.3l-1,4.8c0,0.1-0.2,0.3-0.3,0.3l0,0L8.1,43.7z"/>
		<path class="st2" d="M9.2,38.7l7.3,0l-0.9,4.5l-7.3,0L9.2,38.7 M9,37.7c-0.4,0-0.7,0.3-0.8,0.7l-1,4.8c-0.1,0.5,0.3,1.1,0.9,1.1
			l7.6,0c0.4,0,0.7-0.3,0.8-0.7l1-4.8c0.1-0.5-0.3-1.1-0.9-1.1L9,37.7L9,37.7z"/>
	</g>
	<g>
		<path class="st1" d="M19.8,43.7c-0.1,0-0.2-0.1-0.3-0.1c-0.1-0.1-0.1-0.2-0.1-0.3l1-4.8c0-0.1,0.2-0.3,0.3-0.3l7.6,0
			c0.1,0,0.2,0.1,0.3,0.1c0.1,0.1,0.1,0.2,0.1,0.3l-1,4.8c0,0.2-0.2,0.3-0.3,0.3l0,0L19.8,43.7z"/>
		<path class="st2" d="M20.9,38.7l7.3,0l-0.9,4.5l-7.3,0L20.9,38.7 M20.8,37.7c-0.4,0-0.7,0.3-0.8,0.7l-1,4.8
			c-0.1,0.5,0.3,1.1,0.9,1.1l7.6,0c0.4,0,0.7-0.3,0.8-0.7l1-4.8c0.1-0.5-0.3-1.1-0.9-1.1L20.8,37.7L20.8,37.7z"/>
	</g>
	<g>
		<path class="st1" d="M31.6,43.7c-0.1,0-0.2-0.1-0.3-0.1c-0.1-0.1-0.1-0.2-0.1-0.3l1-4.8c0-0.1,0.2-0.3,0.3-0.3l7.6,0
			c0.1,0,0.2,0.1,0.3,0.1c0.1,0.1,0.1,0.2,0.1,0.3l-1,4.8c0,0.2-0.2,0.3-0.3,0.3l0,0L31.6,43.7z"/>
		<path class="st2" d="M32.7,38.7l7.3,0l-0.9,4.5l-7.3,0L32.7,38.7 M32.5,37.7c-0.4,0-0.7,0.3-0.8,0.7l-1,4.8
			c-0.1,0.5,0.3,1.1,0.9,1.1l7.6,0c0.4,0,0.7-0.3,0.8-0.7l1-4.8c0.1-0.5-0.3-1.1-0.9-1.1L32.5,37.7L32.5,37.7z"/>
	</g>
	<g>
		<path class="st1" d="M43.3,43.7c-0.1,0-0.2-0.1-0.3-0.1c-0.1-0.1-0.1-0.2-0.1-0.3l1-4.8c0-0.1,0.2-0.3,0.3-0.3l7.6,0
			c0.1,0,0.2,0.1,0.3,0.1c0.1,0.1,0.1,0.2,0.1,0.3l-1,4.8c0,0.1-0.2,0.3-0.3,0.3l0,0L43.3,43.7z"/>
		<path class="st2" d="M44.4,38.7l7.3,0l-0.9,4.5l-7.3,0L44.4,38.7 M44.3,37.7c-0.4,0-0.7,0.3-0.8,0.7l-1,4.8
			c-0.1,0.5,0.3,1.1,0.9,1.1l7.6,0c0.4,0,0.7-0.3,0.8-0.7l1-4.8c0.1-0.5-0.3-1.1-0.9-1.1L44.3,37.7L44.3,37.7z"/>
	</g>
	<g>
		<path class="st1" d="M6.2,52c-0.1,0-0.2-0.1-0.3-0.1c-0.1-0.1-0.1-0.2-0.1-0.3l1-4.8c0-0.2,0.2-0.3,0.3-0.3l7.6,0
			c0.1,0,0.2,0.1,0.3,0.1c0.1,0.1,0.1,0.2,0.1,0.3l-1,4.8c0,0.2-0.2,0.3-0.3,0.3l0,0L6.2,52z"/>
		<path class="st2" d="M7.3,47l7.3,0l-0.9,4.5l-7.3,0L7.3,47 M7.2,46c-0.4,0-0.7,0.3-0.8,0.7l-1,4.8c-0.1,0.5,0.3,1.1,0.9,1.1l7.6,0
			c0.4,0,0.7-0.3,0.8-0.7l1-4.8c0.1-0.5-0.3-1.1-0.9-1.1L7.2,46L7.2,46z"/>
	</g>
	<g>
		<path class="st1" d="M18,52c-0.1,0-0.2-0.1-0.3-0.1c-0.1-0.1-0.1-0.2-0.1-0.3l1-4.8c0-0.2,0.2-0.3,0.3-0.3l7.6,0
			c0.1,0,0.2,0.1,0.3,0.1c0.1,0.1,0.1,0.2,0.1,0.3l-1,4.8c0,0.2-0.2,0.3-0.3,0.3l0,0L18,52z"/>
		<path class="st2" d="M19.1,47l7.3,0l-0.9,4.5l-7.3,0L19.1,47 M18.9,46c-0.4,0-0.7,0.3-0.8,0.7l-1,4.8C17,52,17.4,52.5,18,52.5
			l7.6,0c0.4,0,0.7-0.3,0.8-0.7l1-4.8c0.1-0.5-0.3-1.1-0.9-1.1L18.9,46L18.9,46z"/>
	</g>
	<g>
		<path class="st1" d="M29.7,52c-0.1,0-0.2-0.1-0.3-0.1c-0.1-0.1-0.1-0.2-0.1-0.3l1-4.8c0-0.2,0.2-0.3,0.3-0.3l7.6,0
			c0.1,0,0.2,0.1,0.3,0.1c0.1,0.1,0.1,0.2,0.1,0.3l-1,4.8c0,0.2-0.2,0.3-0.3,0.3l0,0L29.7,52z"/>
		<path class="st2" d="M30.8,47l7.3,0l-0.9,4.5l-7.3,0L30.8,47 M30.7,46c-0.4,0-0.7,0.3-0.8,0.7l-1,4.8c-0.1,0.5,0.3,1.1,0.9,1.1
			l7.6,0c0.4,0,0.7-0.3,0.8-0.7l1-4.8c0.1-0.5-0.3-1.1-0.9-1.1L30.7,46L30.7,46z"/>
	</g>
	<polygon class="st3" points="48.2,55.7 44.3,52.2 38.4,54.1 41.4,48.6 38.9,43.9 44.6,44 48.9,39.2 49.5,44.8 54.7,46.5 49.3,49.9 
			"/>
	<g>
		<path class="st4" d="M22.2,15.8c-1.5-1-3.6-0.6-4.6,0.9c-0.2,0.2-0.3,0.5-0.4,0.8l6.3,0C23.2,16.8,22.7,16.2,22.2,15.8z"/>
		<path class="st4" d="M51.9,15.8c-1.5-1-3.6-0.6-4.6,0.9c-0.2,0.2-0.3,0.5-0.4,0.8l6.3,0C53,16.8,52.5,16.2,51.9,15.8z"/>
		<path class="st4" d="M37,15.8c-1.5-1-3.6-0.6-4.6,0.9c-0.2,0.2-0.3,0.5-0.4,0.8l6.3,0C38.1,16.8,37.6,16.2,37,15.8z"/>
		<path class="st0" d="M38.3,17.5l-6.3,0c-0.5,1.4,0,3,1.3,3.9c0.6,0.4,0.7,1.2,0.3,1.8c-0.3,0.4-0.7,0.6-1.1,0.6
			c-0.3,0-0.5-0.1-0.7-0.2c-2-1.4-2.9-3.8-2.5-6l-3.3,0"/>
		<path class="st0" d="M53.2,17.5l-6.3,0c-0.5,1.4,0,3,1.3,3.9c0.6,0.4,0.7,1.2,0.3,1.8c-0.3,0.4-0.7,0.6-1.1,0.6
			c-0.3,0-0.5-0.1-0.7-0.2c-2-1.4-2.9-3.8-2.5-6l-3.3,0"/>
		<path class="st5" d="M23.4,17.5c-2.1,0-9,0-9,0l-3.7,0c-1,0-1.8,0.7-2,1.6L7.4,26c0,0,0,0.1,0.1,0.1l52.1,0c0,0,0,0,0.1,0l1.3-6.1
			c0.3-1.2-0.7-2.4-2-2.4l-3,0C45.1,17.5,34.2,17.5,23.4,17.5z"/>
		<path class="st0" d="M46.1,17.5c-0.3-1.4-1.1-2.7-2.3-3.5c-2.5-1.7-5.8-1-7.5,1.4c-0.4,0.6-0.7,1.3-0.8,2
			c-0.4,2.1,0.4,4.2,2.3,5.5c0.2,0.1,0.4,0.2,0.7,0.2c0.4,0,0.8-0.2,1-0.5c0.4-0.5,0.2-1.3-0.3-1.6c-1.2-0.8-1.6-2.3-1.2-3.5
			c0.1-0.2,0.2-0.5,0.3-0.7c0.9-1.4,2.8-1.7,4.2-0.8c0.5,0.4,0.9,0.9,1.2,1.5L46.1,17.5C46.1,17.5,46.1,17.5,46.1,17.5z"/>
		<path class="st0" d="M57.7,17.5c-0.3-1.4-1.1-2.7-2.3-3.5c-2.5-1.7-5.8-1-7.5,1.4c-0.4,0.6-0.7,1.3-0.8,2
			c-0.4,2.1,0.4,4.2,2.3,5.5c0.2,0.1,0.4,0.2,0.7,0.2c0.4,0,0.8-0.2,1-0.5c0.4-0.5,0.2-1.3-0.3-1.6c-1.2-0.8-1.6-2.3-1.2-3.5
			c0.1-0.2,0.2-0.5,0.3-0.7c0.9-1.4,2.8-1.7,4.2-0.8c0.5,0.4,0.9,0.9,1.2,1.5L57.7,17.5C57.7,17.5,57.7,17.5,57.7,17.5z"/>
		<path class="st0" d="M34.5,17.5c-0.3-1.4-1.1-2.7-2.3-3.5c-2.5-1.7-5.8-1-7.5,1.4c-0.4,0.6-0.7,1.3-0.8,2
			c-0.4,2.1,0.4,4.2,2.3,5.5c0.2,0.1,0.4,0.2,0.7,0.2c0.4,0,0.8-0.2,1-0.5c0.4-0.5,0.2-1.3-0.3-1.6c-1.2-0.8-1.6-2.3-1.2-3.5
			c0.1-0.2,0.2-0.5,0.3-0.7c0.9-1.4,2.8-1.7,4.2-0.8c0.5,0.4,0.9,0.9,1.2,1.5L34.5,17.5C34.5,17.5,34.5,17.5,34.5,17.5z"/>
		<path class="st0" d="M22.9,17.5c-0.3-1.4-1.1-2.7-2.3-3.5c-2.5-1.7-5.8-1-7.5,1.4c-0.4,0.6-0.7,1.3-0.8,2
			c-0.4,2.1,0.4,4.2,2.3,5.5c0.2,0.1,0.4,0.2,0.7,0.2c0.4,0,0.8-0.2,1-0.5c0.4-0.5,0.2-1.3-0.3-1.6c-1.2-0.8-1.6-2.3-1.2-3.5
			c0.1-0.2,0.2-0.5,0.3-0.7c0.9-1.4,2.8-1.8,4.2-0.8c0.5,0.4,0.9,0.9,1.2,1.5L22.9,17.5C22.9,17.5,22.9,17.5,22.9,17.5z"/>
	</g>
	<path class="st0" d="M38.4,20.4"/>
	<line class="st0" x1="53.2" y1="17.5" x2="55.9" y2="17.5"/>
</g>
</svg>
