<?xml version="1.0" encoding="utf-8"?>
<!-- Generator: Adobe Illustrator 26.0.3, SVG Export Plug-In . SVG Version: 6.00 Build 0)  -->
<svg version="1.1" id="Capa_1" xmlns="http://www.w3.org/2000/svg" xmlns:xlink="http://www.w3.org/1999/xlink" x="0px" y="0px"
	 viewBox="0 0 30 30" style="enable-background:new 0 0 30 30;" xml:space="preserve">
<style type="text/css">
	.st0{fill:#FFFFFF;}
</style>
<g>
	<path class="st0" d="M29.4,15.1c0-7.8-6.4-14.3-14.3-14.3S0.9,7.2,0.9,15.1c0,7,5.2,13,11.9,14.1c0-3,0-5.8,0-8.6
		c0-0.3,0-0.3-0.3-0.3c-0.9,0-1.7,0-2.7,0c-0.2,0-0.2,0-0.3,0c0-0.2,0-0.2,0-0.3c0-1.1,0-2.3,0-3.4c0-0.3,0-0.3,0.3-0.3
		c0.9,0,1.7,0,2.7,0c0.3,0,0.3-0.2,0.3-0.3c0-0.9,0-1.9,0-2.8c0-1.3,0.3-2.2,1.1-3.1c0.9-0.9,2-1.4,3.3-1.6c1.1,0,2.2,0,3.3,0
		c0.2,0,0.3,0,0.3,0.3c0,1.1,0,2.2,0,3.1c0,0.2,0,0.3-0.3,0.3c-0.8,0-1.4,0-2.2,0s-1.3,0.5-1.4,1.1c0,0.2,0,0.3,0,0.5
		c0,0.8,0,1.6,0,2.3c0,0.2,0,0.3,0.3,0.3c1.1,0,2.2,0,3.3,0c0.2,0,0.2,0,0.3,0c0,0.5-0.2,0.8-0.2,1.3c-0.2,0.8-0.2,1.7-0.3,2.5
		c0,0.3,0,0.3-0.5,0.3c-0.9,0-1.7,0-2.7,0c-0.3,0-0.3,0-0.3,0.3c0,3,0,5.8,0,8.8C23.9,28.4,29.4,22.3,29.4,15.1z"/>
</g>
</svg>
