<?xml version="1.0" encoding="utf-8"?>
<!-- Generator: Adobe Illustrator 26.0.3, SVG Export Plug-In . SVG Version: 6.00 Build 0)  -->
<svg version="1.1" id="Capa_1" xmlns="http://www.w3.org/2000/svg" xmlns:xlink="http://www.w3.org/1999/xlink" x="0px" y="0px"
	 viewBox="0 0 70 70" style="enable-background:new 0 0 70 70;" xml:space="preserve">
<style type="text/css">
	.st0{fill:#7497A8;}
	.st1{fill:none;stroke:#2C3D44;stroke-miterlimit:10;}
	.st2{fill:none;stroke:#2C3D44;stroke-linecap:round;stroke-linejoin:round;stroke-miterlimit:10;}
	.st3{fill:#FFFFFF;}
	.st4{fill:none;stroke:#243C4C;stroke-miterlimit:10;}
	.st5{fill:#FAC844;stroke:#243C4C;stroke-linecap:round;stroke-miterlimit:10;}
</style>
<g>
	<g>
		<path class="st0" d="M47.5,7.4c0.3-0.5,2.4,0.4,2.4,0.4L49,9.4C49,9.4,47.3,7.9,47.5,7.4z"/>
		<path class="st0" d="M44.1,5.7c0.4-0.8,2.5-1.1,5.8,0.7c2.7,1.5,4.3,3.5,3.8,4.3c-0.4,0.8-4.6-1.3-4.6-1.3l0.7-1.2
			c0,0,0.2-0.4-0.3-0.7c-0.9-0.5-1.7-0.5-2-0.2c-0.3,0.4-1.1,2-1.1,2S43.5,6.9,44.1,5.7z"/>
		<path class="st0" d="M37.6,2.3c0.8-1.8,5.7-2.4,13.2,1.6c6.1,3.3,9.7,7.9,8.7,9.7c-1,1.7-6.9-0.4-6.9-0.4l1.5-2.7
			c0,0,0.6-1.2-4.1-4c-2.1-1.2-5.2-2-5.8-1.2c-0.7,0.9-2.5,4.3-2.5,4.3S36.4,4.9,37.6,2.3z"/>
		<line class="st1" x1="10.3" y1="51.4" x2="37.8" y2="2"/>
		<line class="st1" x1="59.7" y1="13.2" x2="32.3" y2="62.5"/>
		<path class="st2" d="M10.5,51.3c-1.8,3.2,7.9,11,12.8,13.7l0,0l27.2-49C45.6,13.2,35.8,5.5,37.6,2.3c1.6-2.9,9-0.6,12.3,1.2
			c6,3.3,10.4,7.5,9.7,9.7c-0.5,1.8-4.8,1.2-9.6-1.3c-3.8-2-6.6-4.8-6.2-6.2c0.3-1.1,3.1-0.8,6.2,0.8c2.5,1.3,4.2,3.1,4,4
			C53.8,11.2,52,11,50,10c-1.6-0.8-2.7-2-2.6-2.5C47.6,7,48.7,7.1,50,7.8l-1,1.6"/>
		<path class="st1" d="M24.9,61.9c4,1.7,6.8,1.6,7.5,0.4"/>
		<line class="st1" x1="43.8" y1="5.7" x2="41.8" y2="9.4"/>
		<line class="st1" x1="47.5" y1="7.4" x2="46.4" y2="9.4"/>
		<line class="st1" x1="54" y1="10.5" x2="52.6" y2="13.1"/>
	</g>
	<g>
		<rect x="7.4" y="48.8" class="st3" width="14.6" height="11.6"/>
		<rect x="21.9" y="51.2" class="st3" width="25.7" height="6.8"/>
		<path class="st0" d="M22.2,60.6c0,2.5-2,4.5-4.5,4.5h-5.8c-2.5,0-4.5-2-4.5-4.5"/>
		<path class="st0" d="M7.5,48.5c0-2.5,2-4.5,4.5-4.5h5.8c2.5,0,4.5,2,4.5,4.5"/>
		<path class="st0" d="M62.7,60.6c0,2.5-2,4.5-4.5,4.5h-5.8c-2.5,0-4.5-2-4.5-4.5"/>
		<path class="st0" d="M47.9,48.5c0-2.5,2-4.5,4.5-4.5h5.8c2.5,0,4.5,2,4.5,4.5"/>
		<path class="st4" d="M58,44h-5.7c-2.5,0-4.6,2.1-4.6,4.6v2.1c0,0.3-0.2,0.5-0.5,0.5H22.7c-0.3,0-0.5-0.2-0.5-0.5v-2.1
			c0-2.5-2.1-4.6-4.6-4.6h-5.7c-2.5,0-4.6,2.1-4.6,4.6v11.9c0,2.5,2.1,4.6,4.6,4.6h5.7c2.5,0,4.6-2.1,4.6-4.6v-2.1
			c0-0.3,0.2-0.5,0.5-0.5h24.5c0.3,0,0.5,0.2,0.5,0.5v2.1c0,2.5,2.1,4.6,4.6,4.6H58c2.5,0,4.6-2.1,4.6-4.6V48.5
			C62.6,46,60.5,44,58,44z"/>
		<line class="st5" x1="7.5" y1="48.7" x2="22.2" y2="48.7"/>
		<line class="st5" x1="22.2" y1="48.7" x2="22.2" y2="60.8"/>
		<line class="st5" x1="47.8" y1="49.2" x2="47.8" y2="60"/>
		<line class="st5" x1="7.6" y1="60.4" x2="22" y2="60.4"/>
		<line class="st5" x1="48.1" y1="48.7" x2="62.2" y2="48.7"/>
		<line class="st5" x1="48" y1="60.3" x2="62.4" y2="60.3"/>
	</g>
</g>
</svg>
