<?xml version="1.0" encoding="utf-8"?>
<!-- Generator: Adobe Illustrator 26.0.3, SVG Export Plug-In . SVG Version: 6.00 Build 0)  -->
<svg version="1.1" id="Capa_1" xmlns="http://www.w3.org/2000/svg" xmlns:xlink="http://www.w3.org/1999/xlink" x="0px" y="0px"
	 viewBox="0 0 30 30" style="enable-background:new 0 0 30 30;" xml:space="preserve">
<style type="text/css">
	.st0{fill:#FFFFFF;}
</style>
<g>
	<path class="st0" d="M15.1,1c2.3,0.2,4.7,0.2,6.9,0.3c3.8,0.3,6.5,3,6.8,6.8c0.2,1.1,0.2,2,0.2,3c0,3.3,0,6.6-0.2,9.9
		c0,2.3-0.8,4.2-2.4,5.9c-1.5,1.4-3.3,2-5.4,2.1c-4.1,0-8.1,0-12.2,0c-2.7,0-5-1.1-6.5-3.3C1.4,24.3,1,22.8,1,21.3
		c0-4.1,0-8.1,0-12.2C1,6.4,2,4.3,4.3,2.7c1.4-0.9,2.9-1.4,4.5-1.4c2,0,3.9,0,6,0C15.1,1,15.1,1,15.1,1z M15.3,3.6L15.3,3.6
		c-1.8,0.2-3.6,0-5.4,0.2c-1.2-0.2-2.3,0-3.3,0.6C4.7,5.2,4,6.7,4,8.5C3.8,12.7,3.8,17,4,21.2c0,3,2,5,5,5c4.2,0.2,8.4,0.2,12.6,0
		c3,0,4.8-2,5-5c0.2-4.2,0.2-8.4,0-12.6c0-3-2-4.8-5-5C19.5,3.6,17.4,3.6,15.3,3.6z"/>
	<path class="st0" d="M22.3,15c0,3.9-3.2,7.2-7.2,7.2S8,19.1,8,15c0-3.9,3.2-7.2,7.2-7.2C19.2,7.8,22.3,11.1,22.3,15z M19.8,15
		c0-2.6-2.1-4.7-4.7-4.7c-2.6,0-4.7,2.1-4.7,4.7s2.1,4.7,4.7,4.7S19.8,17.6,19.8,15z"/>
	<path class="st0" d="M24.3,7.5c0,0.9-0.8,1.7-1.7,1.7S21,8.4,21,7.5s0.8-1.7,1.7-1.7S24.3,6.6,24.3,7.5z"/>
</g>
</svg>
