<?xml version="1.0" encoding="utf-8"?>
<!-- Generator: Adobe Illustrator 26.0.3, SVG Export Plug-In . SVG Version: 6.00 Build 0)  -->
<svg version="1.1" id="Capa_1" xmlns="http://www.w3.org/2000/svg" xmlns:xlink="http://www.w3.org/1999/xlink" x="0px" y="0px"
	 viewBox="0 0 1174.9 90.2" style="enable-background:new 0 0 1174.9 90.2;" xml:space="preserve">
<style type="text/css">
	.st0{fill:none;stroke:#67A580;stroke-width:2;stroke-miterlimit:10;}
	.st1{fill:none;stroke:#67A580;stroke-width:2;stroke-linecap:round;stroke-miterlimit:10;}
	.st2{fill:#67A580;}
</style>
<g>
	<line class="st0" x1="-0.3" y1="28.4" x2="1142.9" y2="28.4"/>
	<path class="st1" d="M286.4,28.5c10-1.2,19,6,20.2,16c0.9,8-4.8,15.2-12.7,16.2c0,0,0,0-0.1,0c-6.4,0.7-12.2-3.8-12.9-10.2
		c0,0,0,0,0,0c-0.6-5.1,3.1-9.8,8.2-10.4c0,0,0,0,0,0c4.1-0.5,7.8,2.5,8.3,6.6c0,0,0,0,0,0c0.4,3.3-1.9,6.2-5.2,6.6
		c-2.6,0.3-5-1.6-5.3-4.2c-0.2-2.1,1.3-4,3.4-4.2c0,0,0,0,0,0c1.7-0.2,3.2,1,3.4,2.7c0.2,1.3-0.8,2.5-2.1,2.7c0,0,0,0,0,0"/>
	<path class="st1" d="M396.4,28.5c10-1.2,19,6,20.2,16c0.9,8-4.8,15.2-12.7,16.2c0,0,0,0-0.1,0c-6.4,0.7-12.2-3.8-12.9-10.2
		c-0.6-5.1,3.1-9.8,8.2-10.4c4.1-0.5,7.8,2.5,8.3,6.6c0,0,0,0,0,0"/>
	<path class="st1" d="M442.7,28.5c12.3-1.4,23.5,7.4,25,19.7c0,0,0,0,0,0c1.2,9.9-5.9,18.8-15.8,20c0,0,0,0,0,0"/>
	<path class="st1" d="M654.2,28.5c11.5-1.3,22,6.9,23.3,18.4c0,0,0,0,0,0c1.1,9.2-5.5,17.6-14.8,18.6c-7.4,0.9-14.1-4.4-14.9-11.8
		c-0.7-5.9,3.5-11.3,9.4-11.9"/>
	<path class="st1" d="M992.3,50.2"/>
	<path class="st1" d="M987.3,28.5c10-1.2,19,6,20.2,16c0.9,8-4.8,15.2-12.8,16.2c-6.4,0.7-12.2-3.8-12.9-10.2c0,0,0,0,0,0
		c-0.6-5.1,3.1-9.8,8.2-10.4c0,0,0,0,0,0"/>
	<path class="st1" d="M1138.8,28.5c12.1-1.4,23.1,7.3,24.5,19.4"/>
	<path class="st1" d="M306.3,50c-4.8,8.9-1.5,19.9,7.4,24.7c7.1,3.8,15.9,1.2,19.7-5.9c0,0,0,0,0,0"/>
	<path class="st1" d="M464.5,38.7c5.1,8.5,16.1,11.3,24.7,6.3c0,0,0,0,0,0"/>
	<path class="st2" d="M339.5,69.4c-2.7,2.6-6,3-6.8,1.6c-1.3-2.2-0.3-4.5,2.4-7.1c2.7-2.6,6.9-2.7,7.4-2.2S342.3,66.9,339.5,69.4z"
		/>
	<path class="st2" d="M335.3,63.9c0.2,3.7-1.7,6.5-3.4,6.2c-2.5-0.5-3.6-2.7-3.8-6.5c-0.2-3.7,2.6-7,3.3-7
		C332.2,56.5,335.3,60.2,335.3,63.9z"/>
	<path class="st2" d="M307.3,57.4c-2.4-2.8-2.7-6.2-1.1-6.9c2.3-1.1,4.5,0,7,2.8c2.4,2.8,2.3,7.1,1.7,7.6S309.6,60.3,307.3,57.4z"/>
	<path class="st2" d="M307.8,40.3c-3.6-1-5.6-3.7-4.8-5.2c1.3-2.2,3.8-2.5,7.3-1.5s5.8,4.7,5.6,5.4S311.3,41.4,307.8,40.3z"/>
	<path class="st2" d="M340.7,35.6c-2.4-2.8-2.7-6.2-1.2-6.9c2.3-1.1,4.5,0,7,2.8s2.3,7.1,1.8,7.6S343,38.5,340.7,35.6z"/>
	<path class="st2" d="M465.6,66.9c-2.4-2.8-2.7-6.2-1.1-6.9c2.3-1.1,4.5,0,7,2.8c2.4,2.8,2.2,7.1,1.7,7.6
		C472.7,70.7,467.9,69.7,465.6,66.9z"/>
	<path class="st2" d="M491.6,52.6c-3.6-0.9-5.7-3.6-4.9-5c1.2-2.2,3.7-2.6,7.3-1.7c3.6,0.9,5.9,4.5,5.7,5.2
		C499.6,51.8,495.1,53.7,491.6,52.6z"/>
	<path class="st2" d="M495.5,46.2c-2.9,2.3-6.3,2.4-7,0.8c-1-2.3,0.2-4.5,3.1-6.8c2.9-2.3,7.2-1.9,7.6-1.4
		C499.7,39.3,498.5,44,495.5,46.2z"/>
	<path class="st2" d="M482.6,25.9c-2.9,2.3-6.3,2.3-7,0.8c-1-2.3,0.2-4.5,3.1-6.8c2.9-2.3,7.2-1.9,7.6-1.4
		C486.8,19.1,485.6,23.8,482.6,25.9z"/>
	<path class="st2" d="M637.7,27.1c-2.9,2.3-6.3,2.4-7,0.8c-1-2.3,0.2-4.5,3.1-6.8s7.2-1.9,7.6-1.4C641.9,20.3,640.7,25,637.7,27.1z"
		/>
	<path class="st2" d="M635.5,21.4c1.1,3.5,0,6.7-1.7,6.8c-2.5,0.2-4.2-1.7-5.3-5.3c-1.1-3.5,0.7-7.4,1.3-7.6
		C630.5,15.1,634.5,17.9,635.5,21.4z"/>
	<path class="st2" d="M310.7,25.9c-2.9,2.3-6.3,2.3-7,0.8c-1-2.3,0.2-4.5,3.1-6.8s7.2-1.9,7.6-1.4C314.9,19.1,313.7,23.8,310.7,25.9
		z"/>
	<path class="st2" d="M128.3,25.9c-2.9,2.3-6.3,2.3-7,0.8c-1-2.3,0.2-4.5,3.1-6.8s7.2-1.9,7.6-1.4C132.5,19.1,131.3,23.8,128.3,25.9
		z"/>
	<path class="st2" d="M69.6,26.7c-3.2,1.9-6.6,1.4-7-0.2c-0.7-2.4,0.8-4.4,4-6.3c3.2-1.9,7.4-0.9,7.8-0.3
		C74.8,20.6,72.9,25,69.6,26.7z"/>
	<path class="st2" d="M99.8,19.6c-3.7,0-6.4-2.1-6-3.7c0.7-2.4,3-3.4,6.7-3.4c3.7,0,6.8,3,6.8,3.7C107.3,16.9,103.4,19.8,99.8,19.6z
		"/>
	<path class="st2" d="M124.2,23.7c-0.9,3.6-3.4,5.8-4.9,5c-2.2-1.2-2.7-3.6-1.8-7.3c0.8-3.6,4.4-6,5.1-5.9S125.2,20.1,124.2,23.7z"
		/>
	<path class="st2" d="M135.7,35.5c-2.8-2.5-3.4-5.8-2-6.7c2.1-1.4,4.5-0.6,7.3,1.8c2.8,2.5,3.2,6.7,2.7,7.3
		C143.2,38.5,138.3,38.1,135.7,35.5z"/>
	<path class="st2" d="M72.3,50.4c-2.2-3-2.2-6.4-0.6-7c2.3-1,4.5,0.3,6.7,3.3c2.2,3,1.7,7.2,1.2,7.7C79,54.9,74.3,53.5,72.3,50.4z"
		/>
	<path class="st2" d="M53,31c-2.8-2.5-3.4-5.8-2-6.7c2.1-1.4,4.5-0.6,7.3,1.8s3.2,6.7,2.7,7.3C60.5,34,55.6,33.6,53,31z"/>
	<path class="st2" d="M22,35.5c-2.8-2.5-3.4-5.8-2-6.7c2.1-1.4,4.5-0.6,7.3,1.8s3.2,6.7,2.7,7.3C29.5,38.5,24.7,38.1,22,35.5z"/>
	<path class="st2" d="M244.3,34.6c-1.5-3.4-0.7-6.7,0.9-7c2.5-0.4,4.3,1.3,5.9,4.7s0.1,7.4-0.5,7.7C249.9,40.3,245.6,38,244.3,34.6z
		"/>
	<path class="st2" d="M259.7,35c-2.6-2.7-2.9-6-1.4-6.9c2.2-1.2,4.5-0.2,7.1,2.4s2.6,7,2.1,7.5C266.9,38.5,262.1,37.8,259.7,35z"/>
	<path class="st2" d="M253.1,26.1c-2.9,2.3-6.3,2.3-7,0.8c-1-2.3,0.2-4.5,3.1-6.8c2.9-2.3,7.2-1.9,7.6-1.4S256.1,23.9,253.1,26.1z"
		/>
	<path class="st2" d="M423.4,41.3c-2.9,2.3-6.3,2.4-7,0.8c-1-2.3,0.2-4.5,3.1-6.8c2.9-2.3,7.2-1.9,7.6-1.4S426.4,39.1,423.4,41.3z"
		/>
	<path class="st2" d="M401.7,48.7c0-3.7,2.1-6.4,3.7-6c2.5,0.6,3.4,2.9,3.4,6.7c0,3.7-3,6.8-3.7,6.8S401.5,52.4,401.7,48.7z"/>
	<path class="st2" d="M387.4,50.4c3.7,0.2,6.3,2.4,5.7,4c-0.8,2.4-3.2,3.2-6.9,3c-3.7-0.2-6.6-3.4-6.6-4
		C379.7,52.7,383.7,50,387.4,50.4z"/>
	<path class="st2" d="M312.5,81.7c-2-3.1-1.7-6.5-0.1-7c2.4-0.8,4.5,0.6,6.5,3.8s1.2,7.3,0.6,7.7C318.9,86.6,314.3,84.9,312.5,81.7z
		"/>
	<path class="st2" d="M286.5,62.7c2.2-3,5.4-4,6.5-2.7c1.6,1.9,1.1,4.4-1.1,7.4c-2.2,3-6.4,3.8-7,3.4S284.2,65.6,286.5,62.7z"/>
	<path class="st2" d="M463.9,47.7c3,2.2,4,5.4,2.7,6.5c-1.9,1.6-4.4,1.1-7.4-1.1c-3-2.2-3.8-6.4-3.5-7
		C456.1,45.5,461,45.4,463.9,47.7z"/>
	<path class="st2" d="M447.7,63.3c3.6,1,5.7,3.6,4.8,5.1c-1.2,2.2-3.7,2.6-7.3,1.6c-3.6-0.9-5.8-4.6-5.7-5.3
		C439.7,64,444.2,62.1,447.7,63.3z"/>
	<path class="st2" d="M766.3,23.3c-3.2-1.8-4.6-4.8-3.5-6.1c1.7-1.9,4.2-1.6,7.5,0.2s4.6,5.9,4.2,6.5
		C774.3,24.4,769.5,25.2,766.3,23.3z"/>
	<path class="st2" d="M750.7,27.7c-3-2.2-4-5.4-2.6-6.5c2-1.6,4.4-1,7.4,1.2s3.8,6.5,3.4,7C758.4,29.9,753.5,30,750.7,27.7z"/>
	<path class="st2" d="M781.2,47.2c-2.9,2.3-6.3,2.4-7,0.8c-1-2.3,0.2-4.5,3.1-6.8c2.9-2.3,7.2-1.9,7.6-1.4
		C785.4,40.4,784.2,45.1,781.2,47.2z"/>
	<path class="st2" d="M843,20.3c-2.9,2.3-6.3,2.4-7,0.8c-1-2.3,0.2-4.5,3.1-6.8s7.2-1.9,7.6-1.4S846,18.1,843,20.3z"/>
	<path class="st2" d="M846.7,44.7c-2.7-2.6-3.2-5.9-1.8-6.8c2.2-1.3,4.5-0.5,7.2,2.1c2.7,2.6,2.9,6.8,2.4,7.4
		C854,47.9,849.3,47.4,846.7,44.7z"/>
	<path class="st2" d="M841.1,43.9c0-3.7,2.1-6.4,3.7-6c2.4,0.6,3.4,2.9,3.4,6.7s-3,6.8-3.7,6.8C843.8,51.4,840.9,47.5,841.1,43.9z"
		/>
	<path class="st2" d="M677.9,49.6c-2.1-3.1-1.8-6.5-0.2-7c2.4-0.8,4.5,0.5,6.6,3.6s1.3,7.3,0.8,7.7S679.8,52.8,677.9,49.6z"/>
	<path class="st2" d="M712.1,35.7c-2.1-3.1-1.8-6.5-0.2-7c2.4-0.8,4.5,0.5,6.5,3.6s1.3,7.3,0.8,7.7C718.6,40.5,714,38.8,712.1,35.7z
		"/>
	<path class="st2" d="M658.3,58.9c-2.6,2.7-5.9,3.2-6.8,1.8c-1.4-2.2-0.5-4.5,2.1-7.2c2.6-2.7,6.8-2.9,7.3-2.5
		C661.5,51.5,661,56.4,658.3,58.9z"/>
	<path class="st2" d="M753.2,34.4c2.8,2.5,3.4,5.8,2,6.7c-2.1,1.4-4.5,0.6-7.3-1.9c-2.8-2.5-3.1-6.7-2.7-7.3
		C745.7,31.5,750.6,31.8,753.2,34.4z"/>
	<path class="st2" d="M645.7,51c2.8,2.5,3.4,5.8,2,6.7c-2.1,1.4-4.5,0.6-7.3-1.9s-3.1-6.8-2.7-7.3S643.1,48.4,645.7,51z"/>
	<path class="st2" d="M656.7,42.3c-2.6,2.7-5.9,3.2-6.8,1.8c-1.3-2.2-0.5-4.5,2.1-7.2s6.8-2.9,7.4-2.5
		C659.9,34.9,659.4,39.8,656.7,42.3z"/>
	<path class="st2" d="M656.8,46.7c-3.6,1-6.7-0.3-6.7-2c0-2.5,1.9-4.1,5.5-5c3.6-1,7.4,1.1,7.6,1.8C663.4,42.1,660.4,46,656.8,46.7z
		"/>
	<path class="st1" d="M886.5,28.4c12.4,0,25,7.8,26.4,20.2c1.2,9.9-5.9,18.8-15.8,20c0,0,0,0,0,0"/>
	<path class="st1" d="M909.8,39c5.1,8.5,16.1,11.3,24.7,6.3c0,0,0,0,0,0"/>
	<path class="st2" d="M910.8,67.2c-2.4-2.8-2.7-6.2-1.1-6.9c2.3-1.1,4.5,0,7,2.8c2.4,2.8,2.2,7.1,1.7,7.6S913.1,70.1,910.8,67.2z"/>
	<path class="st2" d="M998,61.5c1.5-3.4,4.4-5.1,5.8-4c2,1.6,2,4,0.5,7.5c-1.5,3.4-5.4,5.1-6.1,4.8C997.6,69.6,996.4,64.9,998,61.5z
		"/>
	<path class="st2" d="M1025.1,76.2c-2.4-2.8-2.7-6.2-1.2-6.9c2.3-1.1,4.5,0,7,2.8c2.4,2.8,2.3,7.1,1.8,7.6
		C1032.2,80.1,1027.4,79.1,1025.1,76.2z"/>
	<path class="st2" d="M972.6,35.8c-2.4-2.8-2.7-6.2-1.1-6.9c2.3-1.1,4.5,0,7,2.8c2.4,2.8,2.2,7.1,1.7,7.6
		C979.7,39.6,974.9,38.6,972.6,35.8z"/>
	<path class="st2" d="M1011.4,66.3c0.2-3.7,2.4-6.3,4-5.8c2.4,0.8,3.2,3.1,3.1,6.8c-0.2,3.7-3.3,6.7-4,6.6
		C1013.7,74,1011,70,1011.4,66.3z"/>
	<path class="st2" d="M936.8,52.9c-3.6-0.9-5.7-3.6-4.8-5c1.2-2.2,3.7-2.6,7.3-1.7c3.6,0.9,5.9,4.5,5.7,5.2
		C944.8,52.1,940.4,54,936.8,52.9z"/>
	<path class="st2" d="M810.4,43c-3.6,0.8-6.7-0.6-6.6-2.3c0.1-2.5,2.1-4,5.8-4.8s7.3,1.4,7.5,2.1C817.2,38.7,814.1,42.4,810.4,43z"
		/>
	<path class="st2" d="M786.3,59.2c-1.9-3.2-1.5-6.6,0.2-7c2.4-0.7,4.5,0.8,6.3,4c1.9,3.2,0.9,7.4,0.3,7.8S788.1,62.5,786.3,59.2z"/>
	<path class="st2" d="M737.2,20.3c-3.6,0.8-6.7-0.6-6.6-2.3c0.1-2.5,2.1-4,5.8-4.8s7.3,1.4,7.5,2.1C744,15.9,740.9,19.6,737.2,20.3z
		"/>
	<path class="st2" d="M731.1,15.6c-1.1,3.6-3.8,5.6-5.2,4.7c-2.2-1.3-2.5-3.8-1.4-7.4c1.1-3.6,4.8-5.7,5.4-5.6
		S732.3,12.1,731.1,15.6z"/>
	<path class="st2" d="M940.7,46.5c-2.9,2.3-6.3,2.3-7,0.8c-1-2.3,0.2-4.5,3.1-6.8s7.2-1.9,7.6-1.4C944.9,39.6,943.7,44.3,940.7,46.5
		z"/>
	<path class="st2" d="M818.2,19.7c-1.5,3.4-4.4,5.1-5.8,4c-2-1.6-2-4-0.5-7.5s5.4-5.1,6.1-4.8C818.7,11.7,819.9,16.4,818.2,19.7z"/>
	<path class="st2" d="M738.4,41.4c2.8-2.5,6.2-2.7,6.9-1.2c1.1,2.3,0.1,4.5-2.7,7s-7.1,2.3-7.5,1.8
		C734.5,48.5,735.4,43.7,738.4,41.4z"/>
	<path class="st1" d="M1007.1,41.6c3.3,9.4,18.1,16.3,27.5,13"/>
	<path class="st2" d="M1034.3,60.7c-3.4-1.6-4.9-4.6-3.8-5.9c1.6-1.9,4.1-1.8,7.5-0.2c3.4,1.6,4.8,5.6,4.6,6.2
		C1042.3,61.5,1037.6,62.5,1034.3,60.7z"/>
	<path class="st2" d="M1036.5,54.9c-3.3,1.7-6.6,1.1-7-0.6c-0.5-2.5,1.1-4.4,4.4-6.1c3.3-1.7,7.4-0.4,7.8,0.2
		C1042,49,1039.9,53.4,1036.5,54.9z"/>
	<path class="st2" d="M1019.5,49.1c-3.3,1.7-6.6,1.1-7-0.6c-0.5-2.5,1.1-4.4,4.4-6.1c3.3-1.7,7.4-0.4,7.8,0.2
		C1024.9,43.2,1022.8,47.6,1019.5,49.1z"/>
	<path class="st2" d="M1028.1,27.9c-3.3,1.7-6.6,1.1-7-0.6c-0.5-2.5,1.1-4.4,4.4-6.1c3.3-1.7,7.4-0.4,7.8,0.2
		S1031.5,26.4,1028.1,27.9z"/>
	<path class="st2" d="M1024.3,23.8c-0.6,3.7-3.1,6-4.6,5.3c-2.3-1-2.9-3.5-2.3-7.1s4-6.2,4.7-6.1
		C1022.9,15.9,1025.1,20.2,1024.3,23.8z"/>
	<path class="st2" d="M909.1,48c3,2.2,4,5.4,2.7,6.5c-1.9,1.6-4.4,1.1-7.4-1.1c-3-2.2-3.8-6.4-3.5-6.9
		C901.3,45.9,906.2,45.7,909.1,48z"/>
	<path class="st1" d="M1101.2,50"/>
	<path class="st1" d="M1096.2,28.3c10-1.2,19,6,20.2,16c0.9,8-4.8,15.2-12.7,16.2c0,0,0,0-0.1,0c-6.4,0.7-12.2-3.8-12.9-10.2
		c-0.6-5.1,3.1-9.7,8.2-10.3"/>
	<path class="st2" d="M1117.2,54.7c-2.1-3.1-1.8-6.5-0.2-7c2.4-0.8,4.5,0.5,6.6,3.6s1.3,7.3,0.8,7.7
		C1123.7,59.5,1119.1,57.9,1117.2,54.7z"/>
	<path class="st2" d="M1096.6,54.7c-3.6,0.8-6.7-0.6-6.6-2.3c0.1-2.5,2.1-4,5.8-4.8s7.3,1.4,7.5,2.1
		C1103.4,50.4,1100.3,54.1,1096.6,54.7z"/>
	<path class="st2" d="M1100.7,41.5c-2.9,2.3-6.3,2.4-7,0.8c-1-2.3,0.2-4.5,3.1-6.8c2.9-2.3,7.2-1.9,7.6-1.4
		C1105,34.7,1103.7,39.4,1100.7,41.5z"/>
	<path class="st2" d="M1090.5,44.5c2,3.1,1.8,6.5,0.2,7c-2.4,0.8-4.5-0.6-6.5-3.7c-2-3.1-1.3-7.3-0.7-7.7S1088.6,41.4,1090.5,44.5z"
		/>
	<path class="st2" d="M1091.8,59.3c3.5-1.4,6.7-0.5,6.9,1.2c0.3,2.5-1.4,4.3-4.8,5.7c-3.4,1.4-7.4-0.2-7.7-0.8
		C1085.9,64.6,1088.4,60.5,1091.8,59.3z"/>
	<path class="st2" d="M892.9,63.5c3.6,1,5.7,3.6,4.8,5.1c-1.2,2.2-3.7,2.6-7.3,1.6c-3.6-1-5.8-4.6-5.7-5.3
		C885,64.3,889.4,62.5,892.9,63.5z"/>
	<path class="st2" d="M998.3,50.7c3.6,1,5.7,3.6,4.8,5.1c-1.2,2.2-3.7,2.6-7.3,1.6s-5.8-4.6-5.7-5.3
		C990.4,51.4,994.7,49.6,998.3,50.7z"/>
	<path class="st2" d="M979.5,48.8c3.3,1.8,4.6,4.8,3.5,6.1c-1.7,1.9-4.2,1.6-7.5-0.2c-3.3-1.8-4.6-5.9-4.3-6.5
		C971.5,47.7,976.3,46.9,979.5,48.8z"/>
	<path class="st2" d="M993,45.5c-3.4-1.5-5-4.5-4-5.8c1.6-2,4-2,7.5-0.5c3.4,1.5,5.1,5.5,4.8,6.1C1001.1,46,996.4,47.2,993,45.5z"/>
	<path class="st1" d="M1016.8,52.2c-2.8,7.6,1,16.1,8.6,18.9"/>
	<path class="st2" d="M1068.2,28.2c-3.3,1.7-6.6,1.1-7-0.6c-0.5-2.5,1.1-4.4,4.4-6.1c3.3-1.7,7.4-0.4,7.8,0.2
		C1073.6,22.3,1071.6,26.7,1068.2,28.2z"/>
	<path class="st1" d="M888.7,28.5c5.6,0,14.5-4.3,15.2-9.8"/>
	<path class="st1" d="M903.1,21.2c2.3-3.8,6.7-3.4,10.5-1.1"/>
	<path class="st2" d="M925,23.1c-0.2,0.6-4,2.6-7.6,1.6c-3.6-1-5.5-2.6-5.4-5.1c0-1.7,3.2-2.9,6.8-1.9
		C922.3,18.5,925.2,22.4,925,23.1z"/>
	<path class="st2" d="M899.6,6.9c0.7-0.2,4.5,1.8,5.7,5.3c1.2,3.5,1,6-1.1,7.4c-1.4,0.9-4.2-0.9-5.4-4.5
		C897.4,11.7,899,7.1,899.6,6.9z"/>
	<path class="st2" d="M921,10.2c0.5,0.5,0.2,4.8-2.4,7.4s-5.1,3.4-7.2,2.1c-1.4-0.9-0.9-4.2,1.8-6.8C915.7,10.2,920.5,9.7,921,10.2z
		"/>
	<path class="st1" d="M537.9,28.5c10-1.2,19,6,20.2,16c0.9,8-4.8,15.2-12.7,16.2c0,0,0,0-0.1,0"/>
	<path class="st2" d="M564.6,41.4c-2.9,2.3-6.3,2.4-7,0.8c-1-2.3,0.2-4.5,3.1-6.8c2.9-2.3,7.2-1.9,7.6-1.4
		C568.8,34.6,567.6,39.3,564.6,41.4z"/>
	<path class="st2" d="M573.7,30.5c-3.7-0.7-5.9-3.2-5.1-4.8c1.1-2.3,3.6-2.8,7.2-2c3.7,0.7,6.1,4.3,6,4.9
		C581.6,29.3,577.2,31.4,573.7,30.5z"/>
	<path class="st2" d="M566.1,11.8c-3.7-0.6-6-3.1-5.3-4.7c1-2.3,3.5-2.9,7.1-2.2s6.2,4.1,6.1,4.8S569.7,12.6,566.1,11.8z"/>
	<path class="st2" d="M541.1,11.5c-0.3,3.7-2.6,6.2-4.2,5.7c-2.4-0.8-3.2-3.2-2.9-6.9c0.3-3.7,3.5-6.6,4.2-6.5
		C539,3.8,541.6,7.8,541.1,11.5z"/>
	<path class="st2" d="M540.3,61.3c2.5-2.7,5.9-3.3,6.8-1.9c1.4,2.1,0.5,4.5-2,7.2c-2.5,2.7-6.8,3-7.3,2.5
		C537.2,68.7,537.7,63.9,540.3,61.3z"/>
	<path class="st2" d="M537,33.2c3.4,1.6,4.9,4.6,3.8,5.9c-1.6,1.9-4.1,1.8-7.5,0.2c-3.4-1.6-4.8-5.7-4.6-6.2
		C529,32.5,533.8,31.5,537,33.2z"/>
	<path class="st2" d="M600.2,42.4c-3.7-0.6-6-3.1-5.3-4.6c1-2.3,3.5-2.9,7.1-2.3s6.2,4,6.1,4.7C608.1,40.9,603.9,43.2,600.2,42.4z"
		/>
	<path class="st2" d="M595.2,32.1c-0.1,3.7-2.2,6.4-3.8,5.9c-2.4-0.7-3.4-3-3.3-6.7s3.1-6.8,3.8-6.8
		C592.6,24.5,595.5,28.4,595.2,32.1z"/>
	<path class="st2" d="M544.1,25.5c-3.3,1.8-6.6,1.2-7-0.4c-0.6-2.5,1-4.4,4.2-6.2c3.3-1.8,7.4-0.6,7.8,0
		C549.4,19.5,547.4,23.9,544.1,25.5z"/>
	<path class="st2" d="M552.7,39.5c1.2,3.5,0.1,6.7-1.6,6.8c-2.5,0.2-4.2-1.7-5.4-5.2c-1.2-3.5,0.6-7.4,1.3-7.7
		C547.6,33.2,551.6,35.9,552.7,39.5z"/>
	<path class="st2" d="M550.1,47.3c3.4-1.4,6.7-0.6,6.9,1.1c0.4,2.5-1.4,4.3-4.8,5.7s-7.4-0.1-7.7-0.7S546.7,48.5,550.1,47.3z"/>
	<path class="st2" d="M558.5,52.7c-1.9-3.2-1.4-6.6,0.2-7c2.4-0.7,4.4,0.8,6.3,4s0.8,7.4,0.2,7.8S560.2,55.9,558.5,52.7z"/>
	<path class="st2" d="M542.9,54.2c3.1,2.1,4.2,5.2,3,6.4c-1.9,1.7-4.3,1.3-7.5-0.8c-3.1-2.1-4-6.2-3.7-6.8
		C535,52.3,539.9,52,542.9,54.2z"/>
	<path class="st2" d="M608.7,20.8c-2.6,2.7-5.9,3.2-6.8,1.8c-1.3-2.2-0.5-4.5,2.1-7.2c2.6-2.7,6.8-2.9,7.4-2.4
		C611.9,13.4,611.4,18.2,608.7,20.8z"/>
	<path class="st2" d="M585.4,10.6c3.7-0.7,6.7,0.8,6.6,2.5c-0.2,2.5-2.2,3.9-5.9,4.6c-3.7,0.7-7.3-1.6-7.4-2.3
		C578.5,14.7,581.8,11.2,585.4,10.6z"/>
	<path class="st1" d="M557,48.5c-12.6-1.6-21.6-13-20-25.6c1.2-10.1,10.4-17.2,20.5-16c8.1,1,12.8,8.3,12.8,16.4"/>
	<path class="st1" d="M570.3,23.3c0,9.5,9.9,16.4,19.5,15.2c7.6-1,13.1-7.9,12.1-15.6c-0.8-6.1-6.3-10.5-12.5-9.7"/>
	<path class="st0" d="M724.7,28.9c1.7-12.2,13-20.8,25.2-19.1c0,0,0,0,0,0c9.8,1.4,16.6,10.4,15.2,20.2c0,0,0,0,0,0
		c-1.1,7.8-8.3,13.3-16.1,12.2c0,0,0,0,0,0c-6.3-0.9-10.6-6.7-9.8-12.9c0,0,0,0,0,0c0.7-5,5.3-8.5,10.3-7.8c0,0,0,0,0,0"/>
	<path class="st0" d="M765.4,26.9c-1.9,12.2,6.4,23.6,18.6,25.5c9.8,1.6,18.9-5.1,20.5-14.8c0,0,0,0,0,0"/>
	<path class="st0" d="M804.3,38.4c1.7-12.2,13-20.8,25.2-19.1c9.8,1.4,16.6,10.4,15.2,20.2c0,0,0,0,0,0"/>
	<path class="st1" d="M356.7,28.2c5.6,0.6,10.6-3.3,11.2-8.9c0.5-4.4-2.6-8.5-7.1-9c0,0,0,0,0,0"/>
	<path class="st1" d="M366.5,23.7c2.3-3.8,7.2-5.1,11.1-2.8c0,0,0,0,0,0"/>
	<path class="st2" d="M357.5,23.1c-0.7-0.2-2.6-4-1.6-7.6s2.6-5.5,5.1-5.5c1.7,0,2.9,3.2,1.9,6.8C362.1,20.4,358.2,23.3,357.5,23.1z
		"/>
	<path class="st2" d="M379.9,11.2c0.1,0.7-2.1,4.3-5.7,5.2c-3.6,0.9-6.1,0.5-7.3-1.7c-0.8-1.5,1.3-4.1,4.9-5
		C375.2,8.7,379.7,10.6,379.9,11.2z"/>
	<path class="st2" d="M384.3,32.4c-0.6,0.3-4.7-1.1-6.4-4.4c-1.7-3.3-1.9-5.8,0-7.5c1.3-1.1,4.3,0.3,6,3.6
		C385.6,27.5,384.9,32.2,384.3,32.4z"/>
	<path class="st2" d="M348.4,13.2c-0.2-0.7,2.1-4.3,5.7-5.3c3.6-1,6.1-0.6,7.3,1.6c0.8,1.5-1.2,4.1-4.8,5.1
		C353.1,15.7,348.6,13.9,348.4,13.2z"/>
	<path class="st1" d="M1122.6,28.1c5.6,0,14.5-4.3,15.2-9.8"/>
	<path class="st1" d="M1137,20.9c2.3-3.8,6.7-3.4,10.5-1.1"/>
	<path class="st2" d="M1158.9,22.7c-0.2,0.7-4,2.6-7.6,1.6c-3.5-1-5.5-2.6-5.4-5.1c0-1.7,3.2-2.9,6.8-1.9
		C1156.3,18.1,1159.1,22,1158.9,22.7z"/>
	<path class="st2" d="M1171.6,39.6c-0.2,0.6-4,2.6-7.6,1.6s-5.5-2.6-5.4-5.1c0-1.7,3.2-2.9,6.8-1.9
		C1168.9,35,1171.8,38.9,1171.6,39.6z"/>
	<path class="st2" d="M1128.5,41.2c-0.7-0.1-3.1-3.7-2.4-7.3c0.6-3.7,1.9-5.8,4.5-6c1.7-0.1,3.2,2.8,2.7,6.5
		C1132.7,38,1129.1,41.4,1128.5,41.2z"/>
	<path class="st2" d="M1141.7,38.9c-0.5,0.5-4.8,0.5-7.5-2s-3.7-4.8-2.5-7.1c0.8-1.5,4.2-1.1,6.9,1.4
		C1141.4,33.6,1142.2,38.4,1141.7,38.9z"/>
	<path class="st2" d="M1151.6,56.2c-0.3-0.6,0.8-4.7,4-6.7c3.2-1.9,5.7-2.3,7.5-0.5c1.2,1.2,0,4.3-3.2,6.2
		C1156.8,57.3,1151.9,56.7,1151.6,56.2z"/>
	<path class="st2" d="M1166.9,60c-0.7,0.1-4.3-2.2-5.2-5.8c-0.9-3.6-0.5-6.1,1.7-7.3c1.5-0.8,4.1,1.3,5,4.9
		C1169.5,55.4,1167.6,59.8,1166.9,60z"/>
	<path class="st2" d="M1154.1,44c-0.7,0.1-4.3-2.1-5.2-5.8c-0.9-3.6-0.5-6.1,1.7-7.3c1.5-0.8,4.1,1.3,5,4.9
		C1156.7,39.4,1154.8,43.9,1154.1,44z"/>
	<path class="st2" d="M1133.6,6.5c0.7-0.2,4.4,1.8,5.7,5.3c1.2,3.5,1,6-1.1,7.4c-1.4,0.9-4.2-0.9-5.4-4.5
		C1131.3,11.3,1132.9,6.7,1133.6,6.5z"/>
	<path class="st2" d="M1154.9,9.8c0.5,0.5,0.2,4.8-2.5,7.4c-2.7,2.6-5,3.4-7.2,2.1c-1.4-0.9-0.9-4.2,1.8-6.8
		C1149.6,9.8,1154.4,9.3,1154.9,9.8z"/>
	<path class="st1" d="M416.7,51.9c4.1-0.5,7.8,2.5,8.3,6.6c0.4,3.3-2,6.2-5.2,6.6c-2.6,0.3-5-1.6-5.3-4.2c0,0,0,0,0,0
		c-0.3-2.1,1.2-4,3.3-4.2c0,0,0,0,0,0c1.7-0.2,3.2,1,3.4,2.7c0.2,1.3-0.8,2.5-2.1,2.7c0,0,0,0,0,0"/>
	<path class="st1" d="M537,24.3c0.9-4-1.6-8-5.6-9c0,0,0,0,0,0c-3.2-0.7-6.4,1.2-7.2,4.5c-0.6,2.6,1,5.1,3.6,5.7
		c2.1,0.5,4.1-0.8,4.6-2.9c0,0,0,0,0,0c0.4-1.6-0.6-3.3-2.3-3.7c0,0,0,0,0,0c-1.3-0.3-2.6,0.5-2.9,1.8c0,0,0,0,0,0"/>
	<path class="st1" d="M914.1,43.7c2.3,3.4,6.9,4.4,10.4,2.1c0,0,0,0,0,0c2.7-1.8,3.5-5.5,1.7-8.3c-1.5-2.2-4.4-2.8-6.6-1.3
		c-1.7,1.2-2.2,3.5-1.1,5.3c0.9,1.4,2.8,1.8,4.2,0.9c1.1-0.7,1.4-2.2,0.7-3.4c0,0,0,0,0,0"/>
	<path class="st1" d="M823.8,19.4c4.1-0.5,7.8,2.4,8.3,6.5c0,0,0,0,0,0c0.4,3.3-1.9,6.2-5.2,6.6c0,0,0,0,0,0c-2.6,0.3-5-1.6-5.3-4.2
		c-0.2-2.1,1.3-4,3.4-4.2c0,0,0,0,0,0c1.7-0.2,3.2,1,3.4,2.7c0.2,1.3-0.8,2.5-2.1,2.7c0,0,0,0,0,0"/>
	<path class="st1" d="M1116.5,46.4c-0.3-4.1-3.8-7.2-8-6.9c-3.3,0.2-5.8,3.1-5.5,6.4c0,0,0,0,0,0c0.2,2.6,2.5,4.6,5.1,4.4
		c2.1-0.1,3.7-1.9,3.6-4c-0.1-1.7-1.6-2.9-3.2-2.8c-1.3,0.1-2.4,1.2-2.3,2.6c0,0,0,0,0,0"/>
	<path class="st1" d="M1131.9,25c-3.6,2.1-8.1,0.9-10.2-2.7c-1.7-2.9-0.7-6.5,2.2-8.2c2.3-1.3,5.2-0.6,6.5,1.7
		c1.1,1.8,0.4,4.2-1.4,5.2c0,0,0,0,0,0c-1.5,0.8-3.3,0.4-4.2-1.1c-0.7-1.2-0.3-2.6,0.8-3.3c0,0,0,0,0,0"/>
	<path class="st1" d="M140.4,28.4c12.3-1.4,23.5,7.4,25,19.7c0,0,0,0,0,0c1.2,9.9-5.9,18.8-15.8,20c0,0,0,0,0,0"/>
	<path class="st1" d="M162.2,38.6c5.1,8.5,16.1,11.3,24.7,6.3c0,0,0,0,0,0"/>
	<path class="st2" d="M163.3,66.8c-2.4-2.8-2.7-6.2-1.1-6.9c2.3-1.1,4.5,0,7,2.8c2.4,2.8,2.2,7.1,1.7,7.6
		C170.4,70.6,165.6,69.6,163.3,66.8z"/>
	<path class="st2" d="M189.3,52.5c-3.6-0.9-5.7-3.6-4.9-5c1.2-2.2,3.7-2.6,7.3-1.7c3.6,0.9,5.9,4.5,5.7,5.2
		C197.3,51.6,192.8,53.6,189.3,52.5z"/>
	<path class="st2" d="M193.2,46c-2.9,2.3-6.3,2.4-7,0.8c-1-2.3,0.2-4.5,3.1-6.8c2.9-2.3,7.2-1.9,7.6-1.4
		C197.4,39.2,196.2,43.9,193.2,46z"/>
	<path class="st2" d="M161.6,47.6c3,2.2,4,5.4,2.7,6.5c-1.9,1.6-4.4,1.1-7.4-1.1c-3-2.2-3.8-6.4-3.5-7
		C153.8,45.4,158.7,45.3,161.6,47.6z"/>
	<path class="st2" d="M145.4,63.2c3.6,1,5.7,3.6,4.8,5.1c-1.2,2.2-3.7,2.6-7.3,1.6c-3.6-0.9-5.8-4.6-5.7-5.3
		C137.4,63.9,141.9,62,145.4,63.2z"/>
	<path class="st1" d="M150.5,28.2c5.6,0,14.5-4.3,15.2-9.8"/>
	<path class="st1" d="M164.9,20.9c2.3-3.8,6.7-3.4,10.5-1.1"/>
	<path class="st2" d="M186.8,22.7c-0.2,0.6-4,2.6-7.6,1.6c-3.6-1-5.5-2.6-5.4-5.1c0-1.7,3.2-2.9,6.8-1.9
		C184.1,18.2,187,22.1,186.8,22.7z"/>
	<path class="st2" d="M161.5,6.5c0.7-0.2,4.5,1.8,5.7,5.3s1,6-1.1,7.4c-1.4,0.9-4.2-0.9-5.4-4.5C159.3,11.3,160.8,6.7,161.5,6.5z"/>
	<path class="st2" d="M182.8,9.9c0.5,0.5,0.2,4.8-2.4,7.4s-5.1,3.4-7.2,2.1c-1.4-0.9-0.9-4.2,1.8-6.8C177.5,9.8,182.3,9.3,182.8,9.9
		z"/>
	<path class="st1" d="M172.7,46.2c5.3-1.7,12.6-8.4,11.6-13.9"/>
	<path class="st2" d="M176.3,30.7c0.7-0.1,4,2.6,4.6,6.2c0.6,3.7-0.1,6.1-2.4,7.1c-1.6,0.7-4-1.7-4.5-5.4
		C173.2,35,175.6,30.8,176.3,30.7z"/>
	<path class="st2" d="M189.3,25.5c0.6,0.4,1.6,4.5-0.1,7.7s-3.8,4.8-6.3,4.1c-1.6-0.4-2.1-3.8-0.3-7
		C184.2,27.1,188.7,25.2,189.3,25.5z"/>
	<path class="st1" d="M166,21.8c4.1-0.5,7.8,2.5,8.3,6.6c0.4,3.3-2,6.2-5.2,6.6c-2.6,0.3-5-1.6-5.3-4.2c0,0,0,0,0,0
		c-0.3-2.1,1.2-4,3.3-4.2c0,0,0,0,0,0c1.7-0.2,3.2,1,3.4,2.7c0.2,1.3-0.8,2.5-2.1,2.7c0,0,0,0,0,0"/>
	<path class="st1" d="M214.1,28.3c3,4.7,11.4,10,16.5,7.5"/>
	<path class="st1" d="M227.9,36.5c4.5-0.1,6.5,3.8,6.6,8.3"/>
	<path class="st2" d="M238.2,56c-0.7,0.2-4.4-2-5.4-5.5s-0.8-6.1,1.4-7.4c1.5-0.9,4.2,1.1,5.2,4.7C240.6,51.3,238.9,55.8,238.2,56z"
		/>
	<path class="st2" d="M238.2,25.9c0.5,0.4,0.9,4.7-1.4,7.6c-2.3,2.9-4.5,4.1-6.8,3.1c-1.5-0.7-1.5-4.1,0.9-7
		C233,26.6,237.7,25.4,238.2,25.9z"/>
	<path class="st2" d="M246.9,45.6c-0.2,0.7-3.9,2.8-7.5,1.9s-5.6-2.4-5.6-5c0-1.7,3.1-3,6.7-2.1C244,41.2,247.1,45,246.9,45.6z"/>
	<path class="st1" d="M39.5,28.1c9.2-7.1,22.4-5.3,29.5,3.9c0,0,0,0,0,0c5.6,7.4,4.2,17.9-3.1,23.6C59.9,60.1,51.5,59,47,53.1
		c-3.6-4.7-2.7-11.5,2-15.1"/>
	<path class="st2" d="M70.6,33.2c-3.4-1.6-4.9-4.6-3.8-5.9c1.7-1.9,4.1-1.8,7.5-0.2c3.4,1.6,4.9,5.6,4.6,6.2S73.9,34.9,70.6,33.2z"
		/>
	<path class="st2" d="M58.6,52.1c-0.8,3.6-3.4,5.8-4.9,5c-2.3-1.2-2.7-3.6-1.9-7.3c0.8-3.6,4.4-6,5-5.9S59.5,48.6,58.6,52.1z"/>
	<path class="st2" d="M43.6,51.8c3.7,0.7,5.9,3.2,5.2,4.8c-1.1,2.3-3.5,2.8-7.2,2.1c-3.7-0.7-6.1-4.2-6-4.9
		C35.7,53.1,40.1,50.9,43.6,51.8z"/>
	<path class="st2" d="M48.7,38.7c-0.8,3.6-3.4,5.8-4.9,5c-2.3-1.2-2.7-3.6-1.9-7.3c0.8-3.6,4.4-6,5.1-5.9
		C47.6,30.7,49.6,35.1,48.7,38.7z"/>
	<path class="st2" d="M51,42.5c-2.6,2.7-5.9,3.2-6.8,1.7c-1.3-2.2-0.4-4.5,2.2-7.2c2.6-2.7,6.9-2.8,7.4-2.4
		C54.3,35.1,53.7,39.9,51,42.5z"/>
	<path class="st1" d="M70,32.9c3,4.7,11.4,10,16.5,7.5"/>
	<path class="st1" d="M83.8,41.1c4.5-0.1,6.5,3.8,6.6,8.3"/>
	<path class="st2" d="M94.1,60.6c-0.7,0.2-4.4-2-5.4-5.5c-1.1-3.6-0.8-6.1,1.4-7.4c1.5-0.9,4.2,1.1,5.2,4.7
		C96.5,55.9,94.8,60.4,94.1,60.6z"/>
	<path class="st2" d="M94.1,30.5c0.5,0.4,0.9,4.7-1.4,7.6c-2.3,2.9-4.5,4.1-6.8,3.1c-1.5-0.7-1.5-4.1,0.9-7
		C88.9,31.2,93.6,30,94.1,30.5z"/>
	<path class="st2" d="M102.8,50.2c-0.2,0.7-3.9,2.8-7.5,1.9c-3.6-0.9-5.6-2.4-5.6-5c0-1.7,3.1-3,6.7-2.1
		C99.9,45.8,103,49.6,102.8,50.2z"/>
	<path class="st1" d="M72.7,23.3c5.6,0.6,10.6-3.3,11.2-8.9c0.5-4.4-2.6-8.5-7.1-9c0,0,0,0,0,0"/>
	<path class="st1" d="M82.5,18.7c2.3-3.8,7.2-5.1,11.1-2.8c0,0,0,0,0,0"/>
	<path class="st2" d="M72.4,6.4c0.3-0.6,4.4-1.9,7.7-0.3s5,3.5,4.5,6c-0.3,1.7-3.6,2.3-7,0.7C74.2,11.3,72,7,72.4,6.4z"/>
	<path class="st2" d="M74.4,3c0.5-0.4,4.8-0.1,7.3,2.6c2.5,2.8,3.3,5.1,1.9,7.2c-0.9,1.4-4.2,0.8-6.7-2C74.3,8.3,73.9,3.4,74.4,3z"
		/>
	<path class="st2" d="M100.2,27.5c-0.6,0.3-4.7-1.1-6.4-4.4s-1.9-5.8,0-7.5c1.3-1.1,4.3,0.3,6,3.6S100.8,27.2,100.2,27.5z"/>
	<path class="st2" d="M77.9,0.4c0.6-0.3,4.7,1.1,6.3,4.4c1.7,3.3,1.9,5.8-0.1,7.5c-1.3,1.1-4.3-0.4-6-3.7
		C76.4,5.5,77.3,0.7,77.9,0.4z"/>
</g>
</svg>
