<?xml version="1.0" encoding="utf-8"?>
<!-- Generator: Adobe Illustrator 26.0.3, SVG Export Plug-In . SVG Version: 6.00 Build 0)  -->
<svg version="1.1" id="Capa_2_00000141456767148732711440000008738997103294683793_"
	 xmlns="http://www.w3.org/2000/svg" xmlns:xlink="http://www.w3.org/1999/xlink" x="0px" y="0px" viewBox="0 0 678.5 90.2"
	 style="enable-background:new 0 0 678.5 90.2;" xml:space="preserve">
<style type="text/css">
	.st0{fill:none;stroke:#67A580;stroke-width:2;stroke-miterlimit:10;}
	.st1{fill:none;stroke:#67A580;stroke-width:2;stroke-linecap:round;stroke-miterlimit:10;}
	.st2{fill:#67A580;}
</style>
<g>
	<line class="st0" x1="32.1" y1="28.2" x2="677.7" y2="28.2"/>
	<path class="st1" d="M517.2,41.6c5.9,0.7,10.1,6,9.4,11.9c-0.9,7.4-7.5,12.7-14.9,11.8c-9.2-1-15.8-9.4-14.7-18.6
		c1.4-11.5,11.8-19.7,23.3-18.4"/>
	<path class="st1" d="M182.6,50"/>
	<path class="st1" d="M184.9,40c5.1,0.6,8.8,5.2,8.2,10.3c-0.7,6.4-6.5,10.9-12.9,10.2c-8-1-13.7-8.2-12.8-16.2
		c1.2-10,10.2-17.2,20.2-16"/>
	<path class="st1" d="M11.7,47.7c1.4-12.1,12.4-20.8,24.5-19.4"/>
	<path class="st2" d="M533.1,19.6c0.4-0.5,4.7-0.9,7.6,1.4s4.1,4.5,3.1,6.8c-0.7,1.5-4.1,1.5-7-0.8
		C533.8,24.8,532.6,20.1,533.1,19.6z"/>
	<path class="st2" d="M544.6,15.2c0.6,0.2,2.4,4,1.3,7.6c-1.1,3.6-2.8,5.5-5.3,5.3c-1.6-0.1-2.7-3.3-1.6-6.8
		C540,17.7,544,15,544.6,15.2z"/>
	<path class="st2" d="M400.1,23.7c-0.3-0.6,0.9-4.7,4.2-6.5s5.8-2,7.5-0.2c1.1,1.2-0.2,4.3-3.5,6.1
		C405.2,25.1,400.4,24.3,400.1,23.7z"/>
	<path class="st2" d="M415.8,29.2c-0.3-0.6,0.4-4.8,3.4-7s5.4-2.8,7.4-1.2c1.3,1.1,0.4,4.3-2.6,6.5
		C421.1,29.8,416.1,29.8,415.8,29.2z"/>
	<path class="st2" d="M389.7,39.7c0.4-0.5,4.7-0.9,7.6,1.4s4.1,4.5,3.1,6.8c-0.7,1.5-4.1,1.5-7-0.8
		C390.4,44.9,389.3,40.2,389.7,39.7z"/>
	<path class="st2" d="M328,12.7c0.4-0.5,4.7-0.9,7.6,1.4s4.1,4.5,3.1,6.8c-0.7,1.5-4.1,1.5-7-0.8C328.7,17.9,327.5,13.2,328,12.7z"
		/>
	<path class="st2" d="M320.1,47.1c-0.4-0.5-0.2-4.7,2.5-7.3s5-3.4,7.2-2.1c1.4,0.9,0.9,4.2-1.8,6.8
		C325.5,47.2,320.6,47.7,320.1,47.1z"/>
	<path class="st2" d="M330.2,51.2c-0.7,0-3.7-3-3.7-6.8s0.9-6.1,3.4-6.7c1.6-0.4,3.7,2.3,3.7,6C333.8,47.3,330.9,51.2,330.2,51.2z"
		/>
	<path class="st2" d="M489.6,53.7c-0.5-0.4-1.3-4.6,0.8-7.7c2-3.1,4.1-4.4,6.5-3.6c1.6,0.5,1.9,3.9-0.2,7
		C494.8,52.6,490.2,54.2,489.6,53.7z"/>
	<path class="st2" d="M455.3,39.8c-0.5-0.4-1.3-4.6,0.8-7.7c2-3.1,4.1-4.4,6.5-3.6c1.6,0.5,1.9,3.9-0.2,7
		C460.5,38.7,455.9,40.2,455.3,39.8z"/>
	<path class="st2" d="M513.6,50.8c0.5-0.4,4.7-0.2,7.3,2.5c2.6,2.7,3.5,5.1,2.1,7.2c-0.9,1.4-4.2,0.9-6.8-1.8
		C513.5,56.1,513.1,51.2,513.6,50.8z"/>
	<path class="st2" d="M429.4,31.7c0.4,0.6,0.1,4.8-2.7,7.3c-2.8,2.5-5.2,3.3-7.3,1.9c-1.4-0.9-0.8-4.2,2-6.7
		C424.1,31.6,428.9,31.3,429.4,31.7z"/>
	<path class="st2" d="M536.7,48.3c0.4,0.6,0.1,4.8-2.7,7.3c-2.7,2.5-5.1,3.3-7.2,1.9c-1.4-0.9-0.8-4.2,2-6.7
		C531.4,48.2,536.3,47.8,536.7,48.3z"/>
	<path class="st2" d="M515.2,34.2c0.5-0.4,4.7-0.2,7.3,2.5c2.6,2.7,3.5,5.1,2.1,7.2c-0.9,1.4-4.2,0.9-6.8-1.8
		C515.2,39.6,514.7,34.7,515.2,34.2z"/>
	<path class="st2" d="M511.4,41.3c0.2-0.7,3.9-2.8,7.5-1.8c3.6,0.9,5.5,2.5,5.5,5c0,1.7-3.1,3-6.7,2
		C514.1,45.8,511.2,41.9,511.4,41.3z"/>
	<path class="st1" d="M277.7,68.3c-9.9-1.2-16.9-10.1-15.8-20c1.5-12.3,14-20.1,26.4-20.1"/>
	<path class="st1" d="M240.3,45c8.6,5.1,19.6,2.3,24.7-6.2"/>
	<path class="st2" d="M256.5,70.4c-0.6-0.4-0.7-4.7,1.7-7.5c2.5-2.8,4.7-3.9,7-2.8c1.5,0.7,1.2,4.1-1.2,6.9
		C261.7,69.9,257.1,70.8,256.5,70.4z"/>
	<path class="st2" d="M176.7,69.6c-0.7,0.3-4.6-1.4-6.1-4.8c-1.5-3.4-1.5-5.9,0.5-7.5c1.3-1.1,4.2,0.6,5.7,4
		C178.5,64.7,177.4,69.3,176.7,69.6z"/>
	<path class="st2" d="M142.3,79.3c-0.6-0.4-0.7-4.7,1.7-7.5c2.5-2.8,4.7-3.9,7-2.8c1.5,0.7,1.2,4.1-1.2,6.9
		C147.5,78.8,142.8,79.8,142.3,79.3z"/>
	<path class="st2" d="M194.7,39c-0.6-0.4-0.7-4.7,1.7-7.5c2.5-2.8,4.7-3.9,7-2.8c1.5,0.7,1.2,4.1-1.2,6.9
		C199.9,38.4,195.2,39.4,194.7,39z"/>
	<path class="st2" d="M160.4,73.7c-0.7,0-3.8-2.9-4-6.6c-0.2-3.7,0.7-6,3.1-6.8c1.6-0.5,3.8,2.1,4,5.8
		C163.9,69.8,161.1,73.8,160.4,73.7z"/>
	<path class="st2" d="M229.9,51.2c-0.2-0.7,2.1-4.3,5.7-5.2s6.1-0.5,7.3,1.7c0.8,1.4-1.3,4.1-4.9,5C234.5,53.8,230,51.9,229.9,51.2z
		"/>
	<path class="st2" d="M357.6,37.8c0.2-0.7,3.9-2.9,7.5-2.1c3.7,0.8,5.7,2.3,5.8,4.8c0.1,1.7-3,3.1-6.6,2.3
		C360.6,42.2,357.4,38.5,357.6,37.8z"/>
	<path class="st2" d="M381.5,63.7c-0.6-0.3-1.6-4.5,0.3-7.7s3.9-4.7,6.3-4c1.7,0.5,2.1,3.8,0.2,7C386.6,62.3,382.1,64.1,381.5,63.7z
		"/>
	<path class="st2" d="M430.7,15.1c0.2-0.7,3.9-2.9,7.5-2.1c3.7,0.8,5.7,2.3,5.8,4.8c0.1,1.7-3,3.1-6.6,2.3
		C433.8,19.5,430.5,15.8,430.7,15.1z"/>
	<path class="st2" d="M444.7,7.3c0.6-0.2,4.3,2,5.4,5.5s0.8,6-1.4,7.3c-1.4,0.9-4.1-1.1-5.2-4.7C442.3,11.9,444,7.4,444.7,7.3z"/>
	<path class="st2" d="M230.4,38.9c0.4-0.5,4.7-0.9,7.6,1.4s4.1,4.5,3.1,6.8c-0.7,1.5-4.1,1.5-7-0.8C231.1,44.1,230,39.4,230.4,38.9z
		"/>
	<path class="st2" d="M356.7,11.3c0.7-0.3,4.6,1.4,6.1,4.8s1.5,5.9-0.5,7.5c-1.4,1.1-4.3-0.6-5.8-4C354.8,16.2,356,11.6,356.7,11.3z
		"/>
	<path class="st2" d="M439.6,48.8c-0.4,0.5-4.7,0.7-7.5-1.8c-2.8-2.5-3.9-4.7-2.7-7c0.8-1.5,4.1-1.3,6.9,1.2
		C439.2,43.5,440.1,48.3,439.6,48.8z"/>
	<path class="st1" d="M140.4,54.4c9.3,3.3,24.1-3.6,27.4-13"/>
	<path class="st2" d="M132.3,60.6c-0.3-0.6,1.2-4.6,4.6-6.2s5.9-1.7,7.5,0.2c1.1,1.3-0.4,4.3-3.8,5.9
		C137.4,62.3,132.6,61.2,132.3,60.6z"/>
	<path class="st2" d="M133.3,48.2c0.3-0.6,4.4-1.9,7.7-0.2s4.9,3.6,4.4,6.1c-0.4,1.7-3.7,2.3-7,0.6C135,53.2,132.9,48.8,133.3,48.2z
		"/>
	<path class="st2" d="M150.3,42.4c0.3-0.6,4.4-1.9,7.7-0.2s4.9,3.6,4.4,6.1c-0.4,1.7-3.7,2.3-7,0.6C152.1,47.4,150,43,150.3,42.4z"
		/>
	<path class="st2" d="M141.7,21.2c0.3-0.6,4.4-1.9,7.7-0.2c3.3,1.7,4.9,3.6,4.4,6.1c-0.4,1.7-3.7,2.3-7,0.6
		C143.4,26.2,141.4,21.8,141.7,21.2z"/>
	<path class="st2" d="M152.8,15.7c0.6-0.1,4.1,2.4,4.7,6.1c0.6,3.6,0,6.1-2.3,7.1c-1.5,0.7-4-1.6-4.6-5.3
		C149.8,20,152.1,15.7,152.8,15.7z"/>
	<path class="st2" d="M273.8,46.3c0.4,0.5-0.4,4.7-3.4,6.9s-5.5,2.7-7.4,1.1c-1.3-1.1-0.3-4.3,2.7-6.5
		C268.6,45.5,273.4,45.7,273.8,46.3z"/>
	<g>
		<path class="st1" d="M73.8,49.8"/>
		<path class="st1" d="M76.1,39.8c5.1,0.6,8.8,5.2,8.2,10.3c-0.7,6.4-6.5,10.9-12.9,10.2c-8-1-13.7-8.2-12.8-16.2
			c1.2-10,10.2-17.2,20.2-16"/>
		<path class="st2" d="M50.7,58.8c-0.5-0.4-1.2-4.6,0.8-7.7s4.1-4.4,6.5-3.6c1.6,0.5,1.9,3.9-0.2,7C55.9,57.7,51.3,59.3,50.7,58.8z"
			/>
		<path class="st2" d="M71.6,49.5c0.2-0.7,3.9-2.9,7.5-2.1c3.7,0.8,5.7,2.3,5.8,4.8c0.1,1.7-3,3.1-6.6,2.3
			C74.7,53.9,71.6,50.2,71.6,49.5z"/>
		<path class="st2" d="M70.5,33.9c0.4-0.5,4.7-0.9,7.6,1.4s4.1,4.5,3.1,6.8c-0.7,1.5-4.1,1.5-7-0.8C71.2,39.2,70.1,34.4,70.5,33.9z"
			/>
		<path class="st2" d="M91.5,39.9c0.6,0.4,1.3,4.6-0.7,7.7c-2,3.1-4.1,4.5-6.5,3.7c-1.6-0.5-1.8-3.9,0.2-7
			C86.4,41.2,90.9,39.6,91.5,39.9z"/>
		<path class="st2" d="M88.9,65.2c-0.3,0.6-4.3,2.2-7.7,0.8c-3.5-1.4-5.2-3.2-4.9-5.7c0.2-1.7,3.5-2.6,6.9-1.2
			C86.6,60.3,89.1,64.5,88.9,65.2z"/>
	</g>
	<path class="st2" d="M290,64.7c0.1,0.7-2.1,4.3-5.7,5.3c-3.6,1-6.1,0.6-7.3-1.6c-0.8-1.5,1.2-4.1,4.8-5.1
		C285.4,62.2,289.9,64.1,290,64.7z"/>
	<path class="st2" d="M184.8,51.9c0.1,0.7-2.1,4.3-5.7,5.3c-3.6,1-6.1,0.6-7.3-1.6c-0.8-1.5,1.2-4.1,4.8-5.1
		C180.1,49.4,184.6,51.2,184.8,51.9z"/>
	<path class="st2" d="M203.7,48c0.3,0.6-1,4.7-4.3,6.5s-5.8,2.1-7.5,0.2c-1.1-1.3,0.2-4.3,3.5-6.1C198.5,46.7,203.3,47.5,203.7,48z"
		/>
	<path class="st2" d="M173.5,45.1c-0.2-0.6,1.4-4.6,4.8-6.1s5.9-1.5,7.5,0.5c1,1.4-0.6,4.3-4,5.8C178.5,47,173.8,45.8,173.5,45.1z"
		/>
	<path class="st1" d="M149.5,70.9c7.6-2.8,11.4-11.3,8.6-18.9"/>
	<path class="st2" d="M101.7,21.5c0.3-0.6,4.4-1.9,7.7-0.2s4.9,3.6,4.4,6.1c-0.4,1.7-3.7,2.3-7,0.6
		C103.4,26.5,101.3,22.1,101.7,21.5z"/>
	<path class="st1" d="M270.9,18.5c0.7,5.5,9.6,9.8,15.2,9.8"/>
	<path class="st1" d="M261.2,20c3.8-2.3,8.2-2.7,10.5,1.1"/>
	<path class="st2" d="M256,17.5c3.6-1,6.8,0.2,6.8,1.9c0.1,2.5-1.8,4.1-5.4,5.1s-7.4-0.9-7.6-1.6C249.6,22.2,252.5,18.3,256,17.5z"
		/>
	<path class="st2" d="M275.9,14.9c-1.2,3.6-4,5.4-5.4,4.5c-2.1-1.4-2.4-3.9-1.1-7.4s5-5.5,5.7-5.3C275.8,6.9,277.3,11.5,275.9,14.9z
		"/>
	<path class="st2" d="M261.7,12.6c2.7,2.6,3.2,5.9,1.8,6.8c-2.2,1.3-4.5,0.4-7.2-2.1s-3-6.8-2.5-7.3S259.1,10,261.7,12.6z"/>
	<g>
		<path class="st1" d="M629.1,60.5c-8-1-13.7-8.2-12.8-16.2c1.2-10,10.2-17.2,20.2-16"/>
		<path class="st2" d="M606.2,33.8c0.4-0.5,4.7-0.9,7.6,1.4c2.9,2.3,4.1,4.5,3.1,6.8c-0.7,1.5-4.1,1.5-7-0.8
			C606.9,39.1,605.8,34.3,606.2,33.8z"/>
		<path class="st2" d="M592.7,28.4c-0.1-0.7,2.4-4.2,6-4.9c3.6-0.8,6.1-0.3,7.2,2c0.8,1.5-1.5,4.1-5.1,4.8
			C597.2,31.2,592.8,29.1,592.7,28.4z"/>
		<path class="st2" d="M600.4,9.5c-0.1-0.7,2.5-4.1,6.1-4.8c3.6-0.7,6.1-0.1,7.1,2.2c0.6,1.6-1.6,4.1-5.3,4.7
			C604.7,12.4,600.4,10.1,600.4,9.5z"/>
		<path class="st2" d="M636.2,3.5c0.7,0,3.9,2.8,4.2,6.5s-0.5,6.1-2.9,6.9c-1.6,0.6-3.9-1.9-4.2-5.6C632.8,7.7,635.5,3.6,636.2,3.5z
			"/>
		<path class="st2" d="M636.6,68.9c-0.5,0.5-4.8,0.2-7.3-2.5s-3.4-5.1-2-7.2c1-1.4,4.3-0.8,6.8,1.9
			C636.7,63.7,637.2,68.5,636.6,68.9z"/>
		<path class="st2" d="M493.1,20.6c0.3-0.6,4.4-1.8,7.7,0c3.3,1.8,4.9,3.7,4.3,6.2c-0.4,1.6-3.7,2.1-7,0.4
			C494.8,25.6,492.7,21.2,493.1,20.6z"/>
		<path class="st2" d="M566.3,40c-0.1-0.6,2.4-4.1,6.1-4.7c3.6-0.6,6.1,0,7.1,2.3c0.7,1.5-1.6,4-5.3,4.6
			C570.6,43,566.3,40.7,566.3,40z"/>
		<path class="st2" d="M582.5,24.3c0.7,0,3.7,3.1,3.8,6.8c0.1,3.7-0.9,6-3.3,6.7c-1.6,0.5-3.7-2.2-3.8-5.9
			C579,28.3,581.9,24.3,582.5,24.3z"/>
		<path class="st2" d="M625.4,18.7c0.3-0.6,4.4-1.8,7.7,0c3.2,1.8,4.8,3.7,4.2,6.2c-0.4,1.6-3.7,2.2-7,0.4
			C627,23.7,625,19.3,625.4,18.7z"/>
		<path class="st2" d="M466.4,16.6c0.6-0.4,4.8,0.4,7,3.4c2.2,3,2.8,5.4,1.2,7.4c-1.1,1.3-4.3,0.4-6.5-2.6
			C465.8,21.9,465.9,17.1,466.4,16.6z"/>
		<path class="st2" d="M629.9,53.2c-0.3,0.6-4.3,2.1-7.7,0.7c-3.4-1.4-5.2-3.2-4.8-5.7c0.2-1.7,3.5-2.5,6.9-1.1
			C627.8,48.3,630.2,52.6,629.9,53.2z"/>
		<path class="st2" d="M609.2,57.2c-0.6-0.3-1.7-4.4,0.2-7.7c1.9-3.3,3.9-4.8,6.3-4.1c1.6,0.4,2,3.8,0.2,7
			C614.2,55.7,609.7,57.6,609.2,57.2z"/>
		<path class="st2" d="M639.7,52.8c0.4,0.6-0.6,4.7-3.7,6.8c-3.1,2.1-5.5,2.5-7.4,0.8c-1.2-1.2-0.1-4.3,3-6.4
			C634.5,51.8,639.4,52.1,639.7,52.8z"/>
		<path class="st2" d="M563.1,12.8c0.6-0.5,4.8-0.3,7.4,2.4c2.6,2.7,3.4,5,2.1,7.2c-0.9,1.4-4.2,0.9-6.8-1.8
			C563.1,18.1,562.5,13.3,563.1,12.8z"/>
		<path class="st2" d="M595.7,15.3c-0.2,0.7-3.7,3-7.4,2.3c-3.7-0.7-5.7-2.1-5.9-4.6c-0.1-1.7,2.9-3.2,6.6-2.5
			C592.7,11,595.9,14.6,595.7,15.3z"/>
		<path class="st1" d="M637.4,28.4c0.2-1.9,0.2-3.8,0-5.7c-1.2-10.1-10.4-17.2-20.5-16c-8.1,1-12.8,8.3-12.8,16.4"/>
		<path class="st1" d="M585,13c-6.2-0.8-11.7,3.6-12.5,9.7c-1,7.7,4.4,14.7,12.1,15.6c9.6,1.2,19.5-5.7,19.5-15.2"/>
	</g>
	<path class="st0" d="M425,21.4c5-0.7,9.6,2.8,10.3,7.8c0.9,6.3-3.4,12-9.7,12.9c-7.8,1.1-15-4.4-16.1-12.2
		c-1.4-9.8,5.4-18.8,15.2-20.2c12.2-1.7,23.5,6.8,25.2,19"/>
	<path class="st0" d="M370.2,37.3c1.5,9.8,10.7,16.4,20.4,14.9c12.2-1.9,20.5-13.3,18.6-25.5"/>
	<path class="st0" d="M329.9,39.4c-1.4-9.8,5.4-18.8,15.2-20.2c12.2-1.7,23.5,6.8,25.2,19"/>
	<path class="st1" d="M37.2,18.1c0.7,5.5,9.6,9.8,15.2,9.8"/>
	<path class="st1" d="M27.6,19.6c3.8-2.3,8.2-2.7,10.5,1.1"/>
	<path class="st2" d="M22.3,17.1c3.6-1,6.8,0.2,6.8,1.9c0.1,2.5-1.8,4.1-5.4,5.1s-7.4-0.9-7.6-1.6C15.9,21.9,18.8,18,22.3,17.1z"/>
	<path class="st2" d="M9.7,34c3.6-1,6.8,0.2,6.8,1.9c0.1,2.5-1.8,4.1-5.4,5.1s-7.4-0.9-7.6-1.6S6.2,34.8,9.7,34z"/>
	<path class="st2" d="M41.8,34.2c-0.6-3.7,1-6.6,2.7-6.5c2.6,0.2,3.9,2.3,4.5,6c0.6,3.6-1.8,7.2-2.5,7.3
		C45.9,41.2,42.3,37.8,41.8,34.2z"/>
	<path class="st2" d="M36.4,31c2.7-2.5,6.1-2.9,6.9-1.4c1.2,2.3,0.2,4.6-2.5,7.1s-7,2.5-7.5,2C32.9,38.2,33.7,33.4,36.4,31z"/>
	<path class="st2" d="M15.1,54.9c-3.2-1.9-4.4-5-3.2-6.2c1.8-1.8,4.3-1.4,7.5,0.5c3.2,2,4.3,6.1,4,6.7S18.3,57.1,15.1,54.9z"/>
	<path class="st2" d="M6.6,51.6c0.9-3.6,3.5-5.7,5-4.9c2.2,1.2,2.6,3.6,1.7,7.3s-4.5,5.9-5.2,5.8C7.4,59.6,5.5,55.2,6.6,51.6z"/>
	<path class="st2" d="M19.4,35.6c0.9-3.6,3.5-5.7,5-4.9c2.2,1.2,2.6,3.6,1.7,7.3s-4.5,5.9-5.2,5.8C20.3,43.6,18.3,39.2,19.4,35.6z"
		/>
	<path class="st2" d="M42.3,14.5c-1.2,3.6-4,5.4-5.4,4.5c-2.1-1.4-2.4-3.9-1.1-7.4s5-5.5,5.7-5.3C42.1,6.5,43.7,11.1,42.3,14.5z"/>
	<path class="st2" d="M28.1,12.3c2.7,2.6,3.2,5.9,1.8,6.8c-2.2,1.3-4.5,0.4-7.2-2.1s-3-6.8-2.5-7.3C20.6,9.1,25.5,9.7,28.1,12.3z"/>
	<path class="st1" d="M647.2,20.5c-0.3-1.3-1.6-2.1-2.9-1.8c-1.7,0.4-2.7,2.1-2.3,3.7c0.5,2.1,2.5,3.4,4.6,2.9
		c2.6-0.6,4.2-3.1,3.6-5.7c-0.8-3.3-4-5.2-7.2-4.5c-4,1-6.5,5-5.6,9"/>
	<path class="st1" d="M251.5,38.8c-0.7,1.1-0.4,2.7,0.7,3.4c1.4,0.9,3.3,0.5,4.2-0.9c1.1-1.8,0.7-4.1-1.1-5.3
		c-2.2-1.5-5.1-0.9-6.6,1.3c-1.8,2.8-1,6.5,1.7,8.3c3.4,2.3,8,1.3,10.3-2.1"/>
	<path class="st1" d="M348.4,29.3c-1.3-0.1-2.3-1.4-2.1-2.7c0.2-1.7,1.7-2.9,3.4-2.7c2.1,0.2,3.6,2.1,3.4,4.2
		c-0.3,2.6-2.7,4.5-5.3,4.2c-3.2-0.4-5.6-3.3-5.2-6.6c0.5-4,4.2-7,8.3-6.5"/>
	<path class="st1" d="M69,45.8c0.1-1.3-1-2.5-2.3-2.6C65,43,63.5,44.3,63.4,46c-0.2,2.1,1.4,4,3.5,4.1c2.6,0.2,4.9-1.8,5.1-4.4
		c0.3-3.3-2.2-6.2-5.5-6.4c-4.2-0.3-7.7,2.8-8,6.9"/>
	<path class="st1" d="M49.3,16.4c1.2,0.6,1.6,2.1,0.9,3.3c-0.9,1.5-2.7,1.9-4.2,1.1c-1.8-1-2.5-3.4-1.4-5.2c1.3-2.3,4.2-3,6.5-1.7
		c2.9,1.7,3.9,5.4,2.2,8.2c-2.1,3.6-6.6,4.8-10.2,2.7"/>
</g>
</svg>
