<?xml version="1.0" encoding="utf-8"?>
<!-- Generator: Adobe Illustrator 26.0.3, SVG Export Plug-In . SVG Version: 6.00 Build 0)  -->
<svg version="1.1" id="Capa_2" xmlns="http://www.w3.org/2000/svg" xmlns:xlink="http://www.w3.org/1999/xlink" x="0px" y="0px"
	 viewBox="0 0 678.5 90.2" style="enable-background:new 0 0 678.5 90.2;" xml:space="preserve">
<style type="text/css">
	.st0{fill:none;stroke:#67A580;stroke-width:2;stroke-miterlimit:10;}
	.st1{fill:none;stroke:#67A580;stroke-width:2;stroke-linecap:round;stroke-miterlimit:10;}
	.st2{fill:#67A580;}
</style>
<g>
	<line class="st0" x1="0.5" y1="28.2" x2="646.1" y2="28.2"/>
	<path class="st1" d="M157.9,28.3c11.5-1.3,21.9,6.9,23.3,18.4c1.1,9.2-5.5,17.6-14.7,18.6c-7.4,0.9-14-4.4-14.9-11.8
		c-0.7-5.9,3.5-11.2,9.4-11.9"/>
	<path class="st1" d="M495.6,50"/>
	<path class="st1" d="M490.6,28.3c10-1.2,19,6,20.2,16c0.9,8-4.8,15.2-12.8,16.2c-6.4,0.7-12.2-3.8-12.9-10.2
		c-0.6-5.1,3.1-9.7,8.2-10.3"/>
	<path class="st1" d="M642,28.3c12.1-1.4,23.1,7.3,24.5,19.4"/>
	<path class="st2" d="M141.4,27c-2.9,2.3-6.3,2.3-7,0.8c-1-2.3,0.2-4.5,3.1-6.8c2.9-2.3,7.2-1.9,7.6-1.4
		C145.6,20.1,144.4,24.8,141.4,27z"/>
	<path class="st2" d="M139.2,21.3c1.1,3.5,0,6.7-1.6,6.8c-2.5,0.2-4.2-1.7-5.3-5.3s0.7-7.4,1.3-7.6C134.2,15,138.2,17.7,139.2,21.3z
		"/>
	<path class="st2" d="M269.9,23.1c-3.3-1.8-4.6-4.9-3.5-6.1c1.7-1.8,4.2-1.6,7.5,0.2s4.5,5.9,4.2,6.5S273,25.1,269.9,23.1z"/>
	<path class="st2" d="M254.2,27.5c-3-2.2-3.9-5.4-2.6-6.5c2-1.6,4.4-1,7.4,1.2c3,2.2,3.7,6.4,3.4,7S257.1,29.8,254.2,27.5z"/>
	<path class="st2" d="M284.8,47.1c-2.9,2.3-6.3,2.3-7,0.8c-1-2.3,0.2-4.5,3.1-6.8s7.2-1.9,7.6-1.4S287.8,44.9,284.8,47.1z"/>
	<path class="st2" d="M346.5,20.1c-2.9,2.3-6.3,2.3-7,0.8c-1-2.3,0.2-4.5,3.1-6.8s7.2-1.9,7.6-1.4C350.7,13.2,349.5,17.9,346.5,20.1
		z"/>
	<path class="st2" d="M350.2,44.5c-2.7-2.6-3.2-5.9-1.8-6.8c2.2-1.3,4.5-0.5,7.2,2.1c2.7,2.6,2.9,6.8,2.5,7.3
		C357.6,47.7,352.7,47.2,350.2,44.5z"/>
	<path class="st2" d="M344.6,43.7c0-3.7,2.1-6.4,3.7-6c2.5,0.6,3.4,2.9,3.4,6.7s-3,6.8-3.7,6.8C347.3,51.2,344.4,47.3,344.6,43.7z"
		/>
	<path class="st2" d="M181.5,49.4c-2.1-3.1-1.8-6.5-0.2-7c2.4-0.8,4.5,0.5,6.5,3.6c2.1,3.1,1.3,7.3,0.8,7.7
		C188,54.2,183.4,52.6,181.5,49.4z"/>
	<path class="st2" d="M215.8,35.5c-2.1-3.1-1.8-6.5-0.2-7c2.4-0.8,4.5,0.5,6.5,3.6c2.1,3.1,1.3,7.3,0.8,7.7
		C222.3,40.2,217.7,38.7,215.8,35.5z"/>
	<path class="st2" d="M162,58.7c-2.6,2.7-5.9,3.2-6.8,1.8c-1.4-2.1-0.5-4.5,2.1-7.2c2.6-2.7,6.8-2.9,7.3-2.5S164.7,56.1,162,58.7z"
		/>
	<path class="st2" d="M256.8,34.2c2.8,2.5,3.4,5.8,2,6.7c-2.1,1.4-4.5,0.6-7.3-1.9c-2.8-2.5-3.1-6.7-2.7-7.3
		C249.3,31.3,254.1,31.6,256.8,34.2z"/>
	<path class="st2" d="M149.4,50.8c2.8,2.5,3.4,5.8,2,6.7c-2.1,1.4-4.5,0.6-7.2-1.9c-2.8-2.5-3.1-6.7-2.7-7.3
		C141.9,47.8,146.8,48.2,149.4,50.8z"/>
	<path class="st2" d="M160.4,42.1c-2.6,2.7-5.9,3.2-6.8,1.8c-1.4-2.1-0.5-4.5,2.1-7.2c2.6-2.7,6.8-2.9,7.3-2.5
		C163.5,34.7,163,39.6,160.4,42.1z"/>
	<path class="st2" d="M160.5,46.5c-3.6,1-6.7-0.3-6.7-2c0-2.5,1.9-4.1,5.5-5c3.6-1,7.3,1.1,7.5,1.8C167,41.9,164.1,45.8,160.5,46.5z
		"/>
	<path class="st1" d="M389.9,28.2c12.4,0,24.9,7.8,26.4,20.1c1.1,9.9-5.9,18.8-15.8,20"/>
	<path class="st1" d="M413.2,38.8c5.1,8.5,16.1,11.3,24.7,6.2"/>
	<path class="st2" d="M414.2,67c-2.4-2.8-2.7-6.2-1.2-6.9c2.3-1.1,4.5,0,7,2.8c2.4,2.8,2.3,7.1,1.7,7.5S416.5,69.9,414.2,67z"/>
	<path class="st2" d="M501.4,61.3c1.5-3.4,4.4-5.1,5.7-4c2,1.6,2,4.1,0.5,7.5c-1.5,3.4-5.4,5.1-6.1,4.8S499.7,64.7,501.4,61.3z"/>
	<path class="st2" d="M528.4,75.9c-2.4-2.8-2.7-6.2-1.2-6.9c2.3-1.1,4.5,0,7,2.8c2.4,2.8,2.3,7.1,1.7,7.5
		C535.4,79.8,530.7,78.8,528.4,75.9z"/>
	<path class="st2" d="M476,35.6c-2.4-2.8-2.7-6.2-1.2-6.9c2.3-1.1,4.5,0,7,2.8c2.4,2.8,2.3,7.1,1.7,7.5
		C483,39.4,478.3,38.4,476,35.6z"/>
	<path class="st2" d="M514.7,66.1c0.2-3.7,2.4-6.3,4-5.8c2.4,0.8,3.3,3.1,3.1,6.8s-3.3,6.6-4,6.6C517.1,73.8,514.3,69.8,514.7,66.1z
		"/>
	<path class="st2" d="M440.2,52.7c-3.6-0.9-5.7-3.6-4.9-5c1.2-2.2,3.7-2.6,7.3-1.7s5.9,4.5,5.7,5.2
		C448.2,51.9,443.7,53.8,440.2,52.7z"/>
	<path class="st2" d="M313.9,42.8c-3.6,0.8-6.7-0.6-6.6-2.3c0.1-2.5,2.1-4,5.8-4.8c3.6-0.8,7.3,1.4,7.5,2.1S317.6,42.2,313.9,42.8z"
		/>
	<path class="st2" d="M289.9,59c-1.9-3.2-1.5-6.5,0.2-7c2.4-0.7,4.4,0.8,6.3,4c1.9,3.2,0.9,7.4,0.3,7.7
		C296.1,64.1,291.6,62.3,289.9,59z"/>
	<path class="st2" d="M240.8,20.1c-3.6,0.8-6.7-0.6-6.6-2.3c0.1-2.5,2.1-4,5.8-4.8c3.6-0.8,7.3,1.4,7.5,2.1S244.4,19.5,240.8,20.1z"
		/>
	<path class="st2" d="M234.7,15.4c-1.1,3.6-3.8,5.6-5.2,4.7c-2.2-1.3-2.5-3.8-1.4-7.3s4.8-5.7,5.4-5.5
		C234.2,7.4,235.9,11.9,234.7,15.4z"/>
	<path class="st2" d="M444.1,46.3c-2.9,2.3-6.3,2.3-7,0.8c-1-2.3,0.2-4.5,3.1-6.8s7.2-1.9,7.6-1.4S447.1,44.1,444.1,46.3z"/>
	<path class="st2" d="M321.7,19.6c-1.5,3.4-4.4,5.1-5.8,4c-2-1.6-2-4.1-0.5-7.5s5.4-5.1,6.1-4.8S323.4,16.2,321.7,19.6z"/>
	<path class="st2" d="M241.9,41.2c2.8-2.5,6.1-2.7,6.9-1.2c1.2,2.3,0.1,4.5-2.7,7c-2.8,2.5-7.1,2.3-7.5,1.8
		C238.1,48.3,239,43.5,241.9,41.2z"/>
	<path class="st1" d="M510.4,41.4c3.3,9.4,18.1,16.3,27.4,13"/>
	<path class="st2" d="M537.6,60.5c-3.4-1.6-4.9-4.6-3.8-5.9c1.6-1.9,4.1-1.8,7.5-0.2c3.4,1.6,4.9,5.6,4.6,6.2
		C545.6,61.2,540.8,62.3,537.6,60.5z"/>
	<path class="st2" d="M539.8,54.7c-3.3,1.7-6.6,1.1-7-0.6c-0.5-2.5,1.1-4.4,4.4-6.1s7.4-0.4,7.7,0.2
		C545.3,48.8,543.2,53.2,539.8,54.7z"/>
	<path class="st2" d="M522.8,48.9c-3.3,1.7-6.6,1.1-7-0.6c-0.5-2.5,1.1-4.4,4.4-6.1s7.4-0.4,7.7,0.2C528.2,43,526.1,47.4,522.8,48.9
		z"/>
	<path class="st2" d="M531.4,27.7c-3.3,1.7-6.6,1.1-7-0.6c-0.5-2.5,1.1-4.4,4.4-6.1c3.3-1.7,7.4-0.4,7.7,0.2S534.8,26.2,531.4,27.7z
		"/>
	<path class="st2" d="M527.6,23.6c-0.6,3.7-3.1,6-4.6,5.3c-2.3-1-2.9-3.5-2.3-7.1c0.6-3.7,4.1-6.2,4.7-6.1
		C526.1,15.7,528.4,20,527.6,23.6z"/>
	<path class="st2" d="M412.5,47.8c3,2.2,4,5.4,2.7,6.5c-1.9,1.6-4.4,1.1-7.4-1.1s-3.8-6.4-3.4-6.9C404.8,45.7,409.6,45.5,412.5,47.8
		z"/>
	<g>
		<path class="st1" d="M604.4,49.8"/>
		<path class="st1" d="M599.4,28.1c10-1.2,19,6,20.2,16c0.9,8-4.8,15.2-12.8,16.2c-6.4,0.7-12.2-3.8-12.9-10.2
			c-0.6-5.1,3.1-9.7,8.2-10.3"/>
		<path class="st2" d="M620.4,54.5c-2.1-3.1-1.8-6.5-0.2-7c2.4-0.8,4.5,0.5,6.5,3.6s1.3,7.3,0.8,7.7
			C626.9,59.3,622.3,57.7,620.4,54.5z"/>
		<path class="st2" d="M599.9,54.5c-3.6,0.8-6.7-0.6-6.6-2.3c0.1-2.5,2.1-4,5.8-4.8c3.6-0.8,7.3,1.4,7.5,2.1
			C606.6,50.2,603.5,53.9,599.9,54.5z"/>
		<path class="st2" d="M604,41.3c-2.9,2.3-6.3,2.3-7,0.8c-1-2.3,0.2-4.5,3.1-6.8s7.2-1.9,7.6-1.4S607,39.2,604,41.3z"/>
		<path class="st2" d="M593.7,44.3c2,3.1,1.8,6.5,0.2,7c-2.4,0.8-4.5-0.6-6.5-3.7c-2-3.1-1.3-7.3-0.7-7.7
			C587.3,39.6,591.8,41.2,593.7,44.3z"/>
		<path class="st2" d="M595,59.1c3.4-1.4,6.7-0.5,6.9,1.2c0.3,2.5-1.4,4.3-4.9,5.7c-3.4,1.4-7.4-0.2-7.7-0.8
			C589.1,64.5,591.6,60.3,595,59.1z"/>
	</g>
	<path class="st2" d="M396.4,63.3c3.6,1,5.6,3.6,4.8,5.1c-1.2,2.2-3.7,2.6-7.3,1.6c-3.6-1-5.8-4.6-5.7-5.3
		C388.3,64.1,392.8,62.2,396.4,63.3z"/>
	<path class="st2" d="M501.6,50.5c3.6,1,5.6,3.6,4.8,5.1c-1.2,2.2-3.7,2.6-7.3,1.6c-3.6-1-5.8-4.6-5.7-5.3
		C493.6,51.2,498.1,49.4,501.6,50.5z"/>
	<path class="st2" d="M482.8,48.6c3.3,1.8,4.6,4.8,3.5,6.1c-1.7,1.9-4.2,1.6-7.5-0.2c-3.3-1.8-4.6-5.9-4.3-6.5
		C474.9,47.5,479.7,46.7,482.8,48.6z"/>
	<path class="st2" d="M496.4,45.3c-3.4-1.5-5-4.4-4-5.8c1.6-2,4.1-2,7.5-0.5s5,5.5,4.8,6.1C504.4,45.8,499.7,47,496.4,45.3z"/>
	<path class="st1" d="M520.1,52c-2.8,7.6,1,16.1,8.6,18.9"/>
	<path class="st2" d="M571.4,28c-3.3,1.7-6.6,1.1-7-0.6c-0.5-2.5,1.1-4.4,4.4-6.1s7.4-0.4,7.7,0.2C576.9,22.1,574.8,26.5,571.4,28z"
		/>
	<path class="st1" d="M392.1,28.3c5.6,0,14.5-4.3,15.2-9.8"/>
	<path class="st1" d="M406.5,21.1c2.3-3.8,6.7-3.4,10.5-1.1"/>
	<path class="st2" d="M428.4,22.9c-0.2,0.7-4,2.6-7.6,1.6c-3.6-1-5.5-2.6-5.4-5.1c0-1.7,3.2-2.9,6.8-1.9
		C425.7,18.3,428.6,22.2,428.4,22.9z"/>
	<path class="st2" d="M403.1,6.7c0.7-0.2,4.4,1.8,5.7,5.3s1,6-1.1,7.4c-1.4,0.9-4.2-0.9-5.4-4.5C400.9,11.5,402.4,6.9,403.1,6.7z"/>
	<path class="st2" d="M424.4,10c0.5,0.5,0.2,4.8-2.5,7.3s-5,3.4-7.2,2.1c-1.4-0.9-0.9-4.2,1.8-6.8C419.1,10,423.9,9.5,424.4,10z"/>
	<g>
		<path class="st1" d="M41.7,28.3c10-1.2,19,6,20.2,16c0.9,8-4.8,15.2-12.8,16.2"/>
		<path class="st2" d="M68.3,41.2c-2.9,2.3-6.3,2.3-7,0.8c-1-2.3,0.2-4.5,3.1-6.8c2.9-2.3,7.2-1.9,7.6-1.4S71.3,39.1,68.3,41.2z"/>
		<path class="st2" d="M77.4,30.3c-3.6-0.7-5.9-3.3-5.1-4.8c1.1-2.3,3.6-2.8,7.2-2c3.6,0.7,6.1,4.2,6,4.9
			C85.4,29.1,81,31.2,77.4,30.3z"/>
		<path class="st2" d="M69.9,11.6c-3.7-0.6-5.9-3.1-5.3-4.7c1-2.3,3.5-2.9,7.1-2.2s6.2,4.1,6.1,4.8C77.8,10.1,73.5,12.4,69.9,11.6z"
			/>
		<path class="st2" d="M44.9,11.3c-0.3,3.7-2.6,6.2-4.2,5.6c-2.4-0.8-3.2-3.2-2.9-6.9s3.5-6.5,4.2-6.5C42.7,3.6,45.4,7.7,44.9,11.3z
			"/>
		<path class="st2" d="M44.1,61.1c2.5-2.7,5.8-3.3,6.8-1.9c1.4,2.1,0.5,4.5-2,7.2c-2.5,2.7-6.8,3-7.3,2.5
			C41,68.5,41.5,63.7,44.1,61.1z"/>
		<path class="st2" d="M180.1,27.2c-3.3,1.7-6.6,1.2-7-0.4c-0.6-2.5,1-4.4,4.3-6.2s7.4-0.6,7.7,0C185.5,21.2,183.4,25.6,180.1,27.2z
			"/>
		<path class="st2" d="M104,42.2c-3.7-0.6-6-3.1-5.3-4.6c1-2.3,3.5-2.9,7.1-2.3c3.7,0.6,6.2,4.1,6.1,4.7
			C111.9,40.7,107.6,43,104,42.2z"/>
		<path class="st2" d="M99,31.9c-0.1,3.7-2.2,6.4-3.8,5.9c-2.4-0.7-3.4-3-3.3-6.7c0.1-3.7,3.1-6.8,3.8-6.8
			C96.3,24.3,99.2,28.3,99,31.9z"/>
		<path class="st2" d="M47.9,25.3c-3.3,1.8-6.6,1.2-7-0.4c-0.6-2.5,1-4.4,4.2-6.2c3.3-1.8,7.4-0.6,7.7,0
			C53.2,19.3,51.2,23.7,47.9,25.3z"/>
		<path class="st2" d="M210.1,24.8c-2.2,3-5.4,3.9-6.5,2.6c-1.6-2-1-4.4,1.2-7.4s6.4-3.8,7-3.4C212.3,17.1,212.4,21.9,210.1,24.8z"
			/>
		<path class="st2" d="M53.9,47.1c3.4-1.4,6.7-0.6,6.9,1.1c0.4,2.5-1.4,4.3-4.8,5.7s-7.4-0.1-7.7-0.7S50.4,48.3,53.9,47.1z"/>
		<path class="st2" d="M62.3,52.4c-1.8-3.2-1.4-6.6,0.2-7c2.4-0.7,4.4,0.8,6.3,4.1s0.8,7.4,0.2,7.7C68.5,57.6,64,55.7,62.3,52.4z"/>
		<path class="st2" d="M46.6,54c3.1,2.1,4.2,5.2,3,6.4c-1.9,1.7-4.3,1.3-7.4-0.8s-4.1-6.2-3.7-6.8C38.8,52.1,43.7,51.8,46.6,54z"/>
		<path class="st2" d="M112.4,20.6c-2.6,2.7-5.9,3.2-6.8,1.8c-1.3-2.2-0.5-4.5,2.1-7.2s6.8-2.9,7.4-2.4S115.1,18.1,112.4,20.6z"/>
		<path class="st2" d="M89.2,10.5c3.7-0.7,6.7,0.8,6.6,2.5c-0.2,2.5-2.2,3.9-5.9,4.6c-3.7,0.7-7.2-1.6-7.4-2.3
			C82.3,14.6,85.5,11,89.2,10.5z"/>
		<path class="st1" d="M74.1,23.1c0-8.1-4.7-15.4-12.8-16.4c-10.1-1.2-19.3,5.9-20.5,16c-0.2,1.9-0.2,3.8,0,5.7"/>
		<path class="st1" d="M74.1,23.1c0,9.5,9.9,16.4,19.5,15.2c7.7-0.9,13.1-7.9,12.1-15.6c-0.8-6.1-6.3-10.5-12.5-9.7"/>
	</g>
	<path class="st0" d="M228.3,28.7c1.7-12.2,13-20.7,25.2-19c9.8,1.4,16.6,10.4,15.2,20.2c-1.1,7.8-8.3,13.3-16.1,12.2
		c-6.3-0.9-10.6-6.6-9.7-12.9c0.7-5,5.3-8.5,10.3-7.8"/>
	<path class="st0" d="M269,26.7c-1.9,12.2,6.4,23.6,18.6,25.5c9.7,1.5,18.9-5.1,20.4-14.9"/>
	<path class="st0" d="M307.9,38.2c1.7-12.2,13-20.7,25.2-19c9.8,1.4,16.6,10.4,15.2,20.2"/>
	<path class="st1" d="M625.8,27.9c5.6,0,14.5-4.3,15.2-9.8"/>
	<path class="st1" d="M640.1,20.7c2.3-3.8,6.7-3.4,10.5-1.1"/>
	<path class="st2" d="M662.1,22.5c-0.2,0.7-4,2.6-7.6,1.6c-3.6-1-5.5-2.6-5.4-5.1c0-1.7,3.2-2.9,6.8-1.9
		C659.4,18,662.3,21.9,662.1,22.5z"/>
	<path class="st2" d="M674.7,39.4c-0.2,0.7-4,2.6-7.6,1.6s-5.5-2.6-5.4-5.1c0-1.7,3.2-2.9,6.8-1.9C672,34.8,674.9,38.7,674.7,39.4z"
		/>
	<path class="st2" d="M631.7,41c-0.7-0.1-3.1-3.7-2.5-7.3c0.6-3.7,1.9-5.8,4.5-6c1.7-0.1,3.3,2.8,2.7,6.5
		C635.9,37.8,632.3,41.2,631.7,41z"/>
	<path class="st2" d="M644.9,38.7c-0.5,0.5-4.8,0.5-7.5-2c-2.7-2.5-3.7-4.8-2.5-7.1c0.8-1.5,4.2-1.1,6.9,1.4
		C644.5,33.4,645.3,38.2,644.9,38.7z"/>
	<path class="st2" d="M654.8,55.9c-0.3-0.6,0.8-4.7,4-6.7c3.2-1.9,5.7-2.3,7.5-0.5c1.2,1.2,0,4.3-3.2,6.2
		C659.9,57.1,655.1,56.5,654.8,55.9z"/>
	<path class="st2" d="M670.1,59.8c-0.7,0.1-4.3-2.1-5.2-5.8s-0.5-6.1,1.7-7.3c1.5-0.8,4.1,1.3,5,4.9
		C672.7,55.2,670.8,59.6,670.1,59.8z"/>
	<path class="st2" d="M657.3,43.8c-0.7,0.1-4.3-2.1-5.2-5.8s-0.5-6.1,1.7-7.3c1.5-0.8,4.1,1.3,5,4.9
		C659.9,39.2,657.9,43.6,657.3,43.8z"/>
	<path class="st2" d="M636.7,6.3c0.7-0.2,4.4,1.8,5.7,5.3s1,6-1.1,7.4c-1.4,0.9-4.2-0.9-5.4-4.5C634.5,11.1,636.1,6.5,636.7,6.3z"/>
	<path class="st2" d="M658,9.7c0.5,0.5,0.2,4.8-2.5,7.3s-5,3.4-7.2,2.1c-1.4-0.9-0.9-4.2,1.8-6.8C652.7,9.7,657.6,9.1,658,9.7z"/>
	<path class="st1" d="M40.8,24.1c0.9-4-1.6-8-5.6-9c-3.2-0.7-6.4,1.2-7.2,4.5c-0.6,2.6,1,5.1,3.6,5.7c2.1,0.5,4.1-0.8,4.6-2.9
		c0.4-1.6-0.6-3.3-2.3-3.7c-1.3-0.3-2.6,0.5-2.9,1.8"/>
	<path class="st1" d="M417.5,43.5c2.3,3.4,6.9,4.4,10.3,2.1c2.7-1.8,3.5-5.5,1.7-8.3c-1.5-2.2-4.4-2.8-6.6-1.3
		c-1.8,1.2-2.2,3.5-1.1,5.3c0.9,1.4,2.8,1.8,4.2,0.9c1.1-0.7,1.4-2.3,0.7-3.4"/>
	<path class="st1" d="M327.3,19.2c4.1-0.5,7.8,2.5,8.3,6.5c0.4,3.3-2,6.2-5.2,6.6c-2.6,0.3-5-1.6-5.3-4.2c-0.2-2.1,1.3-4,3.4-4.2
		c1.7-0.2,3.2,1,3.4,2.7c0.2,1.3-0.8,2.6-2.1,2.7"/>
	<path class="st1" d="M619.7,46.2c-0.3-4.1-3.8-7.2-8-6.9c-3.3,0.2-5.8,3.1-5.5,6.4c0.2,2.6,2.5,4.6,5.1,4.4c2.1-0.1,3.7-2,3.5-4.1
		c-0.1-1.7-1.6-3-3.3-2.8c-1.3,0.1-2.4,1.3-2.3,2.6"/>
	<path class="st1" d="M635.1,24.8c-3.6,2.1-8.1,0.9-10.2-2.7c-1.7-2.8-0.7-6.5,2.2-8.2c2.3-1.3,5.2-0.6,6.5,1.7
		c1.1,1.8,0.4,4.2-1.4,5.2c-1.5,0.8-3.3,0.4-4.2-1.1c-0.7-1.2-0.3-2.7,0.9-3.3"/>
</g>
</svg>
