<svg id="Capa_2" data-name="Capa 2" xmlns="http://www.w3.org/2000/svg" viewBox="0 0 340.36 64.21"><defs><style>.cls-1,.cls-2{fill:none;stroke:#67a580;stroke-miterlimit:10;stroke-width:2px;}.cls-2{stroke-linecap:round;}.cls-3{fill:#67a580;}</style></defs><line class="cls-1" x1="282.06" y1="21.91" x2="28.61" y2="21.91"/><path class="cls-2" d="M35.2,28.3A22.13,22.13,0,0,0,10.7,47.7" transform="translate(-2.49 -6.29)"/><path class="cls-3" d="M217.3,23.1c3.3-1.8,4.6-4.9,3.5-6.1-1.7-1.8-4.2-1.6-7.5.2s-4.5,5.9-4.2,6.5S214.2,25.1,217.3,23.1Z" transform="translate(-2.49 -6.29)"/><path class="cls-3" d="M233,27.5c3-2.2,3.9-5.4,2.6-6.5-2-1.6-4.4-1-7.4,1.2s-3.7,6.4-3.4,7S230.1,29.8,233,27.5Z" transform="translate(-2.49 -6.29)"/><path class="cls-3" d="M202.4,47.1c2.9,2.3,6.3,2.3,7,.8,1-2.3-.2-4.5-3.1-6.8s-7.2-1.9-7.6-1.4S199.4,44.9,202.4,47.1Z" transform="translate(-2.49 -6.29)"/><path class="cls-3" d="M140.7,20.1c2.9,2.3,6.3,2.3,7,.8,1-2.3-.2-4.5-3.1-6.8s-7.2-1.9-7.6-1.4S137.7,17.9,140.7,20.1Z" transform="translate(-2.49 -6.29)"/><path class="cls-3" d="M137,44.5c2.7-2.6,3.2-5.9,1.8-6.8-2.2-1.3-4.5-.5-7.2,2.1s-2.9,6.8-2.5,7.3S134.4,47.2,137,44.5Z" transform="translate(-2.49 -6.29)"/><path class="cls-3" d="M142.6,43.7c0-3.7-2.1-6.4-3.7-6-2.5.6-3.4,2.9-3.4,6.7s3,6.8,3.7,6.8S142.8,47.3,142.6,43.7Z" transform="translate(-2.49 -6.29)"/><path class="cls-3" d="M271.4,35.5c2.1-3.1,1.8-6.5.2-7-2.4-.8-4.5.5-6.5,3.6s-1.3,7.3-.8,7.7S269.5,38.7,271.4,35.5Z" transform="translate(-2.49 -6.29)"/><path class="cls-3" d="M230.4,34.2c-2.8,2.5-3.4,5.8-2,6.7,2.1,1.4,4.5.6,7.3-1.9s3.1-6.7,2.7-7.3C237.9,31.3,233.1,31.6,230.4,34.2Z" transform="translate(-2.49 -6.29)"/><path class="cls-3" d="M173.3,42.8c3.6.8,6.7-.6,6.6-2.3-.1-2.5-2.1-4-5.8-4.8s-7.3,1.4-7.5,2.1S169.6,42.2,173.3,42.8Z" transform="translate(-2.49 -6.29)"/><path class="cls-3" d="M197.3,59c1.9-3.2,1.5-6.5-.2-7-2.4-.7-4.4.8-6.3,4s-.9,7.4-.3,7.7S195.6,62.3,197.3,59Z" transform="translate(-2.49 -6.29)"/><path class="cls-3" d="M246.4,20.1c3.6.8,6.7-.6,6.6-2.3-.1-2.5-2.1-4-5.8-4.8s-7.3,1.4-7.5,2.1S242.7,19.5,246.4,20.1Z" transform="translate(-2.49 -6.29)"/><path class="cls-3" d="M252.5,15.4c1.1,3.6,3.8,5.6,5.2,4.7,2.2-1.3,2.5-3.8,1.4-7.3s-4.8-5.7-5.4-5.5S251.3,11.9,252.5,15.4Z" transform="translate(-2.49 -6.29)"/><path class="cls-3" d="M165.5,19.6c1.5,3.4,4.4,5.1,5.8,4,2-1.6,2-4.1.5-7.5s-5.4-5.1-6.1-4.8S163.8,16.2,165.5,19.6Z" transform="translate(-2.49 -6.29)"/><path class="cls-3" d="M245.3,41.2c-2.8-2.5-6.1-2.7-6.9-1.2-1.2,2.3-.1,4.5,2.7,7s7.1,2.3,7.5,1.8S248.2,43.5,245.3,41.2Z" transform="translate(-2.49 -6.29)"/><path class="cls-3" d="M192.29,22.71c.6,3.7,3.1,6,4.6,5.3,2.3-1,2.9-3.5,2.3-7.1s-4.1-6.2-4.7-6.1S191.49,19.11,192.29,22.71Z" transform="translate(-2.49 -6.29)"/><path class="cls-2" d="M78.7,49.8" transform="translate(-2.49 -6.29)"/><path class="cls-2" d="M83.7,28.1a18.21,18.21,0,0,0-20.2,16A14.67,14.67,0,0,0,76.3,60.3,11.84,11.84,0,0,0,89.3,50a9.32,9.32,0,0,0-8.2-10.3" transform="translate(-2.49 -6.29)"/><path class="cls-3" d="M62.8,54.5c2.1-3.1,1.8-6.5.2-7-2.4-.8-4.5.5-6.5,3.6s-1.3,7.3-.8,7.7S60.9,57.7,62.8,54.5Z" transform="translate(-2.49 -6.29)"/><path class="cls-3" d="M83.3,54.5c3.6.8,6.7-.6,6.6-2.3-.1-2.5-2.1-4-5.8-4.8s-7.3,1.4-7.5,2.1C76.6,50.2,79.7,53.9,83.3,54.5Z" transform="translate(-2.49 -6.29)"/><path class="cls-3" d="M79.2,41.3c2.9,2.3,6.3,2.3,7,.8,1-2.3-.2-4.5-3.1-6.8s-7.2-1.9-7.6-1.4S76.2,39.2,79.2,41.3Z" transform="translate(-2.49 -6.29)"/><path class="cls-3" d="M89.5,44.3c-2,3.1-1.8,6.5-.2,7,2.4.8,4.5-.6,6.5-3.7s1.3-7.3.7-7.7S91.3,41.2,89.5,44.3Z" transform="translate(-2.49 -6.29)"/><path class="cls-3" d="M88.2,59.1c-3.4-1.4-6.7-.5-6.9,1.2-.3,2.5,1.4,4.3,4.9,5.7s7.4-.2,7.7-.8S91.6,60.3,88.2,59.1Z" transform="translate(-2.49 -6.29)"/><path class="cls-3" d="M114.43,35c2.88-2.34,3.66-5.6,2.26-6.65-2.08-1.46-4.47-.76-7.35,1.57s-3.34,6.62-2.91,7.14S111.69,37.53,114.43,35Z" transform="translate(-2.49 -6.29)"/><path class="cls-2" d="M127.33,28.07c-5.44,1.34-15.1-.72-17.1-5.89" transform="translate(-2.49 -6.29)"/><path class="cls-2" d="M111.63,24.51c-3.14-3.14-7.32-1.7-10.46,1.44" transform="translate(-2.49 -6.29)"/><path class="cls-3" d="M90.79,31.49c.36.63,4.51,1.57,7.77-.26s4.72-3.84,4-6.24c-.4-1.65-3.8-2.06-7-.23C92.32,26.38,90.43,30.86,90.79,31.49Z" transform="translate(-2.49 -6.29)"/><path class="cls-3" d="M111.5,9.72c-.73,0-3.85,2.8-4.27,6.51s.46,6.06,2.83,6.92c1.57.54,3.86-1.88,4.17-5.66C114.78,13.86,112.23,9.75,111.5,9.72Z" transform="translate(-2.49 -6.29)"/><path class="cls-3" d="M91.6,18c-.37.6,1,4.7,4.17,6.49s5.67,2.11,7.49.32c1.15-1.21-.13-4.29-3.37-6.17S92,17.4,91.6,18Z" transform="translate(-2.49 -6.29)"/><path class="cls-3" d="M277.1,24.8c2.2,3,5.4,3.9,6.5,2.6,1.6-2,1-4.4-1.2-7.4s-6.4-3.8-7-3.4S274.8,21.9,277.1,24.8Z" transform="translate(-2.49 -6.29)"/><path class="cls-1" d="M258.9,28.7a22.33,22.33,0,0,0-25.2-19,17.84,17.84,0,0,0-15.2,20.2,14.3,14.3,0,0,0,16.1,12.2,11.34,11.34,0,0,0,9.7-12.9A9.13,9.13,0,0,0,234,21.4" transform="translate(-2.49 -6.29)"/><path class="cls-1" d="M218.2,26.7a22.29,22.29,0,0,1-18.6,25.5,17.85,17.85,0,0,1-20.4-14.9" transform="translate(-2.49 -6.29)"/><path class="cls-1" d="M179.3,38.2a22.33,22.33,0,0,0-25.2-19,17.84,17.84,0,0,0-15.2,20.2" transform="translate(-2.49 -6.29)"/><path class="cls-2" d="M51.4,27.9c-5.6,0-14.5-4.3-15.2-9.8" transform="translate(-2.49 -6.29)"/><path class="cls-2" d="M37,20.7c-2.3-3.8-6.7-3.4-10.5-1.1" transform="translate(-2.49 -6.29)"/><path class="cls-3" d="M15.1,22.5c.2.7,4,2.6,7.6,1.6s5.5-2.6,5.4-5.1c0-1.7-3.2-2.9-6.8-1.9S14.9,21.9,15.1,22.5Z" transform="translate(-2.49 -6.29)"/><path class="cls-3" d="M2.5,39.4c.2.7,4,2.6,7.6,1.6s5.5-2.6,5.4-5.1c0-1.7-3.2-2.9-6.8-1.9C5.2,34.8,2.3,38.7,2.5,39.4Z" transform="translate(-2.49 -6.29)"/><path class="cls-3" d="M45.5,41c.7-.1,3.1-3.7,2.5-7.3s-1.9-5.8-4.5-6c-1.7-.1-3.3,2.8-2.7,6.5S44.9,41.2,45.5,41Z" transform="translate(-2.49 -6.29)"/><path class="cls-3" d="M32.3,38.7c.5.5,4.8.5,7.5-2s3.7-4.8,2.5-7.1c-.8-1.5-4.2-1.1-6.9,1.4S31.9,38.2,32.3,38.7Z" transform="translate(-2.49 -6.29)"/><path class="cls-3" d="M22.4,55.9c.3-.6-.8-4.7-4-6.7-3.1-1.8-5.6-2.2-7.4-.4C9.8,50,11,53.1,14.2,55,17.3,57.1,22.1,56.5,22.4,55.9Z" transform="translate(-2.49 -6.29)"/><path class="cls-3" d="M7.1,59.8c.7.1,4.3-2.1,5.2-5.8s.5-6.1-1.7-7.3c-1.5-.8-4.1,1.3-5,4.9C4.5,55.2,6.4,59.6,7.1,59.8Z" transform="translate(-2.49 -6.29)"/><path class="cls-3" d="M19.9,43.8c.7.1,4.3-2.1,5.2-5.8s.5-6.1-1.7-7.3c-1.5-.8-4.1,1.3-5,4.9C17.3,39.2,19.3,43.6,19.9,43.8Z" transform="translate(-2.49 -6.29)"/><path class="cls-3" d="M40.5,6.3c-.7-.2-4.4,1.8-5.7,5.3s-1,6,1.1,7.4c1.4.9,4.2-.9,5.4-4.5C42.7,11.1,41.1,6.5,40.5,6.3Z" transform="translate(-2.49 -6.29)"/><path class="cls-3" d="M19.2,9.7c-.5.5-.2,4.8,2.5,7.3s5,3.4,7.2,2.1c1.4-.9.9-4.2-1.8-6.8S19.6,9.1,19.2,9.7Z" transform="translate(-2.49 -6.29)"/><path class="cls-2" d="M159.8,19.2a7.51,7.51,0,0,0-8.3,6.5,6,6,0,0,0,5.2,6.6,4.81,4.81,0,0,0,5.3-4.2,3.82,3.82,0,0,0-3.4-4.2,3,3,0,0,0-3.4,2.7,2.39,2.39,0,0,0,2.1,2.7" transform="translate(-2.49 -6.29)"/><path class="cls-2" d="M63.5,46.2a7.43,7.43,0,0,1,8-6.9A5.89,5.89,0,0,1,77,45.7a4.79,4.79,0,0,1-5.1,4.4A3.75,3.75,0,0,1,68.4,46a3,3,0,0,1,3.3-2.8A2.52,2.52,0,0,1,74,45.8" transform="translate(-2.49 -6.29)"/><path class="cls-2" d="M42.1,24.8a7.4,7.4,0,0,0,10.2-2.7,6,6,0,0,0-2.2-8.2,4.73,4.73,0,0,0-6.5,1.7A3.78,3.78,0,0,0,45,20.8a3.09,3.09,0,0,0,4.2-1.1,2.33,2.33,0,0,0-.9-3.3" transform="translate(-2.49 -6.29)"/><path class="cls-2" d="M295,68.28a18.07,18.07,0,0,0,15.8-20c-1.5-12.3-14-20.1-26.4-20.1" transform="translate(-2.49 -6.29)"/><path class="cls-2" d="M332.1,45.52a18,18,0,0,1-24.7-6.2" transform="translate(-2.49 -6.29)"/><path class="cls-3" d="M316.34,70.38c.6-.4.7-4.7-1.7-7.5s-4.7-3.9-7-2.8c-1.5.7-1.2,4.1,1.2,6.9S315.74,70.78,316.34,70.38Z" transform="translate(-2.49 -6.29)"/><path class="cls-3" d="M342.84,51.18c.2-.7-2.1-4.3-5.7-5.2s-6.1-.5-7.3,1.7c-.8,1.4,1.3,4.1,4.9,5C338.34,53.78,342.64,51.88,342.84,51.18Z" transform="translate(-2.49 -6.29)"/><path class="cls-3" d="M342.34,38.88c-.4-.5-4.7-.9-7.6,1.4s-4.1,4.5-3.1,6.8c.7,1.5,4.1,1.5,7-.8S342.84,39.38,342.34,38.88Z" transform="translate(-2.49 -6.29)"/><path class="cls-3" d="M298.94,46.28c-.4.5.4,4.7,3.4,6.9s5.5,2.7,7.4,1.1c1.3-1.1.3-4.3-2.7-6.5S299.34,45.68,298.94,46.28Z" transform="translate(-2.49 -6.29)"/><path class="cls-3" d="M282.74,64.68c-.1.7,2.1,4.3,5.7,5.3s6.1.6,7.3-1.6c.8-1.5-1.2-4.1-4.8-5.1S282.94,64.08,282.74,64.68Z" transform="translate(-2.49 -6.29)"/><path class="cls-2" d="M301.84,18.48c-.7,5.5-9.6,9.8-15.2,9.8" transform="translate(-2.49 -6.29)"/><path class="cls-2" d="M311.54,20c-3.8-2.3-8.2-2.7-10.5,1.1" transform="translate(-2.49 -6.29)"/><path class="cls-3" d="M316.74,17.48c-3.6-1-6.8.2-6.8,1.9-.1,2.5,1.8,4.1,5.4,5.1s7.4-.9,7.6-1.6S320.24,18.28,316.74,17.48Z" transform="translate(-2.49 -6.29)"/><path class="cls-3" d="M296.84,14.88c1.2,3.6,4,5.4,5.4,4.5,2.1-1.4,2.4-3.9,1.1-7.4s-5-5.5-5.7-5.3S295.44,11.48,296.84,14.88Z" transform="translate(-2.49 -6.29)"/><path class="cls-3" d="M311,12.58c-2.7,2.6-3.2,5.9-1.8,6.8,2.2,1.3,4.5.4,7.2-2.1s3-6.8,2.5-7.3S313.64,10,311,12.58Z" transform="translate(-2.49 -6.29)"/><path class="cls-2" d="M318.6,37.35a2.52,2.52,0,0,1-.7,3.4,3.05,3.05,0,0,1-4.2-.9,3.85,3.85,0,0,1,1.1-5.3,4.71,4.71,0,0,1,6.6,1.3,6.06,6.06,0,0,1-1.7,8.3,7.43,7.43,0,0,1-10.3-2.1" transform="translate(-2.49 -6.29)"/></svg>