<?xml version="1.0" encoding="utf-8"?>
<!-- Generator: Adobe Illustrator 26.0.3, SVG Export Plug-In . SVG Version: 6.00 Build 0)  -->
<svg version="1.1" id="Capa_2_00000013877537378659432340000011525884070416681648_"
	 xmlns="http://www.w3.org/2000/svg" xmlns:xlink="http://www.w3.org/1999/xlink" x="0px" y="0px" viewBox="0 0 547.2 90.2"
	 style="enable-background:new 0 0 547.2 90.2;" xml:space="preserve">
<style type="text/css">
	.st0{fill:none;stroke:#67A580;stroke-width:2;stroke-miterlimit:10;}
	.st1{fill:none;stroke:#67A580;stroke-width:2;stroke-linecap:round;stroke-miterlimit:10;}
	.st2{fill:#67A580;}
</style>
<g>
	<line class="st0" x1="487" y1="28.2" x2="31.1" y2="28.2"/>
	<path class="st1" d="M181.6,50"/>
	<path class="st1" d="M186.6,28.3c-10-1.2-19,6-20.2,16c-0.9,8,4.8,15.2,12.8,16.2c6.4,0.7,12.2-3.8,12.9-10.2
		c0.6-5.1-3.1-9.7-8.2-10.3"/>
	<path class="st1" d="M35.2,28.3c-12.1-1.4-23.1,7.3-24.5,19.4"/>
	<path class="st2" d="M407.3,23.1c3.3-1.8,4.6-4.9,3.5-6.1c-1.7-1.8-4.2-1.6-7.5,0.2s-4.5,5.9-4.2,6.5
		C399.4,24.3,404.2,25.1,407.3,23.1z"/>
	<path class="st2" d="M423,27.5c3-2.2,3.9-5.4,2.6-6.5c-2-1.6-4.4-1-7.4,1.2s-3.7,6.4-3.4,7S420.1,29.8,423,27.5z"/>
	<path class="st2" d="M392.4,47.1c2.9,2.3,6.3,2.3,7,0.8c1-2.3-0.2-4.5-3.1-6.8s-7.2-1.9-7.6-1.4S389.4,44.9,392.4,47.1z"/>
	<path class="st2" d="M330.7,20.1c2.9,2.3,6.3,2.3,7,0.8c1-2.3-0.2-4.5-3.1-6.8s-7.2-1.9-7.6-1.4C326.5,13.2,327.7,17.9,330.7,20.1z
		"/>
	<path class="st2" d="M327,44.5c2.7-2.6,3.2-5.9,1.8-6.8c-2.2-1.3-4.5-0.5-7.2,2.1s-2.9,6.8-2.5,7.3C319.6,47.7,324.4,47.2,327,44.5
		z"/>
	<path class="st2" d="M332.6,43.7c0-3.7-2.1-6.4-3.7-6c-2.5,0.6-3.4,2.9-3.4,6.7s3,6.8,3.7,6.8C329.9,51.2,332.8,47.3,332.6,43.7z"
		/>
	<path class="st2" d="M461.4,35.5c2.1-3.1,1.8-6.5,0.2-7c-2.4-0.8-4.5,0.5-6.5,3.6s-1.3,7.3-0.8,7.7
		C454.9,40.2,459.5,38.7,461.4,35.5z"/>
	<path class="st2" d="M420.4,34.2c-2.8,2.5-3.4,5.8-2,6.7c2.1,1.4,4.5,0.6,7.3-1.9s3.1-6.7,2.7-7.3
		C427.9,31.3,423.1,31.6,420.4,34.2z"/>
	<path class="st1" d="M287.3,28.2c-12.4,0-24.9,7.8-26.4,20.1c-1.1,9.9,5.9,18.8,15.8,20"/>
	<path class="st1" d="M264.4,39.2c-5.1,8.5-16.1,11.3-24.7,6.2"/>
	<path class="st2" d="M262.9,67c2.4-2.8,2.7-6.2,1.2-6.9c-2.3-1.1-4.5,0-7,2.8c-2.4,2.8-2.3,7.1-1.7,7.5
		C256,70.8,260.6,69.9,262.9,67z"/>
	<path class="st2" d="M175.8,61.3c-1.5-3.4-4.4-5.1-5.7-4c-2,1.6-2,4.1-0.5,7.5c1.5,3.4,5.4,5.1,6.1,4.8S177.5,64.7,175.8,61.3z"/>
	<path class="st2" d="M148.8,75.9c2.4-2.8,2.7-6.2,1.2-6.9c-2.3-1.1-4.5,0-7,2.8c-2.4,2.8-2.3,7.1-1.7,7.5
		C141.7,79.8,146.5,78.8,148.8,75.9z"/>
	<path class="st2" d="M201.2,35.6c2.4-2.8,2.7-6.2,1.2-6.9c-2.3-1.1-4.5,0-7,2.8c-2.4,2.8-2.3,7.1-1.7,7.5
		C194.2,39.4,198.9,38.4,201.2,35.6z"/>
	<path class="st2" d="M162.5,66.1c-0.2-3.7-2.4-6.3-4-5.8c-2.4,0.8-3.3,3.1-3.1,6.8c0.2,3.7,3.3,6.6,4,6.6S162.9,69.8,162.5,66.1z"
		/>
	<path class="st2" d="M237,52.7c3.6-0.9,5.7-3.6,4.9-5c-1.2-2.2-3.7-2.6-7.3-1.7s-5.9,4.5-5.7,5.2S233.4,53.8,237,52.7z"/>
	<path class="st2" d="M363.3,42.8c3.6,0.8,6.7-0.6,6.6-2.3c-0.1-2.5-2.1-4-5.8-4.8c-3.6-0.8-7.3,1.4-7.5,2.1S359.6,42.2,363.3,42.8z
		"/>
	<path class="st2" d="M387.3,59c1.9-3.2,1.5-6.5-0.2-7c-2.4-0.7-4.4,0.8-6.3,4s-0.9,7.4-0.3,7.7C381.1,64.1,385.6,62.3,387.3,59z"/>
	<path class="st2" d="M436.4,20.1c3.6,0.8,6.7-0.6,6.6-2.3c-0.1-2.5-2.1-4-5.8-4.8s-7.3,1.4-7.5,2.1S432.7,19.5,436.4,20.1z"/>
	<path class="st2" d="M442.5,15.4c1.1,3.6,3.8,5.6,5.2,4.7c2.2-1.3,2.5-3.8,1.4-7.3c-1.1-3.6-4.8-5.7-5.4-5.5S441.3,11.9,442.5,15.4
		z"/>
	<path class="st2" d="M233.1,46.3c2.9,2.3,6.3,2.3,7,0.8c1-2.3-0.2-4.5-3.1-6.8c-2.9-2.3-7.2-1.9-7.6-1.4
		C228.9,39.4,230.1,44.1,233.1,46.3z"/>
	<path class="st2" d="M355.5,19.6c1.5,3.4,4.4,5.1,5.8,4c2-1.6,2-4.1,0.5-7.5s-5.4-5.1-6.1-4.8S353.8,16.2,355.5,19.6z"/>
	<path class="st2" d="M435.3,41.2c-2.8-2.5-6.1-2.7-6.9-1.2c-1.2,2.3-0.1,4.5,2.7,7c2.8,2.5,7.1,2.3,7.5,1.8
		C439.1,48.3,438.2,43.5,435.3,41.2z"/>
	<path class="st1" d="M166.8,41.4c-3.3,9.4-18.1,16.3-27.4,13"/>
	<path class="st2" d="M139.6,60.5c3.4-1.6,4.9-4.6,3.8-5.9c-1.6-1.9-4.1-1.8-7.5-0.2s-4.9,5.6-4.6,6.2
		C131.6,61.2,136.3,62.3,139.6,60.5z"/>
	<path class="st2" d="M137.4,54.7c3.3,1.7,6.6,1.1,7-0.6c0.5-2.5-1.1-4.4-4.4-6.1s-7.4-0.4-7.7,0.2C131.9,48.8,134,53.2,137.4,54.7z
		"/>
	<path class="st2" d="M154.4,48.9c3.3,1.7,6.6,1.1,7-0.6c0.5-2.5-1.1-4.4-4.4-6.1c-3.3-1.7-7.4-0.4-7.7,0.2
		C149,43,151.1,47.4,154.4,48.9z"/>
	<path class="st2" d="M145.8,27.7c3.3,1.7,6.6,1.1,7-0.6c0.5-2.5-1.1-4.4-4.4-6.1c-3.3-1.7-7.4-0.4-7.7,0.2
		C140.3,21.8,142.4,26.2,145.8,27.7z"/>
	<path class="st2" d="M149.6,23.6c0.6,3.7,3.1,6,4.6,5.3c2.3-1,2.9-3.5,2.3-7.1s-4.1-6.2-4.7-6.1C151.1,15.7,148.8,20,149.6,23.6z"
		/>
	<path class="st2" d="M264.7,47.8c-3,2.2-4,5.4-2.7,6.5c1.9,1.6,4.4,1.1,7.4-1.1s3.8-6.4,3.4-6.9C272.4,45.7,267.6,45.5,264.7,47.8z
		"/>
	<g>
		<path class="st1" d="M72.7,49.8"/>
		<path class="st1" d="M77.7,28.1c-10-1.2-19,6-20.2,16c-0.9,8,4.8,15.2,12.8,16.2c6.4,0.7,12.2-3.9,13-10.3
			c0.6-5.1-3.1-9.7-8.2-10.3"/>
		<path class="st2" d="M56.8,54.5c2.1-3.1,1.8-6.5,0.2-7c-2.4-0.8-4.5,0.5-6.5,3.6c-2.1,3.1-1.3,7.3-0.8,7.7S54.9,57.7,56.8,54.5z"
			/>
		<path class="st2" d="M77.3,54.5c3.6,0.8,6.7-0.6,6.6-2.3c-0.1-2.5-2.1-4-5.8-4.8c-3.6-0.8-7.3,1.4-7.5,2.1
			C70.6,50.2,73.7,53.9,77.3,54.5z"/>
		<path class="st2" d="M73.2,41.3c2.9,2.3,6.3,2.3,7,0.8c1-2.3-0.2-4.5-3.1-6.8s-7.2-1.9-7.6-1.4S70.2,39.2,73.2,41.3z"/>
		<path class="st2" d="M83.5,44.3c-2,3.1-1.8,6.5-0.2,7c2.4,0.8,4.5-0.6,6.5-3.7c2-3.1,1.3-7.3,0.7-7.7S85.3,41.2,83.5,44.3z"/>
		<path class="st2" d="M82.2,59.1c-3.4-1.4-6.7-0.5-6.9,1.2c-0.3,2.5,1.4,4.3,4.9,5.7s7.4-0.2,7.7-0.8
			C88.1,64.5,85.6,60.3,82.2,59.1z"/>
	</g>
	<path class="st2" d="M280.8,63.3c-3.6,1-5.6,3.6-4.8,5.1c1.2,2.2,3.7,2.6,7.3,1.6c3.6-1,5.8-4.6,5.7-5.3
		C288.8,64.1,284.4,62.2,280.8,63.3z"/>
	<path class="st2" d="M175.6,50.5c-3.6,1-5.6,3.6-4.8,5.1c1.2,2.2,3.7,2.6,7.3,1.6s5.8-4.6,5.7-5.3
		C183.6,51.2,179.1,49.4,175.6,50.5z"/>
	<path class="st2" d="M194.4,48.6c-3.3,1.8-4.6,4.8-3.5,6.1c1.7,1.9,4.2,1.6,7.5-0.2s4.6-5.9,4.3-6.5
		C202.3,47.5,197.5,46.7,194.4,48.6z"/>
	<path class="st2" d="M180.8,45.3c3.4-1.5,5-4.4,4-5.8c-1.6-2-4.1-2-7.5-0.5s-5,5.5-4.8,6.1C172.8,45.8,177.5,47,180.8,45.3z"/>
	<path class="st1" d="M157.1,52c2.8,7.6-1,16.1-8.6,18.9"/>
	<path class="st2" d="M105.8,28c3.3,1.7,6.6,1.1,7-0.6c0.5-2.5-1.1-4.4-4.4-6.1s-7.4-0.4-7.7,0.2C100.3,22.1,102.4,26.5,105.8,28z"
		/>
	<path class="st1" d="M285.1,28.3c-5.6,0-14.5-4.3-15.2-9.8"/>
	<path class="st1" d="M270.7,21.1c-2.3-3.8-6.7-3.4-10.5-1.1"/>
	<path class="st2" d="M248.8,22.9c0.2,0.7,4,2.6,7.6,1.6c3.6-1,5.5-2.6,5.4-5.1c0-1.7-3.2-2.9-6.8-1.9
		C251.5,18.3,248.6,22.2,248.8,22.9z"/>
	<path class="st2" d="M274.1,6.7c-0.7-0.2-4.4,1.8-5.7,5.3s-1,6,1.1,7.4c1.4,0.9,4.2-0.9,5.4-4.5C276.3,11.5,274.8,6.9,274.1,6.7z"
		/>
	<path class="st2" d="M252.8,10c-0.5,0.5-0.2,4.8,2.5,7.3s5,3.4,7.2,2.1c1.4-0.9,0.9-4.2-1.8-6.8C258.1,10,253.3,9.5,252.8,10z"/>
	<g>
		<path class="st2" d="M467.1,24.8c2.2,3,5.4,3.9,6.5,2.6c1.6-2,1-4.4-1.2-7.4s-6.4-3.8-7-3.4C464.9,17.1,464.8,21.9,467.1,24.8z"/>
	</g>
	<path class="st0" d="M448.9,28.7c-1.7-12.2-13-20.7-25.2-19c-9.8,1.4-16.6,10.4-15.2,20.2c1.1,7.8,8.3,13.3,16.1,12.2
		c6.3-0.9,10.6-6.6,9.7-12.9c-0.7-5-5.3-8.5-10.3-7.8"/>
	<path class="st0" d="M408.2,26.7c1.9,12.2-6.4,23.6-18.6,25.5c-9.7,1.5-18.9-5.1-20.4-14.9"/>
	<path class="st0" d="M369.3,38.2c-1.7-12.2-13-20.7-25.2-19c-9.8,1.4-16.6,10.4-15.2,20.2"/>
	<path class="st1" d="M51.4,27.9c-5.6,0-14.5-4.3-15.2-9.8"/>
	<path class="st1" d="M37,20.7c-2.3-3.8-6.7-3.4-10.5-1.1"/>
	<path class="st2" d="M15.1,22.5c0.2,0.7,4,2.6,7.6,1.6s5.5-2.6,5.4-5.1c0-1.7-3.2-2.9-6.8-1.9C17.8,18,14.9,21.9,15.1,22.5z"/>
	<path class="st2" d="M2.5,39.4c0.2,0.7,4,2.6,7.6,1.6s5.5-2.6,5.4-5.1c0-1.7-3.2-2.9-6.8-1.9C5.2,34.8,2.3,38.7,2.5,39.4z"/>
	<path class="st2" d="M45.5,41c0.7-0.1,3.1-3.7,2.5-7.3c-0.6-3.7-1.9-5.8-4.5-6c-1.7-0.1-3.3,2.8-2.7,6.5
		C41.3,37.8,44.9,41.2,45.5,41z"/>
	<path class="st2" d="M32.3,38.7c0.5,0.5,4.8,0.5,7.5-2s3.7-4.8,2.5-7.1c-0.8-1.5-4.2-1.1-6.9,1.4C32.6,33.4,31.9,38.2,32.3,38.7z"
		/>
	<path class="st2" d="M22.4,55.9c0.3-0.6-0.8-4.7-4-6.7c-3.1-1.8-5.6-2.2-7.4-0.4c-1.2,1.2,0,4.3,3.2,6.2
		C17.3,57.1,22.1,56.5,22.4,55.9z"/>
	<path class="st2" d="M7.1,59.8c0.7,0.1,4.3-2.1,5.2-5.8c0.9-3.6,0.5-6.1-1.7-7.3c-1.5-0.8-4.1,1.3-5,4.9
		C4.5,55.2,6.4,59.6,7.1,59.8z"/>
	<path class="st2" d="M19.9,43.8c0.7,0.1,4.3-2.1,5.2-5.8c0.9-3.6,0.5-6.1-1.7-7.3c-1.5-0.8-4.1,1.3-5,4.9
		C17.3,39.2,19.3,43.6,19.9,43.8z"/>
	<path class="st2" d="M40.5,6.3c-0.7-0.2-4.4,1.8-5.7,5.3c-1.2,3.5-1,6,1.1,7.4c1.4,0.9,4.2-0.9,5.4-4.5
		C42.7,11.1,41.1,6.5,40.5,6.3z"/>
	<path class="st2" d="M19.2,9.7c-0.5,0.5-0.2,4.8,2.5,7.3s5,3.4,7.2,2.1c1.4-0.9,0.9-4.2-1.8-6.8C24.5,9.7,19.6,9.1,19.2,9.7z"/>
	<path class="st1" d="M262.6,41.8c-2.3,3.4-6.9,4.4-10.3,2.1c-2.7-1.8-3.5-5.5-1.7-8.3c1.5-2.2,4.4-2.8,6.6-1.3
		c1.8,1.2,2.2,3.5,1.1,5.3c-0.9,1.4-2.8,1.8-4.2,0.9c-1.1-0.7-1.4-2.3-0.7-3.4"/>
	<path class="st1" d="M349.8,19.2c-4.1-0.5-7.8,2.5-8.3,6.5c-0.4,3.3,2,6.2,5.2,6.6c2.6,0.3,5-1.6,5.3-4.2c0.2-2.1-1.3-4-3.4-4.2
		c-1.7-0.2-3.2,1-3.4,2.7c-0.2,1.3,0.8,2.6,2.1,2.7"/>
	<path class="st1" d="M57.5,46.2c0.3-4.1,3.8-7.2,8-6.9c3.3,0.2,5.8,3.1,5.5,6.4c-0.2,2.6-2.5,4.6-5.1,4.4c-2.1-0.1-3.7-2-3.5-4.1
		c0.1-1.7,1.6-3,3.3-2.8c1.3,0.1,2.4,1.3,2.3,2.6"/>
	<path class="st1" d="M42.1,24.8c3.6,2.1,8.1,0.9,10.2-2.7c1.7-2.8,0.7-6.5-2.2-8.2c-2.3-1.3-5.2-0.6-6.5,1.7
		c-1.1,1.8-0.4,4.2,1.4,5.2c1.5,0.8,3.3,0.4,4.2-1.1c0.7-1.2,0.3-2.7-0.9-3.3"/>
</g>
<g>
	<path class="st1" d="M497.3,68.3c9.9-1.2,16.9-10.1,15.8-20c-1.5-12.3-14-20.1-26.4-20.1"/>
	<path class="st1" d="M534.4,45.5c-8.6,5.1-19.6,2.3-24.7-6.2"/>
	<path class="st2" d="M518.6,70.4c0.6-0.4,0.7-4.7-1.7-7.5c-2.5-2.8-4.7-3.9-7-2.8c-1.5,0.7-1.2,4.1,1.2,6.9
		C513.4,69.9,518,70.8,518.6,70.4z"/>
	<path class="st2" d="M545.1,51.2c0.2-0.7-2.1-4.3-5.7-5.2c-3.6-0.9-6.1-0.5-7.3,1.7c-0.8,1.4,1.3,4.1,4.9,5
		C540.6,53.8,544.9,51.9,545.1,51.2z"/>
	<path class="st2" d="M544.6,38.9c-0.4-0.5-4.7-0.9-7.6,1.4s-4.1,4.5-3.1,6.8c0.7,1.5,4.1,1.5,7-0.8
		C543.9,44.1,545.1,39.4,544.6,38.9z"/>
	<path class="st2" d="M501.2,46.3c-0.4,0.5,0.4,4.7,3.4,6.9s5.5,2.7,7.4,1.1c1.3-1.1,0.3-4.3-2.7-6.5
		C506.4,45.5,501.6,45.7,501.2,46.3z"/>
	<path class="st2" d="M485,64.7c-0.1,0.7,2.1,4.3,5.7,5.3c3.6,1,6.1,0.6,7.3-1.6c0.8-1.5-1.2-4.1-4.8-5.1
		C489.6,62.2,485.2,64.1,485,64.7z"/>
	<path class="st1" d="M504.1,18.5c-0.7,5.5-9.6,9.8-15.2,9.8"/>
	<path class="st1" d="M513.8,20c-3.8-2.3-8.2-2.7-10.5,1.1"/>
	<path class="st2" d="M519,17.5c-3.6-1-6.8,0.2-6.8,1.9c-0.1,2.5,1.8,4.1,5.4,5.1c3.6,1,7.4-0.9,7.6-1.6
		C525.4,22.2,522.5,18.3,519,17.5z"/>
	<path class="st2" d="M499.1,14.9c1.2,3.6,4,5.4,5.4,4.5c2.1-1.4,2.4-3.9,1.1-7.4s-5-5.5-5.7-5.3C499.2,6.9,497.7,11.5,499.1,14.9z"
		/>
	<path class="st2" d="M513.3,12.6c-2.7,2.6-3.2,5.9-1.8,6.8c2.2,1.3,4.5,0.4,7.2-2.1s3-6.8,2.5-7.3S515.9,10,513.3,12.6z"/>
	<path class="st1" d="M520.9,37.4c0.7,1.1,0.4,2.7-0.7,3.4c-1.4,0.9-3.3,0.5-4.2-0.9c-1.1-1.8-0.7-4.1,1.1-5.3
		c2.2-1.5,5.1-0.9,6.6,1.3c1.8,2.8,1,6.5-1.7,8.3c-3.4,2.3-8,1.3-10.3-2.1"/>
</g>
</svg>
