<?xml version="1.0" encoding="utf-8"?>
<!-- Generator: Adobe Illustrator 26.0.3, SVG Export Plug-In . SVG Version: 6.00 Build 0)  -->
<svg version="1.1" id="Capa_1" xmlns="http://www.w3.org/2000/svg" xmlns:xlink="http://www.w3.org/1999/xlink" x="0px" y="0px"
	 viewBox="0 0 1174.9 90.2" style="enable-background:new 0 0 1174.9 90.2;" xml:space="preserve">
<style type="text/css">
	.st0{fill:none;stroke:#67A580;stroke-width:2;stroke-miterlimit:10;}
	.st1{fill:none;stroke:#67A580;stroke-width:2;stroke-linecap:round;stroke-miterlimit:10;}
	.st2{fill:#67A580;}
</style>
<g>
	<line class="st0" x1="31.4" y1="28.4" x2="1174.6" y2="28.4"/>
	<path class="st1" d="M882.8,50.2C882.8,50.2,882.8,50.2,882.8,50.2c-1.4-0.2-2.3-1.4-2.2-2.7c0.2-1.7,1.7-2.9,3.4-2.7c0,0,0,0,0,0
		c2.1,0.2,3.6,2.1,3.4,4.2c-0.3,2.6-2.7,4.5-5.3,4.2c-3.3-0.4-5.6-3.4-5.2-6.6c0,0,0,0,0,0c0.5-4.1,4.2-7,8.3-6.6c0,0,0,0,0,0
		c5.1,0.6,8.8,5.2,8.2,10.4c0,0,0,0,0,0c-0.7,6.4-6.5,11-12.9,10.2c0,0,0,0-0.1,0c-8-0.9-13.7-8.2-12.7-16.2
		c1.2-10,10.2-17.2,20.2-16"/>
	<path class="st1" d="M766.9,46.6C766.9,46.6,766.9,46.6,766.9,46.6c0.5-4.1,4.2-7,8.3-6.6c5.1,0.6,8.8,5.2,8.2,10.4
		c-0.7,6.4-6.5,11-12.9,10.2c0,0,0,0-0.1,0c-8-0.9-13.7-8.2-12.7-16.2c1.2-10,10.2-17.2,20.2-16"/>
	<path class="st1" d="M722.4,68.3C722.4,68.3,722.4,68.3,722.4,68.3c-9.9-1.2-17-10.1-15.8-20c0,0,0,0,0,0
		c1.4-12.3,12.6-21.2,25-19.7"/>
	<path class="st1" d="M516.9,41.9c5.9,0.7,10.1,6,9.4,11.9c-0.9,7.4-7.5,12.7-14.9,11.8c-9.2-1.1-15.8-9.4-14.8-18.6c0,0,0,0,0,0
		c1.3-11.5,11.8-19.8,23.3-18.4"/>
	<path class="st1" d="M182,50.2"/>
	<path class="st1" d="M184.3,40.1C184.3,40.1,184.3,40.1,184.3,40.1c5.1,0.6,8.8,5.2,8.2,10.4c0,0,0,0,0,0
		c-0.7,6.4-6.5,11-12.9,10.2c-8-0.9-13.7-8.2-12.8-16.2c1.2-10,10.2-17.2,20.2-16"/>
	<path class="st1" d="M10.9,47.9c1.4-12.1,12.4-20.8,24.5-19.4"/>
	<path class="st1" d="M840.9,68.8C840.9,68.8,840.9,68.8,840.9,68.8c3.9,7.1,12.7,9.7,19.7,5.9c8.9-4.8,12.1-15.9,7.4-24.7"/>
	<path class="st1" d="M685,44.9C685,44.9,685,44.9,685,44.9c8.5,5.1,19.6,2.3,24.7-6.2"/>
	<path class="st2" d="M831.8,61.6c0.5-0.5,4.8-0.4,7.4,2.2s3.6,4.9,2.4,7.1c-0.8,1.5-4.2,1.1-6.8-1.6
		C832,66.9,831.3,62.1,831.8,61.6z"/>
	<path class="st2" d="M842.8,56.5c0.7,0.1,3.5,3.3,3.3,7c-0.2,3.7-1.3,6-3.8,6.5c-1.7,0.3-3.6-2.4-3.4-6.2
		C838.9,60.2,842.1,56.5,842.8,56.5z"/>
	<path class="st2" d="M859.5,60.8c-0.5-0.5-0.7-4.8,1.7-7.6c2.4-2.8,4.7-3.9,7-2.8c1.5,0.8,1.3,4.1-1.1,6.9
		C864.7,60.3,860,61.3,859.5,60.8z"/>
	<path class="st2" d="M858.2,39c-0.2-0.7,2-4.3,5.6-5.4c3.6-1,6.1-0.7,7.3,1.5c0.8,1.5-1.2,4.1-4.8,5.2
		C862.9,41.4,858.4,39.7,858.2,39z"/>
	<path class="st2" d="M825.9,39c-0.5-0.5-0.7-4.7,1.8-7.6c2.4-2.8,4.7-3.9,7-2.8c1.5,0.8,1.3,4.1-1.2,6.9
		C831.2,38.5,826.4,39.4,825.9,39z"/>
	<path class="st2" d="M701.1,70.3c-0.5-0.5-0.7-4.7,1.7-7.6c2.4-2.8,4.7-3.9,7-2.8c1.5,0.8,1.3,4.1-1.1,6.9
		C706.3,69.7,701.6,70.7,701.1,70.3z"/>
	<path class="st2" d="M674.5,51.1c-0.2-0.7,2.2-4.3,5.7-5.2c3.6-0.9,6.1-0.5,7.3,1.7c0.8,1.5-1.3,4.1-4.9,5
		C679.1,53.7,674.7,51.8,674.5,51.1z"/>
	<path class="st2" d="M675,38.8c0.4-0.5,4.7-0.9,7.6,1.4c2.9,2.3,4.1,4.5,3.1,6.8c-0.7,1.5-4,1.5-7-0.8
		C675.7,44,674.5,39.3,675,38.8z"/>
	<path class="st2" d="M687.9,18.5c0.4-0.5,4.7-0.9,7.6,1.4s4.1,4.5,3.1,6.8c-0.7,1.5-4,1.5-7-0.8C688.6,23.8,687.4,19.1,687.9,18.5z
		"/>
	<path class="st2" d="M532.8,19.8c0.4-0.5,4.7-0.9,7.6,1.4s4.1,4.5,3.1,6.8c-0.7,1.5-4,1.5-7-0.8C533.6,25,532.4,20.3,532.8,19.8z"
		/>
	<path class="st2" d="M544.4,15.4c0.6,0.2,2.5,4.1,1.3,7.6c-1.1,3.5-2.8,5.4-5.3,5.3c-1.7-0.1-2.8-3.3-1.7-6.8
		C539.7,17.9,543.8,15.1,544.4,15.4z"/>
	<path class="st2" d="M859.8,18.5c0.5-0.5,4.7-0.9,7.6,1.4s4.1,4.5,3.1,6.8c-0.7,1.5-4,1.5-7-0.8C860.6,23.8,859.3,19.1,859.8,18.5z
		"/>
	<path class="st2" d="M1042.2,18.5c0.5-0.5,4.7-0.9,7.6,1.4c2.9,2.3,4.1,4.5,3.1,6.8c-0.7,1.5-4,1.5-7-0.8
		C1043,23.8,1041.7,19.1,1042.2,18.5z"/>
	<path class="st2" d="M1099.9,20c0.4-0.6,4.5-1.6,7.8,0.3c3.2,1.9,4.7,3.9,4,6.3c-0.5,1.6-3.8,2-7,0.2
		C1101.4,25,1099.5,20.6,1099.9,20z"/>
	<path class="st2" d="M1066.9,16.2c0-0.7,3.1-3.7,6.8-3.7c3.7,0,6,0.9,6.7,3.4c0.4,1.6-2.2,3.7-6,3.7
		C1070.8,19.8,1066.9,16.9,1066.9,16.2z"/>
	<path class="st2" d="M1051.7,15.6c0.7-0.1,4.2,2.2,5.1,5.9c0.8,3.6,0.4,6.1-1.8,7.3c-1.5,0.8-4.1-1.4-4.9-5
		C1049,20.1,1051,15.7,1051.7,15.6z"/>
	<path class="st2" d="M1030.7,37.9c-0.4-0.6-0.1-4.8,2.7-7.3c2.8-2.5,5.2-3.3,7.3-1.8c1.4,1,0.7,4.3-2,6.7
		C1035.9,38.1,1031.1,38.5,1030.7,37.9z"/>
	<path class="st2" d="M1094.7,54.4c-0.5-0.5-1-4.7,1.2-7.7c2.2-3,4.4-4.3,6.7-3.3c1.6,0.6,1.6,4-0.6,7
		C1099.9,53.5,1095.2,54.9,1094.7,54.4z"/>
	<path class="st2" d="M1113.3,33.4c-0.4-0.6-0.1-4.8,2.7-7.3s5.2-3.3,7.3-1.8c1.4,1,0.7,4.3-2,6.7
		C1118.6,33.6,1113.8,34,1113.3,33.4z"/>
	<path class="st2" d="M1144.3,37.9c-0.4-0.6-0.1-4.8,2.7-7.3s5.2-3.3,7.3-1.8c1.4,1,0.7,4.3-2,6.7
		C1149.6,38.1,1144.7,38.5,1144.3,37.9z"/>
	<path class="st2" d="M923.7,40c-0.6-0.3-2.1-4.3-0.5-7.7c1.5-3.4,3.3-5.1,5.9-4.7c1.7,0.3,2.4,3.6,0.9,7
		C928.6,38,924.4,40.3,923.7,40z"/>
	<path class="st2" d="M906.8,38c-0.5-0.5-0.5-4.8,2.1-7.5s4.9-3.7,7.1-2.4c1.5,0.8,1.1,4.2-1.4,6.9C912.1,37.8,907.3,38.5,906.8,38z
		"/>
	<path class="st2" d="M917.4,18.7c0.4-0.5,4.7-0.9,7.6,1.4s4.1,4.5,3.1,6.8c-0.7,1.5-4,1.5-7-0.8C918.2,23.9,917,19.2,917.4,18.7z"
		/>
	<path class="st2" d="M747.1,33.9c0.4-0.5,4.7-0.9,7.6,1.4c2.9,2.3,4.1,4.5,3.1,6.8c-0.7,1.5-4,1.5-7-0.8
		C747.8,39.1,746.6,34.4,747.1,33.9z"/>
	<path class="st2" d="M769.1,56.2c-0.7,0-3.6-3.1-3.7-6.8c0-3.7,1-6,3.4-6.7c1.6-0.4,3.7,2.2,3.7,6
		C772.7,52.4,769.8,56.3,769.1,56.2z"/>
	<path class="st2" d="M794.6,53.4c0,0.6-2.9,3.8-6.6,4c-3.7,0.2-6.1-0.6-6.9-3c-0.5-1.6,2-3.8,5.7-4C790.5,50,794.6,52.7,794.6,53.4
		z"/>
	<path class="st2" d="M854.8,86.2c-0.6-0.4-1.4-4.6,0.6-7.7s4-4.6,6.5-3.8c1.6,0.6,1.9,3.9-0.1,7C859.9,84.9,855.4,86.6,854.8,86.2z
		"/>
	<path class="st2" d="M889.4,70.8c-0.6,0.4-4.8-0.4-7-3.4c-2.2-3-2.7-5.5-1.1-7.4c1.1-1.3,4.3-0.3,6.5,2.7
		C890.1,65.6,889.9,70.4,889.4,70.8z"/>
	<path class="st2" d="M718.5,46.1c0.4,0.6-0.4,4.8-3.5,7c-3,2.2-5.5,2.7-7.4,1.1c-1.3-1.1-0.3-4.3,2.7-6.5
		C713.3,45.4,718.2,45.5,718.5,46.1z"/>
	<path class="st2" d="M734.7,64.7c0.2,0.7-2.1,4.3-5.7,5.3c-3.6,0.9-6.1,0.6-7.3-1.6c-0.8-1.5,1.2-4.1,4.8-5.1
		C730.1,62.1,734.5,64,734.7,64.7z"/>
	<path class="st2" d="M399.7,23.9c-0.3-0.6,1-4.7,4.2-6.5c3.3-1.8,5.7-2,7.5-0.2c1.2,1.3-0.2,4.3-3.5,6.1
		C404.8,25.2,400,24.4,399.7,23.9z"/>
	<path class="st2" d="M415.5,29.4c-0.4-0.5,0.4-4.8,3.4-7s5.4-2.8,7.4-1.2c1.3,1,0.4,4.3-2.6,6.5C420.7,30,415.9,29.9,415.5,29.4z"
		/>
	<path class="st2" d="M389.3,39.9c0.4-0.5,4.7-0.9,7.6,1.4c2.9,2.3,4.1,4.5,3.1,6.8c-0.7,1.5-4,1.5-7-0.8
		C390,45.1,388.8,40.4,389.3,39.9z"/>
	<path class="st2" d="M327.5,12.9c0.4-0.5,4.7-0.9,7.6,1.4c2.9,2.3,4.1,4.5,3.1,6.8c-0.7,1.5-4,1.5-7-0.8
		C328.3,18.1,327,13.4,327.5,12.9z"/>
	<path class="st2" d="M319.8,47.4c-0.5-0.5-0.3-4.8,2.4-7.4s5-3.4,7.2-2.1c1.4,0.9,0.9,4.2-1.8,6.8C325,47.4,320.3,47.9,319.8,47.4z
		"/>
	<path class="st2" d="M329.7,51.4c-0.7,0-3.7-3.1-3.7-6.8s1-6,3.4-6.7c1.6-0.4,3.7,2.2,3.7,6C333.3,47.5,330.4,51.4,329.7,51.4z"/>
	<path class="st2" d="M489.3,54c-0.6-0.4-1.3-4.6,0.8-7.7s4.1-4.5,6.6-3.6c1.6,0.5,1.8,3.9-0.2,7C494.5,52.8,489.9,54.4,489.3,54z"
		/>
	<path class="st2" d="M455,40c-0.6-0.4-1.3-4.6,0.8-7.7c2.1-3.1,4.1-4.5,6.5-3.6c1.6,0.5,1.8,3.9-0.2,7
		C460.2,38.8,455.6,40.5,455,40z"/>
	<path class="st2" d="M513.3,51.1c0.5-0.5,4.8-0.2,7.3,2.5c2.6,2.7,3.4,5.1,2.1,7.2c-0.9,1.4-4.2,0.9-6.8-1.8
		C513.2,56.4,512.8,51.5,513.3,51.1z"/>
	<path class="st2" d="M429,32c0.4,0.5,0.1,4.8-2.7,7.3s-5.2,3.3-7.3,1.9c-1.4-0.9-0.8-4.2,2-6.7C423.7,31.8,428.6,31.5,429,32z"/>
	<path class="st2" d="M536.5,48.5c0.4,0.5,0.1,4.8-2.7,7.3s-5.2,3.3-7.3,1.9c-1.4-0.9-0.8-4.2,2-6.7C531.2,48.4,536,48,536.5,48.5z"
		/>
	<path class="st2" d="M514.9,34.5c0.5-0.5,4.8-0.2,7.4,2.5s3.4,5.1,2.1,7.2c-0.9,1.4-4.2,0.9-6.8-1.8
		C514.9,39.8,514.4,34.9,514.9,34.5z"/>
	<path class="st2" d="M511.1,41.4c0.2-0.7,4-2.7,7.6-1.8c3.6,1,5.5,2.5,5.5,5c0,1.7-3.1,3-6.7,2C513.8,46,510.9,42.1,511.1,41.4z"/>
	<path class="st1" d="M277.2,68.6C277.2,68.6,277.2,68.6,277.2,68.6c-9.9-1.2-17-10.1-15.8-20c1.4-12.4,14-20.2,26.4-20.2"/>
	<path class="st1" d="M239.8,45.3C239.8,45.3,239.8,45.3,239.8,45.3c8.5,5.1,19.6,2.3,24.7-6.2"/>
	<path class="st2" d="M255.9,70.6c-0.5-0.5-0.7-4.7,1.7-7.6c2.4-2.8,4.7-3.9,7-2.8c1.5,0.8,1.3,4.1-1.1,6.9
		C261.1,70.1,256.4,71,255.9,70.6z"/>
	<path class="st2" d="M176,69.8c-0.6,0.2-4.6-1.4-6.1-4.8c-1.5-3.4-1.5-5.9,0.5-7.5c1.3-1,4.3,0.6,5.8,4
		C177.8,64.9,176.6,69.6,176,69.8z"/>
	<path class="st2" d="M141.6,79.6c-0.5-0.5-0.7-4.7,1.8-7.6c2.4-2.8,4.7-3.9,7-2.8c1.5,0.8,1.3,4.1-1.2,6.9
		C146.9,79.1,142.1,80.1,141.6,79.6z"/>
	<path class="st2" d="M194.1,39.2c-0.5-0.5-0.7-4.7,1.7-7.6s4.7-3.9,7-2.8c1.5,0.8,1.3,4.1-1.1,6.9
		C199.3,38.6,194.6,39.6,194.1,39.2z"/>
	<path class="st2" d="M159.8,74c-0.7,0-3.9-2.9-4-6.6c-0.2-3.7,0.6-6,3.1-6.8c1.6-0.5,3.8,2.1,4,5.8C163.3,70,160.5,74,159.8,74z"/>
	<path class="st2" d="M229.3,51.4c-0.2-0.7,2.2-4.3,5.7-5.2c3.6-0.9,6.1-0.5,7.3,1.7c0.9,1.5-1.2,4.1-4.8,5
		C233.9,54,229.4,52.1,229.3,51.4z"/>
	<path class="st2" d="M357.2,38c0.2-0.7,3.8-2.9,7.5-2.1s5.7,2.2,5.8,4.8c0.1,1.7-3,3.1-6.6,2.3C360.2,42.4,357,38.7,357.2,38z"/>
	<path class="st2" d="M381.1,64c-0.6-0.4-1.6-4.5,0.3-7.8c1.9-3.2,3.9-4.7,6.3-4c1.6,0.5,2,3.8,0.2,7
		C386.2,62.5,381.7,64.4,381.1,64z"/>
	<path class="st2" d="M430.4,15.2c0.2-0.7,3.8-2.9,7.5-2.1c3.7,0.8,5.7,2.3,5.8,4.8c0.1,1.7-3,3.1-6.6,2.3
		C433.4,19.6,430.2,15.9,430.4,15.2z"/>
	<path class="st2" d="M444.3,7.4c0.7-0.2,4.4,2,5.4,5.6s0.8,6.1-1.4,7.4c-1.4,0.9-4.2-1.1-5.2-4.7C441.9,12.1,443.7,7.5,444.3,7.4z"
		/>
	<path class="st2" d="M229.7,39.1c0.4-0.5,4.7-0.9,7.6,1.4c2.9,2.3,4.1,4.5,3.1,6.8c-0.7,1.5-4,1.5-7-0.8
		C230.5,44.3,229.3,39.6,229.7,39.1z"/>
	<path class="st2" d="M356.2,11.4c0.6-0.2,4.6,1.4,6.1,4.8s1.5,5.9-0.5,7.5c-1.3,1-4.3-0.6-5.8-4C354.4,16.4,355.6,11.7,356.2,11.4z
		"/>
	<path class="st2" d="M439.2,49c-0.5,0.5-4.7,0.7-7.5-1.8s-3.9-4.7-2.7-7c0.8-1.5,4.1-1.3,6.9,1.2C438.8,43.7,439.7,48.5,439.2,49z"
		/>
	<path class="st1" d="M139.7,54.6c9.4,3.3,24.2-3.6,27.5-13"/>
	<path class="st2" d="M131.7,60.8c-0.2-0.6,1.2-4.6,4.6-6.2c3.4-1.6,5.9-1.7,7.5,0.2c1.1,1.3-0.5,4.3-3.8,5.9
		C136.7,62.5,131.9,61.5,131.7,60.8z"/>
	<path class="st2" d="M132.6,48.4c0.3-0.6,4.4-1.8,7.8-0.2c3.3,1.7,4.9,3.6,4.4,6.1c-0.4,1.7-3.7,2.3-7,0.6
		C134.4,53.4,132.3,49,132.6,48.4z"/>
	<path class="st2" d="M149.7,42.6c0.3-0.6,4.4-1.8,7.8-0.2c3.3,1.7,4.9,3.6,4.4,6.1c-0.4,1.6-3.7,2.3-7,0.6
		C151.4,47.6,149.3,43.2,149.7,42.6z"/>
	<path class="st2" d="M141,21.4c0.3-0.6,4.4-1.8,7.8-0.2c3.3,1.7,4.9,3.6,4.4,6.1c-0.4,1.6-3.7,2.3-7,0.6
		C142.8,26.4,140.7,22,141,21.4z"/>
	<path class="st2" d="M152.1,15.8c0.7-0.1,4.1,2.5,4.7,6.1c0.6,3.7,0,6.1-2.3,7.1c-1.5,0.7-4-1.6-4.6-5.3
		C149.2,20.2,151.4,15.9,152.1,15.8z"/>
	<path class="st2" d="M273.3,46.4c0.4,0.6-0.4,4.8-3.5,6.9c-3,2.2-5.5,2.7-7.4,1.1c-1.3-1.1-0.3-4.3,2.7-6.5
		C268.1,45.7,272.9,45.9,273.3,46.4z"/>
	<path class="st1" d="M73,50"/>
	<path class="st1" d="M75.4,39.9c5.1,0.6,8.8,5.2,8.2,10.3c-0.7,6.4-6.5,11-12.9,10.2c0,0,0,0-0.1,0c-8-0.9-13.7-8.2-12.7-16.2
		C59,34.3,68,27.1,78,28.3"/>
	<path class="st2" d="M50,59.1c-0.6-0.4-1.3-4.6,0.8-7.7s4.1-4.4,6.6-3.6c1.6,0.5,1.8,3.9-0.2,7C55.2,57.9,50.6,59.5,50,59.1z"/>
	<path class="st2" d="M71,49.7c0.2-0.7,3.8-2.9,7.5-2.1c3.6,0.8,5.7,2.2,5.8,4.8c0.1,1.7-3,3.1-6.6,2.3C74,54.1,70.8,50.4,71,49.7z"
		/>
	<path class="st2" d="M69.7,34.2c0.4-0.5,4.7-0.9,7.6,1.4c2.9,2.3,4.1,4.5,3.1,6.8c-0.7,1.5-4,1.5-7-0.8
		C70.5,39.4,69.3,34.7,69.7,34.2z"/>
	<path class="st2" d="M90.8,40.2c0.6,0.4,1.3,4.6-0.7,7.7c-2,3.1-4.1,4.5-6.5,3.7c-1.6-0.5-1.8-3.9,0.2-7
		C85.6,41.4,90.2,39.8,90.8,40.2z"/>
	<path class="st2" d="M88.1,65.3c-0.3,0.6-4.3,2.2-7.7,0.8c-3.4-1.4-5.2-3.1-4.8-5.7c0.2-1.7,3.5-2.6,6.9-1.2
		C85.9,60.5,88.3,64.6,88.1,65.3z"/>
	<path class="st2" d="M289.5,65c0.2,0.7-2.1,4.3-5.7,5.3c-3.6,1-6.1,0.6-7.3-1.6c-0.8-1.5,1.3-4.1,4.8-5.1
		C284.8,62.5,289.3,64.3,289.5,65z"/>
	<path class="st2" d="M184.1,52.1c0.2,0.7-2.1,4.3-5.7,5.3s-6,0.6-7.3-1.6c-0.8-1.5,1.3-4.1,4.8-5.1
		C179.5,49.6,183.9,51.4,184.1,52.1z"/>
	<path class="st2" d="M203,48.3c0.3,0.6-1,4.7-4.3,6.5c-3.3,1.8-5.8,2-7.5,0.2c-1.1-1.2,0.2-4.3,3.5-6.1
		C197.9,46.9,202.7,47.7,203,48.3z"/>
	<path class="st2" d="M172.9,45.4c-0.3-0.6,1.3-4.6,4.8-6.1s5.9-1.5,7.5,0.5c1,1.3-0.6,4.3-4,5.8C177.9,47.2,173.2,46,172.9,45.4z"
		/>
	<path class="st1" d="M148.8,71.2c7.6-2.8,11.5-11.3,8.6-18.9"/>
	<path class="st2" d="M101,21.7c0.3-0.6,4.4-1.8,7.8-0.2c3.3,1.7,4.9,3.6,4.4,6.1c-0.4,1.6-3.7,2.3-7,0.6
		C102.7,26.7,100.6,22.3,101,21.7z"/>
	<path class="st1" d="M270.3,18.7c0.7,5.6,9.6,9.8,15.2,9.8"/>
	<path class="st1" d="M260.7,20.1c3.8-2.3,8.2-2.7,10.5,1.1"/>
	<path class="st2" d="M255.5,17.6c3.6-1,6.7,0.2,6.8,1.9c0.1,2.5-1.9,4.1-5.4,5.1c-3.6,1-7.4-1-7.6-1.6
		C249,22.4,251.9,18.5,255.5,17.6z"/>
	<path class="st2" d="M275.5,15.1c-1.2,3.5-4,5.4-5.4,4.5c-2.1-1.4-2.3-3.9-1.1-7.4c1.2-3.5,5-5.5,5.7-5.3
		C275.3,7.1,276.8,11.7,275.5,15.1z"/>
	<path class="st2" d="M261.1,12.8c2.7,2.6,3.2,5.9,1.8,6.8c-2.2,1.3-4.5,0.5-7.2-2.1c-2.7-2.6-2.9-6.8-2.4-7.4
		C253.8,9.7,258.6,10.2,261.1,12.8z"/>
	<path class="st1" d="M628.9,60.7C628.9,60.7,628.9,60.7,628.9,60.7c-8-1-13.7-8.2-12.8-16.2c1.2-10,10.2-17.2,20.2-16"/>
	<path class="st2" d="M605.9,34.1c0.4-0.5,4.7-0.9,7.6,1.4c2.9,2.3,4.1,4.5,3.1,6.8c-0.7,1.5-4,1.5-7-0.8
		C606.7,39.3,605.5,34.6,605.9,34.1z"/>
	<path class="st2" d="M592.5,28.6c-0.1-0.7,2.3-4.2,6-4.9c3.7-0.7,6.1-0.2,7.2,2c0.7,1.6-1.5,4-5.1,4.8
		C597,31.4,592.6,29.3,592.5,28.6z"/>
	<path class="st2" d="M600.1,9.6c-0.1-0.7,2.4-4.1,6.1-4.8s6.1-0.1,7.1,2.2c0.7,1.5-1.6,4-5.3,4.7C604.5,12.6,600.2,10.3,600.1,9.6z
		"/>
	<path class="st2" d="M636,3.7c0.7,0,3.9,2.8,4.2,6.5c0.3,3.7-0.4,6.1-2.9,6.9c-1.6,0.5-3.9-1.9-4.2-5.7
		C632.7,7.8,635.3,3.8,636,3.7z"/>
	<path class="st2" d="M636.5,69.2c-0.5,0.5-4.8,0.2-7.3-2.5c-2.5-2.7-3.4-5.1-2-7.2c0.9-1.4,4.2-0.8,6.8,1.9
		C636.6,63.9,637,68.7,636.5,69.2z"/>
	<path class="st2" d="M645.5,33.1c0.3,0.6-1.2,4.6-4.6,6.2c-3.4,1.6-5.9,1.7-7.5-0.2c-1.1-1.3,0.4-4.3,3.8-5.9
		C640.5,31.5,645.3,32.5,645.5,33.1z"/>
	<path class="st2" d="M566,40.2c-0.1-0.7,2.5-4.1,6.1-4.7s6.1,0,7.1,2.3c0.7,1.5-1.6,4-5.3,4.6C570.4,43.2,566.1,40.9,566,40.2z"/>
	<path class="st2" d="M582.3,24.5c0.7,0,3.7,3,3.8,6.8c0.1,3.7-0.9,6-3.3,6.7c-1.6,0.5-3.7-2.2-3.8-5.9
		C578.8,28.4,581.7,24.5,582.3,24.5z"/>
	<path class="st2" d="M625.2,18.9c0.3-0.6,4.5-1.8,7.8,0c3.3,1.8,4.8,3.7,4.2,6.2c-0.4,1.6-3.7,2.2-7,0.4
		C626.8,23.9,624.8,19.5,625.2,18.9z"/>
	<path class="st2" d="M627.3,33.5c0.6,0.2,2.5,4.1,1.3,7.7c-1.2,3.5-2.8,5.4-5.4,5.2c-1.7-0.1-2.8-3.3-1.6-6.8
		C622.6,35.9,626.7,33.2,627.3,33.5z"/>
	<path class="st2" d="M629.8,53.4c-0.3,0.6-4.3,2.2-7.7,0.7s-5.2-3.2-4.8-5.7c0.2-1.7,3.5-2.5,6.9-1.1
		C627.6,48.5,630.1,52.7,629.8,53.4z"/>
	<path class="st2" d="M609,57.4c-0.6-0.4-1.6-4.5,0.2-7.8s3.9-4.7,6.3-4c1.6,0.5,2.1,3.8,0.2,7C614,55.9,609.5,57.8,609,57.4z"/>
	<path class="st2" d="M639.6,52.9c0.3,0.6-0.6,4.7-3.7,6.8c-3.1,2.1-5.6,2.5-7.5,0.8c-1.3-1.1-0.1-4.3,3-6.4
		C634.4,52,639.3,52.3,639.6,52.9z"/>
	<path class="st2" d="M562.9,13c0.5-0.5,4.8-0.3,7.4,2.4c2.6,2.7,3.4,5,2.1,7.2c-0.9,1.4-4.2,0.9-6.8-1.8
		C562.9,18.2,562.4,13.4,562.9,13z"/>
	<path class="st2" d="M595.6,15.5c-0.1,0.7-3.7,3-7.4,2.3s-5.7-2.1-5.9-4.6c-0.1-1.7,2.9-3.2,6.6-2.5
		C592.5,11.2,595.7,14.7,595.6,15.5z"/>
	<path class="st1" d="M603.9,23.3c0-8.1,4.7-15.4,12.8-16.4c10.1-1.2,19.3,5.9,20.5,16c1.6,12.6-7.4,24.1-20,25.6"/>
	<path class="st1" d="M584.8,13.2c-6.1-0.8-11.7,3.6-12.5,9.7c-0.9,7.6,4.5,14.6,12.1,15.6c9.6,1.2,19.5-5.7,19.5-15.2"/>
	<path class="st0" d="M424.7,21.5C424.7,21.5,424.7,21.5,424.7,21.5c5-0.7,9.6,2.8,10.3,7.8c0,0,0,0,0,0c0.9,6.3-3.5,12-9.8,12.9
		c0,0,0,0,0,0c-7.8,1.1-15.1-4.4-16.1-12.2c0,0,0,0,0,0c-1.4-9.8,5.5-18.8,15.2-20.2c0,0,0,0,0,0c12.2-1.7,23.5,6.8,25.2,19.1"/>
	<path class="st0" d="M369.8,37.6C369.8,37.6,369.8,37.6,369.8,37.6c1.6,9.8,10.7,16.4,20.5,14.9c12.2-1.9,20.5-13.4,18.6-25.5"/>
	<path class="st0" d="M329.4,39.6C329.4,39.6,329.4,39.5,329.4,39.6c-1.4-9.8,5.5-18.8,15.2-20.2c12.2-1.7,23.5,6.8,25.2,19.1"/>
	<path class="st1" d="M813.4,10.4C813.4,10.4,813.4,10.4,813.4,10.4c-4.5,0.5-7.6,4.6-7.1,9c0.6,5.6,5.7,9.5,11.2,8.9"/>
	<path class="st1" d="M796.6,20.8C796.6,20.8,796.6,20.8,796.6,20.8c3.9-2.3,8.8-1,11.1,2.8"/>
	<path class="st2" d="M811.3,16.8c-1-3.6,0.2-6.8,1.9-6.8c2.5-0.1,4.1,1.9,5.1,5.5c1,3.6-1,7.4-1.6,7.6
		C816.1,23.3,812.2,20.4,811.3,16.8z"/>
	<path class="st2" d="M802.5,9.7c3.6,0.9,5.7,3.5,4.9,5c-1.2,2.2-3.7,2.6-7.3,1.7c-3.6-0.9-5.9-4.6-5.7-5.2
		C794.5,10.6,799,8.7,802.5,9.7z"/>
	<path class="st2" d="M790.4,24.2c1.7-3.3,4.8-4.8,6-3.6c1.9,1.7,1.7,4.2,0,7.5c-1.7,3.3-5.8,4.7-6.4,4.4
		C789.4,32.2,788.6,27.5,790.4,24.2z"/>
	<path class="st2" d="M817.7,14.6c-3.6-1-5.7-3.6-4.8-5.1c1.3-2.2,3.7-2.6,7.3-1.6s5.8,4.6,5.7,5.3
		C825.7,13.9,821.2,15.7,817.7,14.6z"/>
	<path class="st1" d="M36.5,18.3c0.6,5.6,9.6,9.8,15.2,9.8"/>
	<path class="st1" d="M26.8,19.8c3.8-2.3,8.2-2.7,10.5,1.1"/>
	<path class="st2" d="M21.6,17.3c3.6-1,6.7,0.2,6.8,1.9c0.1,2.5-1.9,4.1-5.4,5.1c-3.5,1-7.4-1-7.6-1.6C15.1,22,18,18.1,21.6,17.3z"
		/>
	<path class="st2" d="M9,34.2c3.6-1,6.7,0.2,6.8,1.9c0.1,2.5-1.9,4.1-5.4,5.1s-7.4-1-7.6-1.6C2.5,38.9,5.4,35,9,34.2z"/>
	<path class="st2" d="M41.1,34.3c-0.6-3.6,1-6.6,2.7-6.5c2.5,0.2,3.8,2.3,4.5,6s-1.8,7.2-2.4,7.3C45.1,41.4,41.6,38,41.1,34.3z"/>
	<path class="st2" d="M35.7,31.2c2.7-2.5,6.1-2.9,6.9-1.4c1.2,2.2,0.2,4.5-2.5,7.1s-7,2.5-7.5,2C32.1,38.4,32.9,33.6,35.7,31.2z"/>
	<path class="st2" d="M14.4,55.2c-3.2-1.9-4.4-5.1-3.2-6.2c1.8-1.8,4.3-1.4,7.5,0.5c3.2,1.9,4.3,6.1,4,6.7
		C22.3,56.7,17.5,57.3,14.4,55.2z"/>
	<path class="st2" d="M5.8,51.9c0.9-3.6,3.5-5.7,5-4.9c2.2,1.2,2.6,3.7,1.7,7.3C11.6,57.8,8,60.1,7.3,60C6.7,59.8,4.7,55.4,5.8,51.9
		z"/>
	<path class="st2" d="M18.6,35.9c0.9-3.6,3.5-5.7,5-4.9c2.2,1.2,2.6,3.7,1.7,7.3c-0.9,3.6-4.5,5.9-5.2,5.8
		C19.5,43.9,17.5,39.4,18.6,35.9z"/>
	<path class="st2" d="M41.6,14.7c-1.2,3.5-4,5.4-5.4,4.5c-2.1-1.4-2.3-3.9-1.1-7.4c1.2-3.5,5-5.5,5.7-5.3
		C41.4,6.7,42.9,11.3,41.6,14.7z"/>
	<path class="st2" d="M27.2,12.5c2.7,2.6,3.2,5.9,1.8,6.8c-2.2,1.3-4.5,0.5-7.2-2.1s-2.9-6.8-2.5-7.4C19.8,9.3,24.7,9.8,27.2,12.5z"
		/>
	<path class="st1" d="M755.3,62C755.3,62,755.2,62,755.3,62c-1.4-0.2-2.3-1.4-2.1-2.7c0.2-1.7,1.7-2.9,3.4-2.7c0,0,0,0,0,0
		c2.1,0.3,3.6,2.1,3.3,4.2c0,0,0,0,0,0c-0.3,2.6-2.7,4.5-5.3,4.2c-3.3-0.4-5.6-3.3-5.2-6.6c0.5-4.1,4.2-7,8.3-6.6"/>
	<path class="st1" d="M647.1,20.8C647.1,20.8,647.1,20.8,647.1,20.8c-0.3-1.3-1.6-2.1-2.9-1.8c0,0,0,0,0,0c-1.6,0.4-2.7,2-2.3,3.7
		c0,0,0,0,0,0c0.5,2.1,2.5,3.3,4.6,2.9c2.6-0.6,4.2-3.2,3.6-5.7c-0.8-3.2-4-5.2-7.2-4.5c0,0,0,0,0,0c-4,0.9-6.5,5-5.6,9"/>
	<path class="st1" d="M250.9,38.9C250.9,38.9,250.9,39,250.9,38.9c-0.8,1.2-0.4,2.7,0.7,3.4c1.4,0.9,3.3,0.5,4.2-0.9
		c1.2-1.8,0.7-4.1-1.1-5.3c-2.2-1.5-5.2-0.9-6.6,1.3c-1.8,2.8-1.1,6.5,1.7,8.3c0,0,0,0,0,0c3.4,2.3,8.1,1.3,10.4-2.1"/>
	<path class="st1" d="M348,29.5C348,29.5,348,29.5,348,29.5c-1.4-0.2-2.3-1.4-2.2-2.7c0.2-1.7,1.7-2.9,3.4-2.7c0,0,0,0,0,0
		c2.1,0.2,3.6,2.1,3.4,4.2c-0.3,2.6-2.7,4.5-5.3,4.2c0,0,0,0,0,0c-3.3-0.4-5.6-3.4-5.2-6.6c0,0,0,0,0,0c0.5-4.1,4.2-7,8.3-6.5"/>
	<path class="st1" d="M68.1,46C68.1,46,68.1,46,68.1,46c0.1-1.4-0.9-2.5-2.3-2.6c-1.7-0.1-3.1,1.2-3.2,2.8c-0.1,2.1,1.5,3.9,3.6,4
		c2.6,0.2,4.9-1.8,5.1-4.4c0,0,0,0,0,0c0.2-3.3-2.3-6.1-5.5-6.4c-4.1-0.3-7.7,2.8-8,6.9"/>
	<path class="st1" d="M48.5,16.6C48.5,16.7,48.5,16.7,48.5,16.6c1.2,0.7,1.6,2.2,0.9,3.3c-0.9,1.5-2.7,2-4.2,1.1c0,0,0,0,0,0
		c-1.8-1.1-2.4-3.4-1.4-5.2c1.3-2.3,4.3-3,6.5-1.7c2.8,1.7,3.8,5.3,2.2,8.2c-2.1,3.6-6.6,4.8-10.2,2.7"/>
	<path class="st1" d="M1024.7,68.1C1024.7,68.1,1024.7,68.1,1024.7,68.1c-9.9-1.2-17-10.1-15.8-20c0,0,0,0,0,0
		c1.4-12.3,12.6-21.2,25-19.7"/>
	<path class="st1" d="M987.3,44.8C987.3,44.8,987.3,44.8,987.3,44.8c8.5,5.1,19.6,2.3,24.7-6.2"/>
	<path class="st2" d="M1003.4,70.2c-0.5-0.5-0.7-4.7,1.7-7.6c2.4-2.8,4.7-3.9,7-2.8c1.5,0.8,1.3,4.1-1.1,6.9
		C1008.6,69.6,1003.9,70.6,1003.4,70.2z"/>
	<path class="st2" d="M976.8,51c-0.2-0.7,2.2-4.3,5.7-5.2c3.6-0.9,6.1-0.5,7.3,1.7c0.8,1.5-1.3,4.1-4.9,5
		C981.4,53.6,977,51.6,976.8,51z"/>
	<path class="st2" d="M977.3,38.7c0.4-0.5,4.7-0.9,7.6,1.4c2.9,2.3,4.1,4.5,3.1,6.8c-0.7,1.5-4,1.5-7-0.8
		C978,43.9,976.8,39.2,977.3,38.7z"/>
	<path class="st2" d="M1020.8,46c0.4,0.6-0.4,4.8-3.5,7c-3,2.2-5.5,2.7-7.4,1.1c-1.3-1.1-0.3-4.3,2.7-6.5
		C1015.6,45.3,1020.5,45.4,1020.8,46z"/>
	<path class="st2" d="M1037,64.6c0.2,0.7-2.1,4.3-5.7,5.3c-3.6,0.9-6.1,0.6-7.3-1.6c-0.8-1.5,1.2-4.1,4.8-5.1
		C1032.4,62,1036.8,63.9,1037,64.6z"/>
	<path class="st1" d="M1008.5,18.3c0.7,5.6,9.6,9.8,15.2,9.8"/>
	<path class="st1" d="M998.9,19.8c3.8-2.3,8.2-2.7,10.5,1.1"/>
	<path class="st2" d="M993.7,17.3c3.6-1,6.7,0.2,6.8,1.9c0.1,2.5-1.9,4.1-5.4,5.1c-3.6,1-7.4-1-7.6-1.6
		C987.2,22.1,990.1,18.2,993.7,17.3z"/>
	<path class="st2" d="M1013.7,14.8c-1.2,3.5-4,5.4-5.4,4.5c-2.1-1.4-2.3-3.9-1.1-7.4s5-5.5,5.7-5.3
		C1013.4,6.7,1015,11.3,1013.7,14.8z"/>
	<path class="st2" d="M999.3,12.5c2.7,2.6,3.2,5.9,1.8,6.8c-2.2,1.3-4.5,0.5-7.2-2.1s-2.9-6.8-2.4-7.4
		C991.9,9.3,996.8,9.8,999.3,12.5z"/>
	<path class="st1" d="M990,32.3c-1,5.5,6.3,12.2,11.6,13.9"/>
	<path class="st2" d="M1000.3,38.6c-0.5,3.7-2.9,6-4.5,5.4c-2.3-1-3-3.4-2.4-7.1s3.9-6.3,4.6-6.2C998.6,30.8,1001,35,1000.3,38.6z"
		/>
	<path class="st2" d="M991.7,30.4c1.8,3.2,1.3,6.6-0.3,7c-2.5,0.7-4.5-0.9-6.3-4.1s-0.7-7.4-0.1-7.7C985.6,25.2,990,27.1,991.7,30.4
		z"/>
	<path class="st1" d="M1006,32C1006,32,1005.9,32,1006,32c-1.4-0.2-2.3-1.4-2.1-2.7c0.2-1.7,1.7-2.9,3.4-2.7c0,0,0,0,0,0
		c2.1,0.3,3.6,2.1,3.3,4.2c0,0,0,0,0,0c-0.3,2.6-2.7,4.5-5.3,4.2c-3.3-0.4-5.6-3.3-5.2-6.6c0.5-4.1,4.2-7,8.3-6.6"/>
	<path class="st1" d="M943.7,35.8c5,2.4,13.5-2.8,16.5-7.5"/>
	<path class="st1" d="M939.7,44.8c0.1-4.4,2.1-8.4,6.6-8.3"/>
	<path class="st2" d="M934.9,47.8c1.1-3.6,3.8-5.6,5.2-4.7c2.2,1.3,2.5,3.8,1.4,7.4s-4.8,5.7-5.4,5.5
		C935.4,55.8,933.6,51.3,934.9,47.8z"/>
	<path class="st2" d="M943.5,29.6c2.3,2.9,2.4,6.3,0.9,7c-2.3,1-4.5-0.1-6.8-3.1c-2.3-2.9-2-7.2-1.4-7.6
		C936.6,25.4,941.3,26.6,943.5,29.6z"/>
	<path class="st2" d="M933.8,40.5c3.6-0.9,6.7,0.4,6.7,2.1c0,2.5-2,4.1-5.6,5s-7.3-1.2-7.5-1.9C927.2,45,930.2,41.2,933.8,40.5z"/>
	<path class="st1" d="M1125.3,38c4.7,3.6,5.6,10.4,2,15.1c-4.5,5.9-13,7-18.9,2.5c-7.4-5.6-8.8-16.2-3.1-23.6c0,0,0,0,0,0
		c7.1-9.2,20.2-11,29.5-3.9"/>
	<path class="st2" d="M1095.4,33.3c-0.3-0.6,1.2-4.6,4.6-6.2s5.8-1.7,7.5,0.2c1.1,1.3-0.4,4.3-3.8,5.9
		C1100.4,34.9,1095.6,33.9,1095.4,33.3z"/>
	<path class="st2" d="M1117.4,44c0.7-0.1,4.2,2.2,5,5.9c0.8,3.6,0.4,6.1-1.9,7.3c-1.5,0.8-4.1-1.4-4.9-5
		C1114.7,48.6,1116.8,44.2,1117.4,44z"/>
	<path class="st2" d="M1138.7,53.8c0.1,0.7-2.3,4.2-6,4.9c-3.7,0.7-6.1,0.2-7.2-2.1c-0.7-1.5,1.5-4,5.2-4.8
		C1134.2,50.9,1138.6,53.1,1138.7,53.8z"/>
	<path class="st2" d="M1127.3,30.6c0.7-0.1,4.2,2.3,5.1,5.9c0.8,3.6,0.4,6.1-1.9,7.3c-1.5,0.8-4.1-1.4-4.9-5
		C1124.6,35.1,1126.7,30.7,1127.3,30.6z"/>
	<path class="st2" d="M1120.5,34.6c0.5-0.5,4.8-0.3,7.4,2.4c2.6,2.7,3.5,5,2.2,7.2c-0.9,1.4-4.2,1-6.8-1.7
		C1120.5,39.9,1120,35.1,1120.5,34.6z"/>
	<path class="st1" d="M1087.8,40.4c5,2.4,13.5-2.8,16.5-7.5"/>
	<path class="st1" d="M1083.8,49.4c0.1-4.4,2.1-8.4,6.6-8.3"/>
	<path class="st2" d="M1079,52.4c1.1-3.6,3.8-5.6,5.2-4.7c2.2,1.3,2.5,3.8,1.4,7.4c-1.1,3.6-4.8,5.7-5.4,5.5
		C1079.5,60.4,1077.7,55.9,1079,52.4z"/>
	<path class="st2" d="M1087.6,34.2c2.3,2.9,2.4,6.3,0.9,7c-2.3,1-4.5-0.1-6.8-3.1c-2.3-2.9-2-7.2-1.4-7.6
		C1080.6,30,1085.4,31.2,1087.6,34.2z"/>
	<path class="st2" d="M1077.9,45.1c3.6-0.9,6.7,0.4,6.7,2.1c0,2.5-2,4.1-5.6,5c-3.6,0.9-7.3-1.2-7.5-1.9
		C1071.3,49.6,1074.3,45.8,1077.9,45.1z"/>
	<path class="st1" d="M1097.4,5.4C1097.4,5.4,1097.4,5.4,1097.4,5.4c-4.5,0.5-7.6,4.6-7.1,9c0.6,5.6,5.7,9.5,11.2,8.9"/>
	<path class="st1" d="M1080.7,15.9C1080.7,15.9,1080.7,15.9,1080.7,15.9c3.9-2.3,8.8-1,11.1,2.8"/>
	<path class="st2" d="M1096.6,12.8c-3.4,1.6-6.7,1-7-0.7c-0.5-2.5,1.1-4.4,4.5-6c3.4-1.6,7.4-0.3,7.7,0.3S1100.1,11.3,1096.6,12.8z"
		/>
	<path class="st2" d="M1097.3,10.9c-2.5,2.8-5.8,3.4-6.7,2c-1.4-2.1-0.6-4.5,1.9-7.2c2.5-2.8,6.8-3.1,7.3-2.6
		C1100.3,3.4,1099.9,8.3,1097.3,10.9z"/>
	<path class="st2" d="M1074.4,19.2c1.7-3.3,4.8-4.8,6-3.6c1.9,1.7,1.7,4.2,0,7.5s-5.8,4.7-6.4,4.4
		C1073.4,27.2,1072.7,22.5,1074.4,19.2z"/>
	<path class="st2" d="M1096,8.7c-1.7,3.3-4.7,4.8-6,3.7c-1.9-1.7-1.8-4.2-0.1-7.5s5.7-4.7,6.3-4.4C1096.9,0.7,1097.8,5.5,1096,8.7z"
		/>
</g>
</svg>
