<?xml version="1.0" encoding="utf-8"?>
<!-- Generator: Adobe Illustrator 26.0.3, SVG Export Plug-In . SVG Version: 6.00 Build 0)  -->
<svg version="1.1" id="Capa_1" xmlns="http://www.w3.org/2000/svg" xmlns:xlink="http://www.w3.org/1999/xlink" x="0px" y="0px"
	 viewBox="0 0 70 70" style="enable-background:new 0 0 70 70;" xml:space="preserve">
<style type="text/css">
	.st0{fill:none;stroke:#2C3D44;stroke-linecap:round;stroke-miterlimit:10;}
	.st1{fill:#A0BF80;stroke:#2C3D44;stroke-linecap:round;stroke-miterlimit:10;}
</style>
<g>
	<g>
		<path class="st0" d="M15.8,52.9c0,0.2,3,4,3.5,4.8c0.6,0.8,3.9,3.2,5.5,3.9c2.3,1,4.4,1.7,4.9,1c0.1-0.2,0.2-0.4,0.2-0.6"/>
		<path class="st0" d="M17.8,51.4c0,0.2,3.1,4.3,3.6,5.2s3.5,2.5,5.7,3.8c1.9,1.2,5.4,2.3,5.9,1.6c0.2-0.4,0.3-1-0.1-1.7"/>
		<path class="st1" d="M35,45.6c-3.2,0-2.9-5.8-7.8-6.3c-3.5-0.3-4.5,4.3-2.2,9.4c2.5,5.4,8.3,8.2,10,9.9"/>
		<path class="st0" d="M20.1,49.7c0,0.2,3.2,4.3,3.7,5.2c0.6,0.8,4.5,3.8,6.8,4.6c2.4,0.8,3.7,1.2,4.1,0.5c0.2-0.3,0.3-1-0.1-1.6"/>
		<g>
			<path class="st0" d="M25.1,61.8c-0.2,0.8-0.9,0.7-1.2,0.6c-2-0.5-4.2-2.3-5.7-4.2c-2.6-3.1-4.4-5.4-4.7-7c-0.7-3.2-1.4-6-2.4-9.8
				c-1-3.7-0.8-3.9-1.8-8C9,32.1,7.4,28,7.9,27.4c2-2,8-4.5,11.2-4.4c1.3,3.2,2,4.3,4.2,6.4c0.5,0.5,3.6,0.8,5.7,2.6
				c2.3,2,6.2,8.3,7.3,10.7c0.8,1.7,0.5,1.6,0.4,2.2"/>
		</g>
		<path class="st0" d="M8.1,29.9c-2.8,0.7-3.9,0.6-4.5-2.4c-1-4.9-1.5-7.1-1.5-7.1s1.6-2.9,7.8-5.8c5.6-2.6,10-1.7,10.3-0.9
			c0.3,0.9,4,7,2.9,9.4c-0.5,1.2-3,2.2-3,2.2"/>
	</g>
	<g>
		<path class="st0" d="M54.2,52.9c0,0.2-3,4-3.5,4.8c-0.6,0.8-3.9,3.2-5.5,3.9c-2.3,1-4.4,1.7-4.9,1c-0.1-0.2-0.2-0.4-0.2-0.6"/>
		<path class="st0" d="M52.2,51.4c0,0.2-3.1,4.3-3.6,5.2c-0.6,0.8-3.5,2.5-5.7,3.8C41,61.6,37.5,62.7,37,62c-0.2-0.4-0.3-1,0.1-1.7"
			/>
		<path class="st1" d="M35,45.6c3.2,0,2.9-5.9,7.8-6.3c3.5-0.3,4.5,4.3,2.2,9.4c-2.5,5.4-8.3,8.2-10,9.9"/>
		<path class="st0" d="M49.9,49.7c0,0.2-3.2,4.3-3.7,5.2c-0.6,0.8-4.5,3.8-6.8,4.6c-2.4,0.8-3.7,1.2-4.1,0.5c-0.2-0.3-0.3-1,0-1.6"
			/>
		<g>
			<path class="st0" d="M44.9,61.7c0.2,0.8,0.9,0.7,1.2,0.6c2-0.5,4.2-2.3,5.7-4.2c2.6-3.1,4.4-5.4,4.7-7c0.7-3.2,1.4-6,2.4-9.8
				c1-3.7,0.8-3.9,1.8-8c0.3-1.3,1.9-5.4,1.4-5.9c-2-2-8-4.5-11.2-4.4c-1.3,3.2-2,4.3-4.2,6.4c-0.5,0.5-3.6,0.8-5.7,2.6
				c-2.3,2-4.8,6-5.9,8.4"/>
		</g>
		<path class="st0" d="M61.9,29.9c2.8,0.7,3.9,0.6,4.5-2.4c1-4.9,1.5-7.1,1.5-7.1s-1.6-2.9-7.8-5.8c-5.6-2.6-10-1.7-10.3-0.9
			s-4,7-2.9,9.4c0.5,1.2,3,2.2,3,2.2"/>
	</g>
</g>
</svg>
