<?xml version="1.0" encoding="utf-8"?>
<!-- Generator: Adobe Illustrator 26.0.3, SVG Export Plug-In . SVG Version: 6.00 Build 0)  -->
<svg version="1.1" id="Capa_1" xmlns="http://www.w3.org/2000/svg" xmlns:xlink="http://www.w3.org/1999/xlink" x="0px" y="0px"
	 viewBox="0 0 70 70" style="enable-background:new 0 0 70 70;" xml:space="preserve">
<style type="text/css">
	.st0{fill:#659692;stroke:#233D4D;stroke-miterlimit:10;}
	.st1{fill:none;stroke:#233D4D;stroke-miterlimit:10;}
	.st2{fill:#F9C745;stroke:#233D4D;stroke-miterlimit:10;}
	.st3{fill:#9FBE7F;stroke:#233D4D;stroke-miterlimit:10;}
	.st4{fill:#E85F5A;stroke:#233D4D;stroke-miterlimit:10;}
</style>
<g>
	<path class="st0" d="M37.6,26.3c-0.5,0.5-1.4,0-2.2,0c-0.8,0-1,0.5-1.8,0.6c-0.4,0.1-1-0.3-1-0.3s-0.1-2.7,0.7-4.1
		c0.3-0.6,1.2,1.1,1.8,1.7C35.6,24.9,37.6,26.3,37.6,26.3z"/>
	<path class="st1" d="M34.1,2.5C23.2,2.1,17.3,5.1,14,8.4c-1.5,1.4-2.6,3.1-3.2,5c-0.4,1.1-0.6,2.3-0.6,3.6c0,6,4.6,10.9,10.4,11.6
		c3.2,0.5,7.2,0.5,7.2,2.4c0,2.3-4.7,2.2-6.1,2.4c-3,0.4-5.8,1.8-7.8,4c-2.3,2.5-3.4,6.1-2.8,9.5c2,9.9,14,11.5,22.3,11.1
		c3.6-0.2,7.2-0.5,10.5-1.9c4.8-2.1,8.9-5.7,11.7-10.1c1.4-2.2,2.5-4.6,3.3-7.1c2-6.6,0.2-14.3-3.1-21C51.5,9.6,44.2,3.2,34.6,2.6
		C34.4,2.6,34.2,2.5,34.1,2.5z"/>
	<path class="st2" d="M19.1,9.8c-0.6,1.3-0.3,3.2,0.5,4.2c1.4,1.9,4.3,2.1,6.2,1.1c1.3-0.7,2.2-2,2.4-3.4S27.5,8.7,26.3,8
		c-1.4-0.7-3.1-0.3-4.6,0.1C21,8.3,20.5,8.4,20,8.7C19.6,9,19.3,9.3,19.1,9.8z"/>
	<path class="st3" d="M34.5,14.2c0.7,1,2.5,2.1,3.8,2.2c1.3,0.1,2.6-0.9,3.4-2.2c0.6-1.1,0.7-1.5,0.6-2.5c0-1.1-0.5-2.1-1.3-2.9
		C39.9,7.6,37.5,7,36,7.7C33.3,8.8,33.1,12.2,34.5,14.2z"/>
	<path class="st0" d="M46.5,16.3c-0.5,0.3-2.1,1.5-2.3,3.4c-0.1,2-0.2,4.2,1.1,5.3c1.3,1.2,3.7,1.2,4.4,0.9c2.4-0.9,4.1-4.3,2.6-6.6
		c-0.7-1.1-1.3-2.3-2.3-3.1C49,15.3,47.7,15.7,46.5,16.3z"/>
	<path class="st4" d="M48.8,32.9c-0.9,0.6-2.4,3.1-1.6,5.2s2.8,2.6,3.6,2c0.9-0.6,3.2,0.2,3.9-0.8c0.7-1,1.7-3.8,0.1-5.8
		S50,32,48.8,32.9z"/>
	<ellipse transform="matrix(0.866 -0.5 0.5 0.866 -18.5595 17.2288)" class="st1" cx="22.9" cy="43.2" rx="5.3" ry="3.8"/>
	<path class="st1" d="M33.7,22.5c-0.1-0.1-0.3-0.1-0.4,0c-0.4,1.1-1.2,4-0.3,6.1c1.1,2.6,3.1,3.5,3.1,3.5l2.9-1.2c0,0,0.5-0.6,0-2.1
		c-0.9-3-2.8-3.2-4.1-4.7C34.3,23.3,33.9,22.8,33.7,22.5z"/>
	<path class="st1" d="M40.3,34l-3,1.2c0,0-0.8-0.6-1.2-1.4c-0.4-0.9-0.1-1.7-0.1-1.7l3-1.2c0,0,0.8,0.4,1.2,1.3
		C40.7,33.3,40.3,34,40.3,34z"/>
	<path class="st1" d="M42.8,39.7l-3.3,1.3c0,0-0.6-1-1.4-2.8c-0.6-1.5-0.8-3-0.8-3l3-1.2c0,0,0.9,1.1,1.5,2.8
		C42.6,38.7,42.8,39.7,42.8,39.7z"/>
	<path class="st0" d="M51.9,61.9c-0.1-0.2-0.1-0.3-0.2-0.5l0,0l-8.9-21.7l-3.3,1.4l8.8,21.6c0.1,0.2,0.1,0.4,0.2,0.6
		c1.4,3.6,2.7,4.6,3.6,4.2C53.1,67.1,53.3,65.5,51.9,61.9z"/>
	<path class="st1" d="M37.6,26.3c-0.5,0.5-1.4,0-2.2,0c-0.8,0-1,0.5-1.8,0.6c-0.4,0.1-1-0.3-1-0.3"/>
</g>
</svg>
