<?xml version="1.0" encoding="utf-8"?>
<!-- Generator: Adobe Illustrator 26.0.3, SVG Export Plug-In . SVG Version: 6.00 Build 0)  -->
<svg version="1.1" id="Capa_1" xmlns="http://www.w3.org/2000/svg" xmlns:xlink="http://www.w3.org/1999/xlink" x="0px" y="0px"
	 viewBox="0 0 30 30" style="enable-background:new 0 0 30 30;" xml:space="preserve">
<style type="text/css">
	.st0{fill:#FFFFFF;}
</style>
<path class="st0" d="M12.3,19.3v-8.4l7.4,4.1L12.3,19.3z M28.7,8.2c-0.3-1.2-1.2-2.1-2.5-2.5C23.9,5,15,5,15,5S6.3,5,4,5.6
	C2.8,5.9,1.9,7,1.6,8.2c-0.6,2.1-0.6,6.9-0.6,6.9s0,4.6,0.6,6.9c0.3,1.2,1.2,2.1,2.5,2.5c2.1,0.6,11,0.6,11,0.6s8.9,0,11-0.6
	c1.2-0.3,2.1-1.2,2.5-2.5c0.6-2.1,0.6-6.9,0.6-6.9S29.3,10.4,28.7,8.2"/>
</svg>
